<?xml version="1.0" encoding="iso-8859-1"?>
<!-- Generator: Adobe Illustrator 18.0.0, SVG Export Plug-In . SVG Version: 6.00 Build 0)  -->
<!DOCTYPE svg PUBLIC "-//W3C//DTD SVG 1.1//EN" "http://www.w3.org/Graphics/SVG/1.1/DTD/svg11.dtd">
<svg version="1.1" id="Capa_1" xmlns="http://www.w3.org/2000/svg" xmlns:xlink="http://www.w3.org/1999/xlink" x="0px" y="0px"
	 viewBox="0 0 60 60" style="enable-background:new 0 0 60 60;" xml:space="preserve">
<path d="M60,30c0-0.491-0.014-0.98-0.037-1.468c-0.008-0.166-0.023-0.331-0.034-0.496c-0.021-0.319-0.042-0.637-0.073-0.954
	c-0.02-0.201-0.046-0.401-0.069-0.601c-0.033-0.277-0.065-0.554-0.106-0.829c-0.032-0.219-0.069-0.437-0.106-0.654
	c-0.042-0.251-0.086-0.501-0.134-0.75c-0.046-0.234-0.095-0.466-0.146-0.697c-0.05-0.228-0.102-0.455-0.158-0.682
	c-0.06-0.245-0.123-0.488-0.189-0.73c-0.057-0.211-0.117-0.421-0.18-0.631c-0.073-0.249-0.149-0.496-0.229-0.742
	c-0.067-0.207-0.138-0.412-0.209-0.617c-0.083-0.238-0.167-0.475-0.255-0.71c-0.028-0.074-0.051-0.149-0.08-0.222l-0.553-1.435
	l-0.037,0.037C52.724,7.331,42.205,0,30,0C17.65,0,7.021,7.503,2.427,18.19l-0.012,0.006l-0.147,0.355
	c-0.109,0.265-0.206,0.533-0.308,0.8c-0.053,0.14-0.11,0.279-0.162,0.42c-0.112,0.307-0.213,0.617-0.314,0.926
	c-0.052,0.157-0.107,0.313-0.156,0.472c-0.098,0.316-0.185,0.635-0.271,0.954c-0.042,0.154-0.088,0.307-0.128,0.462
	c-0.085,0.334-0.159,0.67-0.233,1.006c-0.032,0.145-0.068,0.288-0.097,0.434c-0.071,0.349-0.13,0.7-0.188,1.051
	c-0.023,0.138-0.05,0.275-0.071,0.414c-0.054,0.356-0.096,0.714-0.137,1.073c-0.016,0.139-0.037,0.277-0.051,0.417
	c-0.037,0.373-0.062,0.748-0.086,1.124c-0.008,0.127-0.021,0.253-0.028,0.381C0.013,28.987,0,29.493,0,30
	c0,0.479,0.014,0.956,0.036,1.432c0.009,0.2,0.027,0.398,0.04,0.597c0.018,0.266,0.036,0.531,0.061,0.796
	c0.024,0.259,0.056,0.516,0.086,0.773c0.024,0.194,0.047,0.389,0.074,0.583c0.041,0.295,0.088,0.588,0.138,0.881
	c0.025,0.146,0.051,0.292,0.078,0.437c0.06,0.324,0.125,0.647,0.196,0.968c0.022,0.101,0.046,0.201,0.07,0.301
	c0.082,0.356,0.169,0.71,0.264,1.062c0.011,0.041,0.024,0.082,0.035,0.123c0.437,1.585,1,3.118,1.679,4.587
	c0.046,0.099,0.088,0.2,0.135,0.298c0.11,0.23,0.226,0.457,0.341,0.684c0.102,0.201,0.203,0.403,0.309,0.603
	c0.091,0.17,0.186,0.337,0.28,0.505c0.144,0.257,0.289,0.513,0.441,0.766c0.073,0.122,0.148,0.242,0.223,0.362
	c0.185,0.299,0.375,0.596,0.57,0.889c0.052,0.078,0.105,0.156,0.159,0.234c0.227,0.333,0.461,0.662,0.702,0.986
	c0.031,0.042,0.062,0.084,0.094,0.126c0.257,0.343,0.522,0.681,0.795,1.013L6.801,49.02l0.375,0.44l1.122,1.313l0.019-0.053
	c0.125,0.131,0.257,0.253,0.384,0.382c0.074,0.074,0.148,0.148,0.223,0.221c0.284,0.28,0.571,0.556,0.864,0.824
	c0.058,0.053,0.117,0.104,0.176,0.157c0.315,0.283,0.634,0.562,0.959,0.831c0.012,0.01,0.025,0.02,0.037,0.03
	c1.364,1.123,2.819,2.115,4.346,2.975c0.168,0.095,0.334,0.192,0.504,0.284c0.234,0.126,0.471,0.244,0.708,0.363
	c0.232,0.117,0.463,0.234,0.698,0.345c0.206,0.097,0.414,0.189,0.622,0.281c0.275,0.122,0.551,0.242,0.83,0.356
	c0.185,0.075,0.37,0.148,0.556,0.22c0.309,0.119,0.62,0.234,0.934,0.343c0.168,0.058,0.337,0.116,0.506,0.172
	c0.337,0.111,0.676,0.214,1.018,0.313c0.155,0.045,0.309,0.09,0.465,0.132c0.359,0.097,0.721,0.186,1.085,0.271
	c0.146,0.034,0.291,0.07,0.438,0.101c0.373,0.08,0.75,0.151,1.128,0.217c0.143,0.025,0.284,0.053,0.428,0.077
	c0.384,0.062,0.771,0.112,1.159,0.159c0.14,0.017,0.279,0.038,0.419,0.053c0.4,0.043,0.804,0.072,1.209,0.099
	c0.129,0.009,0.257,0.023,0.386,0.03C28.929,59.984,29.463,60,30,60c0.527,0,1.051-0.014,1.572-0.042
	c0.236-0.012,0.47-0.036,0.705-0.054c0.281-0.021,0.564-0.038,0.843-0.067c0.282-0.029,0.561-0.07,0.841-0.107
	c0.23-0.03,0.461-0.057,0.688-0.092c0.286-0.045,0.57-0.1,0.854-0.153c0.222-0.041,0.445-0.08,0.665-0.126
	c0.271-0.057,0.54-0.123,0.809-0.187c0.235-0.056,0.471-0.111,0.704-0.173c0.247-0.066,0.492-0.138,0.737-0.21
	c0.257-0.075,0.513-0.151,0.766-0.233c0.221-0.071,0.44-0.147,0.659-0.224c0.278-0.097,0.554-0.197,0.828-0.301
	c0.2-0.076,0.399-0.155,0.597-0.236c0.284-0.115,0.564-0.235,0.844-0.359c0.113-0.05,0.229-0.094,0.342-0.146l1.15-0.525
	l-0.023-0.03c9.51-4.851,16.1-14.621,16.398-25.938l0.006-0.006L60,30z M45.498,42.451c-0.144,0.145-0.336,0.225-0.54,0.225h0
	c-0.203-0.001-0.394-0.08-0.538-0.224l-3.872-3.872c-0.296-0.298-0.296-0.781,0.001-1.078l3.801-3.801l2.308,2.308
	c0.195,0.195,0.451,0.293,0.707,0.293s0.512-0.098,0.707-0.293c0.391-0.391,0.391-1.023,0-1.414l-2.308-2.308l1.586-1.586
	l1.308,1.308c0.195,0.195,0.451,0.293,0.707,0.293s0.512-0.098,0.707-0.293c0.391-0.391,0.391-1.023,0-1.414l-1.308-1.308
	l1.586-1.586l2.308,2.308c0.195,0.195,0.451,0.293,0.707,0.293s0.512-0.098,0.707-0.293c0.391-0.391,0.391-1.023,0-1.414
	l-2.308-2.308l1.586-1.586l1.308,1.308c0.195,0.195,0.451,0.293,0.707,0.293s0.512-0.098,0.707-0.293
	c0.391-0.391,0.391-1.023,0-1.414l-1.308-1.308l1.881-1.881c0.008,0.026,0.018,0.052,0.026,0.078
	c0.197,0.616,0.37,1.238,0.524,1.865c0.029,0.119,0.055,0.239,0.083,0.358c0.137,0.591,0.257,1.186,0.354,1.785
	c0.009,0.055,0.021,0.109,0.029,0.164c0.099,0.631,0.17,1.267,0.226,1.906c0.013,0.151,0.024,0.303,0.035,0.455
	c0.043,0.613,0.072,1.229,0.075,1.847c0,0.029,0.002,0.058,0.002,0.087L45.498,42.451z M38.241,44.759L38.241,44.759
	c-0.33-0.329-0.411-0.831-0.203-1.248l1.537-3.073l1.496,1.495l1.492,1.492l-3.074,1.537C39.071,45.17,38.57,45.088,38.241,44.759z
	 M30,2c11.665,0,21.682,7.172,25.885,17.337L39.134,36.088c-0.628,0.629-0.879,1.487-0.774,2.307l-2.111,4.221
	c-0.439,0.877-0.424,1.885-0.01,2.73l-1.842,1.842c-2.754-3.318-4.11-6.682-4.11-10.188l-0.007-0.119
	c0.925-4.29,1.507-8.781,0.41-12.844c-0.555-2.056-2.165-4.009-4.533-5.5c-2.914-1.836-7.022-2.045-10.721-0.546l-0.131,0.054
	c-0.054,0.023-0.107,0.047-0.162,0.064c-0.307,0.104-0.542,0.194-0.734,0.268c-0.495,0.186-0.494,0.187-1.37-0.066
	c-2.424-0.701-5.411-1.385-7.996-0.982C9.676,8.242,19.12,2,30,2z M29.293,53.707C29.488,53.902,29.744,54,30,54
	s0.512-0.098,0.707-0.293l3.619-3.619c0.913,0.955,1.923,1.899,3.042,2.832c0.568,0.473,1.222,1.028,1.792,1.635
	c0.442,0.47,0.861,0.942,1.267,1.424c-0.134,0.054-0.268,0.107-0.403,0.159c-0.207,0.08-0.414,0.159-0.623,0.234
	c-0.229,0.082-0.461,0.159-0.693,0.235c-0.19,0.063-0.38,0.126-0.572,0.184c-0.262,0.08-0.526,0.153-0.791,0.225
	c-0.165,0.045-0.33,0.092-0.497,0.134c-0.293,0.074-0.59,0.141-0.887,0.205c-0.145,0.032-0.289,0.066-0.434,0.095
	c-0.315,0.063-0.633,0.118-0.951,0.17c-0.134,0.022-0.267,0.047-0.401,0.068c-0.328,0.049-0.659,0.089-0.991,0.126
	c-0.129,0.015-0.258,0.033-0.387,0.046c-0.343,0.034-0.69,0.057-1.036,0.079c-0.12,0.007-0.239,0.02-0.359,0.025
	C30.938,57.987,30.47,58,30,58c-0.494,0-0.986-0.014-1.476-0.039c-0.096-0.005-0.19-0.016-0.286-0.022
	c-0.396-0.025-0.791-0.053-1.184-0.095c-0.099-0.01-0.195-0.026-0.294-0.037c-0.388-0.045-0.776-0.094-1.161-0.155
	c-0.1-0.016-0.198-0.036-0.298-0.053c-0.379-0.065-0.757-0.133-1.132-0.213c-0.108-0.023-0.215-0.05-0.322-0.075
	c-0.362-0.081-0.722-0.167-1.08-0.263c-0.122-0.032-0.242-0.069-0.363-0.103c-0.336-0.095-0.671-0.194-1.003-0.301
	c-0.142-0.046-0.282-0.095-0.423-0.143c-0.303-0.103-0.605-0.21-0.904-0.324c-0.165-0.063-0.329-0.129-0.492-0.195
	c-0.266-0.107-0.531-0.217-0.794-0.332c-0.189-0.083-0.376-0.168-0.563-0.255c-0.228-0.106-0.455-0.215-0.68-0.327
	c-0.213-0.106-0.425-0.214-0.635-0.326c-0.187-0.099-0.372-0.202-0.556-0.305c-0.238-0.134-0.476-0.268-0.71-0.408
	c-0.144-0.086-0.286-0.176-0.428-0.265c-0.264-0.165-0.528-0.331-0.786-0.505c-0.094-0.063-0.187-0.13-0.281-0.195
	c-0.298-0.205-0.594-0.412-0.883-0.628c-0.015-0.011-0.03-0.023-0.045-0.035c-1.403-1.053-2.703-2.235-3.884-3.528
	c-0.021-0.023-0.043-0.045-0.064-0.068c-0.066-0.073-0.129-0.15-0.194-0.224l0.113-0.323c0.594-1.707,1.156-3.32,2.152-4.747
	c0.722-1.034,2.663-3.289,5.098-1.866c1.661,0.968,2.178,2.908,2.726,4.962c0.162,0.605,0.321,1.202,0.507,1.764
	c0.821,2.476,1.903,5.031,3.71,5.22c0.072,0.008,0.143,0.011,0.213,0.011c0.025,0,0.05-0.005,0.075-0.006
	c0.06-0.002,0.119-0.008,0.177-0.015c0.056-0.007,0.112-0.017,0.167-0.029c0.061-0.013,0.122-0.029,0.182-0.048
	c0.051-0.016,0.102-0.036,0.153-0.057c0.062-0.025,0.123-0.052,0.184-0.083c0.048-0.025,0.096-0.055,0.144-0.084
	c0.061-0.037,0.121-0.074,0.181-0.118c0.048-0.035,0.095-0.075,0.142-0.114c0.057-0.048,0.115-0.094,0.171-0.148
	c0.05-0.048,0.099-0.103,0.149-0.155c0.051-0.055,0.103-0.107,0.154-0.167c0.059-0.071,0.117-0.15,0.176-0.228
	c0.039-0.052,0.079-0.1,0.118-0.156c0.097-0.139,0.192-0.288,0.285-0.448c1.299-2.23,1.851-4.688,2.384-7.065l0.187-0.827
	c0.145-0.635,0.31-1.299,0.471-1.959c0.761,2.278,2.069,4.515,3.896,6.701l-3.699,3.699C28.902,52.684,28.902,53.316,29.293,53.707z
	 M6.475,45.156c-0.086-0.134-0.174-0.267-0.258-0.402c-0.341-0.55-0.665-1.11-0.967-1.68c-0.046-0.086-0.089-0.174-0.134-0.261
	c-0.647-1.255-1.201-2.555-1.65-3.892c-0.014-0.042-0.029-0.083-0.042-0.125c-0.228-0.688-0.431-1.385-0.606-2.09
	c-0.002-0.007-0.003-0.015-0.005-0.022c-0.174-0.705-0.319-1.417-0.437-2.135c-0.004-0.024-0.009-0.047-0.013-0.071
	c-0.11-0.679-0.19-1.364-0.25-2.051c-0.011-0.124-0.019-0.248-0.028-0.373C2.033,31.371,2,30.687,2,30
	c0-0.467,0.013-0.931,0.035-1.392c0.006-0.131,0.019-0.261,0.027-0.391c0.021-0.333,0.043-0.666,0.076-0.995
	c0.014-0.143,0.034-0.285,0.05-0.428c0.036-0.315,0.074-0.63,0.12-0.943c0.022-0.146,0.049-0.292,0.073-0.438
	c0.051-0.306,0.103-0.612,0.164-0.914c0.03-0.148,0.063-0.295,0.095-0.442c0.064-0.296,0.131-0.592,0.205-0.884
	c0.038-0.152,0.08-0.304,0.121-0.455c0.077-0.284,0.156-0.567,0.241-0.848c0.047-0.155,0.097-0.31,0.147-0.464
	c0.089-0.276,0.182-0.551,0.279-0.823c0.053-0.149,0.109-0.298,0.165-0.447c0.058-0.154,0.12-0.306,0.181-0.459
	c0.12-0.05,0.242-0.096,0.366-0.14c2.334-0.808,5.762,0.01,8.138,0.696c1.349,0.389,1.644,0.391,2.635,0.014
	c0.175-0.066,0.388-0.147,0.668-0.243c0.099-0.033,0.196-0.073,0.294-0.114l0.102-0.043c3.116-1.262,6.529-1.114,8.907,0.383
	c1.942,1.224,3.245,2.762,3.668,4.33c0.985,3.646,0.438,7.837-0.432,11.885l-0.075,0.342c-0.283,1.287-0.595,2.559-0.898,3.795
	c-0.237,0.966-0.469,1.91-0.678,2.825l-0.189,0.835c-0.523,2.332-1.017,4.534-2.161,6.497c-0.389,0.668-0.674,0.852-0.735,0.863
	c-0.032-0.005-0.793-0.164-2.019-3.859c-0.174-0.525-0.322-1.083-0.474-1.65c-0.599-2.245-1.277-4.791-3.65-6.175
	c-0.192-0.112-0.387-0.208-0.582-0.294c-0.057-0.025-0.115-0.046-0.173-0.069c-0.142-0.057-0.285-0.108-0.429-0.151
	c-0.062-0.019-0.124-0.037-0.187-0.053c-0.154-0.04-0.308-0.072-0.463-0.097c-0.045-0.007-0.09-0.018-0.135-0.023
	c-0.201-0.026-0.403-0.041-0.604-0.042c-0.005,0-0.01-0.001-0.015-0.001c-0.019,0-0.038,0.004-0.058,0.004
	c-0.187,0.002-0.373,0.017-0.559,0.041c-0.057,0.007-0.113,0.016-0.17,0.026c-0.171,0.028-0.341,0.066-0.511,0.113
	c-0.041,0.011-0.081,0.02-0.122,0.032c-0.206,0.063-0.411,0.139-0.614,0.229c-0.042,0.019-0.083,0.041-0.125,0.061
	c-0.163,0.077-0.324,0.162-0.483,0.256c-0.056,0.033-0.112,0.066-0.167,0.101c-0.171,0.108-0.34,0.225-0.506,0.353
	c-0.026,0.02-0.052,0.037-0.078,0.057c-0.19,0.15-0.375,0.314-0.558,0.49c-0.048,0.046-0.094,0.095-0.141,0.142
	c-0.139,0.14-0.276,0.287-0.411,0.443c-0.05,0.057-0.1,0.114-0.149,0.174c-0.172,0.209-0.342,0.426-0.505,0.66
	c-0.271,0.388-0.508,0.786-0.728,1.189c-0.073,0.135-0.137,0.271-0.206,0.407c-0.139,0.274-0.274,0.549-0.397,0.828
	c-0.071,0.16-0.137,0.321-0.204,0.482c-0.109,0.265-0.215,0.53-0.315,0.797c-0.063,0.169-0.127,0.336-0.187,0.504
	c-0.024,0.066-0.05,0.133-0.074,0.199c-0.04-0.053-0.078-0.108-0.117-0.162C7.125,46.135,6.793,45.649,6.475,45.156z M42.315,55.139
	c-0.542-0.666-1.098-1.315-1.698-1.954c-0.647-0.688-1.356-1.291-1.969-1.802c-1.079-0.899-2.049-1.799-2.916-2.7l1.929-1.929
	c0.422,0.206,0.878,0.324,1.344,0.324c0.467,0,0.939-0.107,1.378-0.326l4.219-2.11c0.118,0.015,0.235,0.035,0.356,0.035h0
	c0.738,0,1.432-0.288,1.954-0.811l10.933-10.933C56.825,42.698,50.762,50.984,42.315,55.139z"/>
<g>
</g>
<g>
</g>
<g>
</g>
<g>
</g>
<g>
</g>
<g>
</g>
<g>
</g>
<g>
</g>
<g>
</g>
<g>
</g>
<g>
</g>
<g>
</g>
<g>
</g>
<g>
</g>
<g>
</g>
</svg>
