<?xml version="1.0" encoding="iso-8859-1"?>
<!-- Generator: Adobe Illustrator 18.0.0, SVG Export Plug-In . SVG Version: 6.00 Build 0)  -->
<!DOCTYPE svg PUBLIC "-//W3C//DTD SVG 1.1//EN" "http://www.w3.org/Graphics/SVG/1.1/DTD/svg11.dtd">
<svg version="1.1" id="Capa_1" xmlns="http://www.w3.org/2000/svg" xmlns:xlink="http://www.w3.org/1999/xlink" x="0px" y="0px"
	 viewBox="0 0 60 60" style="enable-background:new 0 0 60 60;" xml:space="preserve">
<path d="M30,0c-1.26,0-2.499,0.087-3.718,0.239c-0.002,0-0.005-0.001-0.007,0c-0.022,0.003-0.043,0.007-0.065,0.01
	c-0.43,0.055-0.858,0.117-1.283,0.19c-0.058,0.01-0.115,0.021-0.172,0.031c-0.401,0.071-0.799,0.148-1.195,0.235
	c-0.098,0.021-0.195,0.045-0.293,0.068c-0.351,0.081-0.7,0.165-1.046,0.257c-0.168,0.045-0.334,0.095-0.501,0.142
	c-0.272,0.078-0.545,0.156-0.814,0.242c-0.277,0.088-0.55,0.184-0.824,0.279c-0.156,0.055-0.314,0.106-0.469,0.164
	C15.804,3.258,12.318,5.428,9.35,8.251C9.332,8.269,9.314,8.285,9.296,8.302c-0.611,0.584-1.2,1.196-1.765,1.835
	c-0.018,0.02-0.038,0.038-0.055,0.057c-0.007,0.008-0.011,0.018-0.018,0.026c-0.172,0.196-0.348,0.389-0.515,0.59
	c-0.014,0.017-0.017,0.038-0.03,0.055C2.598,16.063,0,22.733,0,30c0,0.825,0.043,1.639,0.108,2.448c0,0.002,0,0.004,0,0.007
	c0.001,0.009,0.002,0.017,0.003,0.026C0.153,32.99,0.207,33.497,0.275,34c0.005,0.036,0.009,0.072,0.014,0.108
	c0.065,0.469,0.141,0.935,0.227,1.397c0.014,0.074,0.026,0.149,0.04,0.224c0.08,0.412,0.171,0.82,0.268,1.226
	c0.028,0.119,0.053,0.239,0.083,0.358c0.089,0.354,0.189,0.704,0.29,1.052c0.047,0.161,0.088,0.323,0.137,0.482
	c0.094,0.304,0.199,0.603,0.302,0.902c0.156,0.455,0.325,0.906,0.504,1.354c0.077,0.193,0.149,0.39,0.231,0.581
	c0.113,0.266,0.237,0.527,0.358,0.791c0.092,0.2,0.181,0.403,0.277,0.601c0.126,0.258,0.261,0.513,0.394,0.768
	c0.102,0.195,0.202,0.391,0.308,0.583c0.047,0.084,0.087,0.171,0.135,0.255c0.015,0.027,0.037,0.048,0.054,0.073
	C9.056,53.849,18.82,60,30,60c16.542,0,30-13.458,30-30S46.542,0,30,0z M25.6,2.353c0.405,1.785,0.998,2.899,1.836,3.473
	c0.225,0.155,0.507,0.21,0.771,0.153c0.059-0.014,5.82-1.188,9.559,1.989c2.361,2.006,3.45,5.365,3.235,9.985
	c-0.003,0.073,0.001,0.146,0.014,0.217c0.042,0.246,1.05,6.053,2.033,9.134c2.596,8.142-0.925,16.208-0.96,16.288
	c-0.063,0.143-0.092,0.307-0.085,0.462c0.002,0.056,0.049,1.392-1.018,2.482c-0.918,0.938-2.395,1.439-4.395,1.491l-2.912-8.082
	l-1.043-2.896c0.157-0.02,0.314-0.038,0.474-0.056c0.405-0.044,0.743-0.329,0.854-0.721c0.111-0.393-0.026-0.813-0.348-1.063
	c-0.051-0.04-5.054-4.044-2.657-11.92c0.013-0.044,0.024-0.088,0.031-0.133c0.219-1.366-0.055-4.191-2.657-5.103
	c-0.523-0.181-1.092,0.093-1.274,0.614c-0.183,0.521,0.092,1.092,0.613,1.274c1.544,0.54,1.393,2.482,1.35,2.843
	c-1.637,5.46-0.2,9.327,1.273,11.597c-2.732,0.514-4.779,1.253-5.657,1.603L13.17,7.654c0.144-0.109,0.284-0.222,0.43-0.328
	c0.243-0.176,0.485-0.354,0.734-0.523c0.472-0.319,0.954-0.62,1.444-0.909c0.235-0.139,0.471-0.276,0.71-0.409
	c0.535-0.295,1.079-0.574,1.633-0.833c0.19-0.089,0.382-0.175,0.575-0.26c0.621-0.274,1.25-0.531,1.891-0.759
	c0.11-0.039,0.221-0.074,0.331-0.112C22.433,3.002,23.996,2.605,25.6,2.353z M20.963,47.992c-0.01-0.002-0.02-0.004-0.03-0.005
	c-0.716-0.116-1.423-0.252-2.116-0.412l-2.619-10.062c0,0,0,0,0,0L9.337,11.151c0.17-0.187,0.336-0.379,0.511-0.561
	c0.085-0.088,0.167-0.178,0.253-0.265c0.043-0.044,0.085-0.089,0.128-0.133c0.122-0.122,0.25-0.237,0.374-0.357
	c0.308-0.296,0.623-0.583,0.943-0.864L26.77,46.595l0.821,2.03c-0.048-0.002-0.095-0.005-0.143-0.008
	c-0.622-0.033-1.246-0.071-1.871-0.116c-0.106-0.008-0.212-0.015-0.317-0.023c-0.673-0.051-1.346-0.111-2.016-0.184
	c-0.075-0.008-0.148-0.017-0.222-0.026C22.331,48.191,21.642,48.101,20.963,47.992z M5.325,43.219
	c-0.032-0.06-0.062-0.122-0.093-0.182c-0.325-0.615-0.625-1.238-0.901-1.871c-0.035-0.08-0.074-0.158-0.108-0.239
	c-0.281-0.661-0.53-1.333-0.758-2.011c-0.04-0.118-0.082-0.236-0.12-0.355c-0.221-0.69-0.415-1.389-0.582-2.095
	C2.741,36.377,2.72,36.288,2.7,36.199c-0.17-0.757-0.315-1.521-0.422-2.295c3.229,1.304,5.615,2.558,6.951,3.659
	c0.526,0.434,1.12,0.813,1.771,1.128V43c-0.04,0-0.079,0.002-0.119,0.007C10.854,43.01,8.241,43.318,5.325,43.219z M13,44.728v-6.34
	c0.3,0.082,0.603,0.148,0.907,0.197c0.166,0.026,0.341,0.054,0.525,0.08l2.16,8.298c-1.319-0.436-2.501-0.965-3.591-1.601V44.728z
	 M29.791,48.728l-4.405-10.887c0.752-0.298,2.528-0.942,4.896-1.419l1.754,4.868l2.772,7.696c-1.497-0.107-3.045-0.174-4.544-0.238
	l-0.122-0.005C30.025,48.737,29.908,48.732,29.791,48.728z M7.757,13.02l6.119,23.508c-0.493-0.107-0.98-0.257-1.449-0.478
	c-0.31-0.145-0.672-0.121-0.961,0.061c-0.14,0.089-0.251,0.21-0.331,0.349c-0.218-0.14-0.438-0.28-0.632-0.439
	c-1.646-1.358-4.495-2.821-8.447-4.351C2.021,31.117,2,30.561,2,30C2,23.619,4.15,17.734,7.757,13.02z M30,58
	c-9.822,0-18.473-5.088-23.472-12.762c1.871-0.001,3.457-0.131,4.179-0.201c0.096,0.072,0.196,0.138,0.293,0.208v0.681
	c0,0.345,0.177,0.664,0.469,0.848c1.823,1.143,3.86,1.986,6.275,2.597c0.003,0.001,0.006,0.003,0.009,0.004
	c0.011,0.003,0.022,0.005,0.034,0.008c0.345,0.087,0.703,0.167,1.064,0.244c0.156,0.034,0.313,0.068,0.47,0.099
	c0.299,0.06,0.606,0.116,0.918,0.169c0.238,0.041,0.477,0.079,0.716,0.116c0.266,0.041,0.533,0.082,0.808,0.119
	c0.396,0.053,0.794,0.1,1.193,0.144c0.126,0.014,0.242,0.031,0.369,0.044c0.001,0,0.003,0,0.005,0.001h0
	c0.01,0.001,0.02,0.001,0.03,0.001c0.013,0.001,0.025,0.002,0.038,0.004c0.002,0,0.004,0.001,0.006,0.002
	c0.435,0.044,0.87,0.083,1.307,0.119c0.012,0.001,0.024,0.001,0.036,0.001c0.032,0.003,0.065,0.005,0.097,0.008
	c0.001,0,0.001,0.001,0.002,0.001c0.018,0.001,0.035,0.003,0.053,0.004c0.395,0.031,0.79,0.06,1.186,0.085
	c0.021,0.001,0.043,0.003,0.064,0.004c0.008,0,0.016,0,0.024,0.001c0.021,0.001,0.043,0.003,0.065,0.004
	c0.001,0,0.002,0.001,0.003,0.001h0c0.001,0,0.002,0,0.003,0c0.024,0.001,0.048,0.002,0.073,0.004
	c0.921,0.057,1.838,0.101,2.742,0.141c0.008,0,0.016,0,0.024,0c0.325,0.015,0.648,0.029,0.972,0.042l0.122,0.005
	c1.548,0.066,3.148,0.135,4.673,0.249c0.484,0.036,0.951,0.055,1.402,0.055c0.326,0,0.631-0.158,0.818-0.425
	c0.13-0.185,0.187-0.406,0.175-0.627c2.266-0.158,4.012-0.861,5.201-2.099c1.342-1.397,1.531-3.052,1.551-3.692
	c0.577-1.383,3.582-9.267,0.953-17.51c-0.871-2.73-1.807-7.954-1.949-8.761c0.222-5.216-1.104-9.081-3.943-11.492
	c-3.794-3.224-9.05-2.765-10.734-2.515c-0.201-0.27-0.476-0.803-0.727-1.819C28.392,2.042,29.191,2,30,2c15.439,0,28,12.561,28,28
	S45.439,58,30,58z"/>
<g>
</g>
<g>
</g>
<g>
</g>
<g>
</g>
<g>
</g>
<g>
</g>
<g>
</g>
<g>
</g>
<g>
</g>
<g>
</g>
<g>
</g>
<g>
</g>
<g>
</g>
<g>
</g>
<g>
</g>
</svg>
