<?xml version="1.0" encoding="iso-8859-1"?>
<!-- Generator: Adobe Illustrator 18.0.0, SVG Export Plug-In . SVG Version: 6.00 Build 0)  -->
<!DOCTYPE svg PUBLIC "-//W3C//DTD SVG 1.1//EN" "http://www.w3.org/Graphics/SVG/1.1/DTD/svg11.dtd">
<svg version="1.1" id="Capa_1" xmlns="http://www.w3.org/2000/svg" xmlns:xlink="http://www.w3.org/1999/xlink" x="0px" y="0px"
	 viewBox="0 0 60 60" style="enable-background:new 0 0 60 60;" xml:space="preserve">
<g>
	<path d="M44.707,6.055C40.803,2.15,35.58,0,30,0S19.197,2.15,15.293,6.055L15,6.348v47.305l0.293,0.293
		C19.197,57.85,24.42,60,30,60s10.803-2.15,14.707-6.055L45,53.652V6.348L44.707,6.055z M43,12v6v24v6v4.817
		c-0.14,0.134-0.292,0.25-0.436,0.379C42.401,53.082,42.214,53,42,53c-0.552,0-1,0.448-1,1c0,0.142,0.031,0.275,0.084,0.397
		c-2.181,1.594-4.664,2.696-7.321,3.227C33.904,57.452,34,57.24,34,57c0-0.552-0.448-1-1-1s-1,0.448-1,1
		c0,0.351,0.192,0.645,0.465,0.823C31.654,57.928,30.834,58,30,58s-1.653-0.072-2.465-0.177C27.808,57.645,28,57.351,28,57
		c0-0.552-0.448-1-1-1s-1,0.448-1,1c0,0.24,0.096,0.452,0.237,0.624c-2.657-0.53-5.14-1.633-7.321-3.227
		C18.969,54.275,19,54.142,19,54c0-0.552-0.448-1-1-1c-0.214,0-0.401,0.082-0.564,0.197c-0.143-0.129-0.296-0.245-0.436-0.379V48v-6
		V18v-6V7.183c0.14-0.134,0.292-0.25,0.436-0.379C17.599,6.918,17.786,7,18,7c0.552,0,1-0.448,1-1c0-0.142-0.031-0.275-0.084-0.397
		c2.181-1.594,4.664-2.696,7.321-3.227C26.096,2.548,26,2.76,26,3c0,0.552,0.448,1,1,1s1-0.448,1-1c0-0.351-0.192-0.645-0.465-0.823
		C28.347,2.072,29.166,2,30,2s1.653,0.072,2.465,0.177C32.192,2.355,32,2.649,32,3c0,0.552,0.448,1,1,1s1-0.448,1-1
		c0-0.24-0.096-0.452-0.237-0.624c2.657,0.53,5.14,1.633,7.321,3.227C41.031,5.725,41,5.858,41,6c0,0.552,0.448,1,1,1
		c0.214,0,0.401-0.082,0.564-0.197C42.708,6.933,42.86,7.049,43,7.183V12z"/>
	<circle cx="24" cy="6" r="1"/>
	<circle cx="30" cy="6" r="1"/>
	<circle cx="36" cy="6" r="1"/>
	<circle cx="21" cy="9" r="1"/>
	<circle cx="27" cy="9" r="1"/>
	<circle cx="33" cy="9" r="1"/>
	<circle cx="39" cy="9" r="1"/>
	<circle cx="18" cy="12" r="1"/>
	<circle cx="18" cy="18" r="1"/>
	<circle cx="21" cy="15" r="1"/>
	<circle cx="24" cy="12" r="1"/>
	<circle cx="30" cy="12" r="1"/>
	<circle cx="24" cy="18" r="1"/>
	<circle cx="30" cy="18" r="1"/>
	<circle cx="27" cy="15" r="1"/>
	<circle cx="33" cy="15" r="1"/>
	<circle cx="36" cy="12" r="1"/>
	<circle cx="42" cy="12" r="1"/>
	<circle cx="36" cy="18" r="1"/>
	<circle cx="42" cy="18" r="1"/>
	<circle cx="39" cy="15" r="1"/>
	<circle cx="21" cy="21" r="1"/>
	<circle cx="27" cy="21" r="1"/>
	<circle cx="33" cy="21" r="1"/>
	<circle cx="39" cy="21" r="1"/>
	<circle cx="18" cy="42" r="1"/>
	<circle cx="24" cy="42" r="1"/>
	<circle cx="30" cy="42" r="1"/>
	<circle cx="36" cy="42" r="1"/>
	<circle cx="42" cy="42" r="1"/>
	<circle cx="21" cy="45" r="1"/>
	<circle cx="27" cy="45" r="1"/>
	<circle cx="33" cy="45" r="1"/>
	<circle cx="39" cy="45" r="1"/>
	<circle cx="21" cy="39" r="1"/>
	<circle cx="27" cy="39" r="1"/>
	<circle cx="33" cy="39" r="1"/>
	<circle cx="39" cy="39" r="1"/>
	<circle cx="18" cy="48" r="1"/>
	<circle cx="21" cy="51" r="1"/>
	<circle cx="24" cy="48" r="1"/>
	<circle cx="30" cy="48" r="1"/>
	<circle cx="24" cy="54" r="1"/>
	<circle cx="30" cy="54" r="1"/>
	<circle cx="27" cy="51" r="1"/>
	<circle cx="33" cy="51" r="1"/>
	<circle cx="36" cy="48" r="1"/>
	<circle cx="42" cy="48" r="1"/>
	<circle cx="36" cy="54" r="1"/>
	<circle cx="39" cy="51" r="1"/>
</g>
<g>
</g>
<g>
</g>
<g>
</g>
<g>
</g>
<g>
</g>
<g>
</g>
<g>
</g>
<g>
</g>
<g>
</g>
<g>
</g>
<g>
</g>
<g>
</g>
<g>
</g>
<g>
</g>
<g>
</g>
</svg>
