<?xml version="1.0" encoding="iso-8859-1"?>
<!-- Generator: Adobe Illustrator 18.0.0, SVG Export Plug-In . SVG Version: 6.00 Build 0)  -->
<!DOCTYPE svg PUBLIC "-//W3C//DTD SVG 1.1//EN" "http://www.w3.org/Graphics/SVG/1.1/DTD/svg11.dtd">
<svg version="1.1" id="Capa_1" xmlns="http://www.w3.org/2000/svg" xmlns:xlink="http://www.w3.org/1999/xlink" x="0px" y="0px"
	 viewBox="0 0 60 60" style="enable-background:new 0 0 60 60;" xml:space="preserve">
<g>
	<path d="M42.747,6h-4.925C37.645,6,37.5,5.855,37.5,5.678V2.93C37.5,1.314,36.186,0,34.57,0H26.43c-1.615,0-2.93,1.314-2.93,2.93
		v2.748C23.5,5.855,23.355,6,23.178,6h-4.925C15.632,6,13.5,8.132,13.5,10.753v31.396c0,2.124,1.728,3.851,3.851,3.851H29.5v1h-3h-1
		c-0.553,0-1,0.448-1,1s0.447,1,1,1h1v4.414L29.086,56h0.23c-0.414,1.161-1.514,2-2.816,2c-2.206,0-4-1.794-4-4
		c0-0.081-0.028-0.153-0.046-0.229C22.221,51.023,20.183,49,17.5,49c-2.683,0-4.721,2.023-4.954,4.772
		C12.528,53.847,12.5,53.919,12.5,54v5c0,0.552,0.447,1,1,1s1-0.448,1-1v-4.714c0-1.904,1.262-3.286,3-3.286s3,1.382,3,3.286
		c0,0.034,0.016,0.063,0.019,0.096C20.718,57.512,23.32,60,26.5,60c2.414,0,4.434-1.721,4.899-4h0.515l2.586-2.586V49h1
		c0.553,0,1-0.448,1-1s-0.447-1-1-1h-1h-3v-1h12.149c2.123,0,3.851-1.728,3.851-3.851V10.753C47.5,8.132,45.368,6,42.747,6z
		 M32.5,52.586L31.086,54h-1.172L28.5,52.586V49h4V52.586z M45.5,42.149c0,1.021-0.83,1.851-1.851,1.851H31.5v-1h6.62
		c0.47,0,0.932-0.162,1.302-0.457l4.297-3.438c0.496-0.397,0.781-0.99,0.781-1.627V11.084C44.5,9.935,43.565,9,42.416,9H18.584
		C17.435,9,16.5,9.935,16.5,11.084v26.395c0,0.637,0.285,1.229,0.781,1.627l4.299,3.439C21.948,42.838,22.41,43,22.88,43h6.62v1
		H17.351c-1.021,0-1.851-0.831-1.851-1.851V10.753C15.5,9.235,16.735,8,18.253,8h4.925c1.28,0,2.322-1.042,2.322-2.322V2.93
		C25.5,2.417,25.917,2,26.43,2h8.141c0.513,0,0.93,0.417,0.93,0.93v2.748C35.5,6.958,36.542,8,37.822,8h4.925
		c1.518,0,2.753,1.235,2.753,2.753V42.149z M30.5,39c-0.553,0-1,0.448-1,1v0.99l-4.003-0.005C25.489,40.44,25.047,40,24.5,40
		c-0.546,0-0.987,0.439-0.997,0.983l-0.675-0.001L18.5,37.479V11.084c0-0.046,0.038-0.084,0.084-0.084H23.5c0,0.552,0.448,1,1,1
		s1-0.448,1-1h4c0,0.552,0.448,1,1,1s1-0.448,1-1h4c0,0.552,0.448,1,1,1s1-0.448,1-1h4.916c0.046,0,0.084,0.038,0.084,0.084
		l-0.031,26.46l-4.295,3.436C38.158,40.993,38.14,41,38.12,41l-0.62-0.001c0-0.552-0.448-0.999-1-0.999
		c-0.551,0-0.998,0.446-0.999,0.997L31.5,40.992V40C31.5,39.448,31.053,39,30.5,39z"/>
	<circle cx="30.5" cy="52" r="1"/>
	<path d="M33.5,4h-2c0-0.552-0.447-1-1-1s-1,0.448-1,1h-2c-0.553,0-1,0.448-1,1s0.447,1,1,1h2c0,0.552,0.447,1,1,1s1-0.448,1-1h2
		c0.553,0,1-0.448,1-1S34.053,4,33.5,4z"/>
	<circle cx="21.5" cy="14" r="1"/>
	<circle cx="27.5" cy="14" r="1"/>
	<circle cx="33.5" cy="14" r="1"/>
	<circle cx="39.5" cy="14" r="1"/>
	<circle cx="24.5" cy="17" r="1"/>
	<circle cx="30.5" cy="17" r="1"/>
	<circle cx="36.5" cy="17" r="1"/>
	<circle cx="21.5" cy="20" r="1"/>
	<circle cx="27.5" cy="20" r="1"/>
	<circle cx="21.5" cy="26" r="1"/>
	<circle cx="27.5" cy="26" r="1"/>
	<circle cx="24.5" cy="23" r="1"/>
	<circle cx="30.5" cy="23" r="1"/>
	<circle cx="33.5" cy="20" r="1"/>
	<circle cx="39.5" cy="20" r="1"/>
	<circle cx="33.5" cy="26" r="1"/>
	<circle cx="39.5" cy="26" r="1"/>
	<circle cx="36.5" cy="23" r="1"/>
	<circle cx="24.5" cy="29" r="1"/>
	<circle cx="30.5" cy="29" r="1"/>
	<circle cx="36.5" cy="29" r="1"/>
	<circle cx="21.5" cy="32" r="1"/>
	<circle cx="27.5" cy="32" r="1"/>
	<circle cx="21.5" cy="38" r="1"/>
	<circle cx="27.5" cy="38" r="1"/>
	<circle cx="24.5" cy="35" r="1"/>
	<circle cx="30.5" cy="35" r="1"/>
	<circle cx="33.5" cy="32" r="1"/>
	<circle cx="39.5" cy="32" r="1"/>
	<circle cx="33.5" cy="38" r="1"/>
	<circle cx="39.5" cy="38" r="1"/>
	<circle cx="36.5" cy="35" r="1"/>
</g>
<g>
</g>
<g>
</g>
<g>
</g>
<g>
</g>
<g>
</g>
<g>
</g>
<g>
</g>
<g>
</g>
<g>
</g>
<g>
</g>
<g>
</g>
<g>
</g>
<g>
</g>
<g>
</g>
<g>
</g>
</svg>
