<?xml version="1.0" encoding="iso-8859-1"?>
<!-- Generator: Adobe Illustrator 18.0.0, SVG Export Plug-In . SVG Version: 6.00 Build 0)  -->
<!DOCTYPE svg PUBLIC "-//W3C//DTD SVG 1.1//EN" "http://www.w3.org/Graphics/SVG/1.1/DTD/svg11.dtd">
<svg version="1.1" id="Capa_1" xmlns="http://www.w3.org/2000/svg" xmlns:xlink="http://www.w3.org/1999/xlink" x="0px" y="0px"
	 viewBox="0 0 60 60" style="enable-background:new 0 0 60 60;" xml:space="preserve">
<g>
	<circle cx="18" cy="38" r="1"/>
	<circle cx="42" cy="38" r="1"/>
	<path d="M60,30c0-2.031-0.205-4.015-0.592-5.934l0.011-0.003l-0.217-0.927c-0.008-0.033-0.019-0.065-0.027-0.099
		c-0.295-1.236-0.664-2.444-1.107-3.616c-0.033-0.087-0.069-0.172-0.102-0.259c-0.187-0.481-0.386-0.955-0.597-1.424
		c-0.059-0.131-0.117-0.261-0.177-0.391c-0.241-0.515-0.492-1.025-0.761-1.524c-0.018-0.033-0.034-0.067-0.052-0.1
		c-0.274-0.505-0.567-0.998-0.869-1.485c-0.114-0.184-0.233-0.365-0.351-0.547c-0.202-0.311-0.41-0.618-0.624-0.921
		c-0.138-0.196-0.274-0.392-0.416-0.584c-0.296-0.4-0.601-0.792-0.916-1.177c-0.177-0.216-0.361-0.425-0.544-0.636
		c-0.217-0.251-0.436-0.5-0.662-0.743c-0.094-0.101-0.18-0.208-0.275-0.308L51.34,8.919l-0.017,0.004
		c-2.938-2.972-6.491-5.329-10.45-6.875l-0.005-0.023L40.364,1.84c-0.474-0.175-0.953-0.333-1.435-0.483
		c-0.041-0.013-0.084-0.024-0.125-0.036c-0.391-0.119-0.783-0.232-1.177-0.335c-0.198-0.052-0.399-0.098-0.599-0.146
		c-0.235-0.056-0.469-0.113-0.705-0.163c-0.28-0.061-0.563-0.114-0.846-0.166c-0.154-0.028-0.307-0.057-0.461-0.083
		c-0.334-0.057-0.67-0.107-1.008-0.152c-0.096-0.013-0.193-0.025-0.289-0.037c-0.379-0.047-0.76-0.088-1.143-0.121
		c-0.039-0.003-0.078-0.006-0.117-0.009C31.647,0.043,30.828,0,30,0c-1.848,0-3.654,0.177-5.41,0.498
		c-0.034,0.006-0.068,0.012-0.102,0.018c-0.382,0.071-0.761,0.15-1.138,0.236c-0.094,0.021-0.187,0.043-0.281,0.065
		c-0.331,0.079-0.661,0.162-0.988,0.251c-0.15,0.041-0.299,0.084-0.448,0.128c-0.278,0.081-0.555,0.163-0.83,0.252
		c-0.206,0.066-0.411,0.138-0.616,0.209c-0.225,0.078-0.45,0.155-0.672,0.238c-0.054,0.02-0.11,0.037-0.164,0.058l-0.53,0.201
		l-0.003,0.016c-3.835,1.546-7.281,3.858-10.143,6.753L8.66,8.919L8.276,9.322c-0.095,0.1-0.181,0.207-0.275,0.308
		c-0.226,0.243-0.445,0.492-0.662,0.743c-0.183,0.211-0.368,0.42-0.544,0.636c-0.315,0.384-0.62,0.777-0.916,1.177
		c-0.142,0.192-0.278,0.389-0.416,0.584c-0.213,0.303-0.421,0.61-0.624,0.921c-0.118,0.182-0.237,0.363-0.351,0.547
		c-0.302,0.487-0.594,0.98-0.869,1.485c-0.018,0.033-0.034,0.067-0.052,0.1c-0.269,0.499-0.52,1.008-0.761,1.524
		c-0.061,0.13-0.119,0.261-0.177,0.391c-0.211,0.469-0.41,0.943-0.597,1.424C2,19.249,1.964,19.335,1.932,19.422
		c-0.443,1.172-0.812,2.379-1.107,3.616c-0.008,0.033-0.019,0.065-0.027,0.099l-0.217,0.927l0.011,0.003C0.205,25.985,0,27.969,0,30
		c0,9.778,4.704,18.476,11.965,23.956l0.002,0.017l0.357,0.262c0.133,0.097,0.274,0.18,0.409,0.275
		c0.379,0.268,0.764,0.527,1.156,0.777c0.21,0.134,0.418,0.272,0.631,0.4c0.482,0.292,0.975,0.566,1.474,0.831
		c0.249,0.132,0.499,0.26,0.751,0.385c0.469,0.232,0.945,0.454,1.427,0.662c0.285,0.123,0.572,0.236,0.86,0.349
		c0.388,0.153,0.779,0.298,1.174,0.435c0.255,0.088,0.509,0.179,0.766,0.26c0.564,0.178,1.136,0.339,1.714,0.485
		c0.23,0.058,0.461,0.108,0.693,0.16c0.505,0.114,1.015,0.216,1.529,0.304c0.157,0.027,0.312,0.06,0.469,0.084
		c0.654,0.102,1.317,0.176,1.984,0.234c0.177,0.015,0.354,0.028,0.532,0.041C28.592,59.967,29.292,60,30,60s1.408-0.033,2.104-0.082
		c0.178-0.012,0.355-0.025,0.532-0.041c0.667-0.059,1.33-0.133,1.984-0.234c0.157-0.024,0.313-0.057,0.469-0.084
		c0.514-0.088,1.024-0.19,1.529-0.304c0.231-0.052,0.463-0.103,0.693-0.16c0.578-0.145,1.15-0.306,1.714-0.485
		c0.257-0.081,0.511-0.172,0.766-0.26c0.395-0.137,0.786-0.282,1.174-0.435c0.288-0.113,0.576-0.226,0.86-0.349
		c0.483-0.208,0.958-0.43,1.427-0.662c0.252-0.125,0.502-0.253,0.751-0.385c0.499-0.265,0.992-0.539,1.474-0.831
		c0.213-0.129,0.421-0.266,0.631-0.4c0.392-0.25,0.777-0.509,1.156-0.777c0.135-0.095,0.276-0.177,0.409-0.275l0.357-0.262
		l0.002-0.017C55.296,48.476,60,39.778,60,30z M50.231,32.552C50.741,33.647,51,34.807,51,36c0,0.321-0.02,0.64-0.058,0.956
		c-0.008,0.071-0.026,0.14-0.036,0.21c-0.036,0.244-0.076,0.488-0.133,0.727c-0.019,0.08-0.046,0.158-0.068,0.237
		c-0.061,0.225-0.127,0.449-0.207,0.669c-0.031,0.086-0.069,0.169-0.103,0.254c-0.083,0.207-0.171,0.413-0.271,0.614
		c-0.045,0.09-0.095,0.178-0.143,0.267c-0.103,0.189-0.211,0.376-0.328,0.558c-0.058,0.091-0.12,0.18-0.181,0.269
		c-0.121,0.174-0.249,0.345-0.384,0.512c-0.069,0.086-0.139,0.171-0.211,0.254c-0.145,0.167-0.297,0.328-0.455,0.485
		c-0.073,0.073-0.144,0.147-0.22,0.218c-0.181,0.17-0.373,0.332-0.57,0.489c-0.085,0.068-0.165,0.141-0.253,0.207l-0.032,0.025
		C45.618,44.23,43.407,45,41,45c-5.514,0-10-4.037-10-9v-4c0-0.553-0.448-1-1-1s-1,0.447-1,1v4c0,4.963-4.486,9-10,9
		c-2.407,0-4.618-0.77-6.346-2.05l-0.032-0.025c-0.088-0.065-0.168-0.139-0.253-0.207c-0.197-0.158-0.389-0.32-0.57-0.489
		c-0.076-0.071-0.147-0.145-0.22-0.218c-0.158-0.158-0.311-0.319-0.455-0.485c-0.072-0.083-0.142-0.168-0.211-0.254
		c-0.135-0.167-0.263-0.338-0.384-0.512c-0.062-0.089-0.123-0.178-0.181-0.269c-0.117-0.182-0.225-0.369-0.328-0.558
		c-0.048-0.089-0.098-0.176-0.143-0.267c-0.1-0.201-0.188-0.406-0.271-0.614c-0.034-0.085-0.072-0.168-0.103-0.254
		c-0.08-0.22-0.146-0.444-0.207-0.669c-0.022-0.08-0.049-0.157-0.068-0.237c-0.057-0.24-0.098-0.483-0.133-0.727
		c-0.01-0.07-0.027-0.139-0.036-0.21C9.02,36.64,9,36.321,9,36c0-1.193,0.259-2.353,0.769-3.448c1.184-2.541,0.55-5.491-1.542-7.173
		c-1.351-1.088-3.115-1.991-5.252-2.691c0.009-0.034,0.02-0.068,0.029-0.102c0.125-0.455,0.262-0.907,0.41-1.354
		c0.034-0.103,0.069-0.206,0.105-0.309c0.137-0.4,0.284-0.795,0.439-1.188c0.043-0.109,0.084-0.218,0.129-0.326
		c0.173-0.422,0.356-0.839,0.549-1.251c0.029-0.063,0.056-0.127,0.086-0.189c0.222-0.467,0.459-0.926,0.707-1.38
		c0.068-0.123,0.141-0.243,0.21-0.365c0.177-0.313,0.359-0.623,0.548-0.929c0.115-0.185,0.234-0.368,0.353-0.551
		c0.153-0.235,0.31-0.469,0.471-0.699c0.14-0.201,0.28-0.4,0.425-0.597c0.151-0.206,0.309-0.408,0.466-0.611
		c0.157-0.202,0.311-0.405,0.474-0.602c0.178-0.217,0.366-0.427,0.551-0.639c0.143-0.163,0.283-0.328,0.43-0.489l4.217,0.877
		c1.486,0.311,3.04-0.033,4.259-0.942c1.218-0.909,1.99-2.3,2.104-3.723l0.656-3.688c0.043-0.016,0.087-0.029,0.131-0.044
		c0.697-0.245,1.402-0.466,2.115-0.654c0.01-0.003,0.02-0.006,0.03-0.009C23.605,2.73,24.35,2.57,25.1,2.438
		c0.044-0.008,0.088-0.016,0.133-0.024c0.758-0.13,1.52-0.231,2.285-0.298c0.003,0,0.006,0,0.009-0.001
		c1.539-0.135,3.088-0.141,4.627-0.024c0.058,0.004,0.115,0.008,0.173,0.013c0.736,0.06,1.469,0.149,2.198,0.267
		c0.068,0.011,0.135,0.025,0.202,0.036c0.679,0.115,1.354,0.256,2.023,0.42c0.07,0.017,0.141,0.031,0.21,0.049
		c0.635,0.162,1.262,0.356,1.885,0.564c0.11,0.037,0.22,0.074,0.33,0.112l0.887,3.754c0.146,1.484,0.911,2.843,2.108,3.736
		c1.219,0.909,2.772,1.252,4.258,0.943l4.218-0.878c0.146,0.16,0.287,0.325,0.43,0.489c0.185,0.212,0.372,0.422,0.551,0.639
		c0.162,0.197,0.317,0.401,0.474,0.602c0.157,0.202,0.315,0.405,0.466,0.611c0.145,0.197,0.285,0.396,0.425,0.597
		c0.16,0.231,0.317,0.464,0.471,0.699c0.119,0.182,0.238,0.365,0.353,0.551c0.189,0.306,0.371,0.616,0.548,0.929
		c0.069,0.122,0.143,0.242,0.21,0.365c0.248,0.453,0.484,0.913,0.707,1.38c0.03,0.062,0.056,0.126,0.085,0.188
		c0.193,0.413,0.377,0.831,0.55,1.253c0.044,0.107,0.085,0.216,0.128,0.324c0.155,0.393,0.302,0.789,0.44,1.189
		c0.035,0.103,0.07,0.206,0.105,0.309c0.148,0.448,0.285,0.899,0.41,1.354c0.009,0.034,0.02,0.068,0.029,0.102
		c-2.137,0.7-3.901,1.603-5.251,2.691C49.682,27.061,49.047,30.011,50.231,32.552z M45.857,53.06
		c-0.45,0.311-0.906,0.611-1.37,0.893c-0.197,0.12-0.401,0.231-0.601,0.346c-0.333,0.191-0.67,0.375-1.01,0.552
		c-0.227,0.118-0.452,0.238-0.682,0.35c-0.469,0.228-0.943,0.441-1.423,0.641c-0.248,0.104-0.5,0.2-0.751,0.297
		c-0.345,0.132-0.692,0.257-1.042,0.376c-0.246,0.083-0.491,0.17-0.74,0.246c-0.498,0.153-1.002,0.29-1.509,0.416
		c-0.225,0.056-0.452,0.107-0.68,0.157c-0.485,0.107-0.973,0.203-1.464,0.284c-0.124,0.021-0.246,0.045-0.37,0.064
		c-0.592,0.089-1.189,0.155-1.789,0.206c-0.17,0.015-0.341,0.027-0.511,0.039C31.279,57.97,30.642,58,30,58s-1.279-0.03-1.914-0.073
		c-0.171-0.012-0.341-0.024-0.511-0.039c-0.6-0.051-1.197-0.117-1.789-0.206c-0.124-0.019-0.246-0.044-0.37-0.064
		c-0.491-0.081-0.979-0.177-1.464-0.284c-0.227-0.05-0.454-0.102-0.68-0.157c-0.507-0.125-1.01-0.262-1.509-0.416
		c-0.249-0.077-0.494-0.163-0.74-0.246c-0.35-0.119-0.697-0.243-1.042-0.376c-0.252-0.097-0.504-0.193-0.752-0.297
		c-0.479-0.2-0.954-0.413-1.422-0.641c-0.23-0.112-0.456-0.232-0.682-0.35c-0.34-0.177-0.676-0.361-1.01-0.552
		c-0.201-0.115-0.404-0.226-0.601-0.346c-0.464-0.282-0.92-0.582-1.37-0.893c-0.095-0.066-0.188-0.134-0.283-0.201
		c-0.24-2.256-0.498-4.772-0.756-7.289C14.847,46.476,16.856,47,19,47c4.917,0,9.148-2.728,11-6.617C31.852,44.272,36.083,47,41,47
		c2.144,0,4.153-0.524,5.897-1.431c-0.258,2.517-0.517,5.033-0.756,7.289C46.046,52.926,45.953,52.994,45.857,53.06z M48.956,9.416
		l-2.937,0.612c-0.927,0.19-1.895-0.021-2.654-0.588s-1.24-1.434-1.319-2.378l-0.611-2.61C44.21,5.698,46.748,7.38,48.956,9.416z
		 M18.403,4.525l-0.449,2.537c-0.079,0.944-0.559,1.812-1.319,2.378c-0.759,0.566-1.726,0.78-2.655,0.587l-2.936-0.611
		C13.21,7.419,15.691,5.764,18.403,4.525z M2,30c0-1.827,0.181-3.611,0.517-5.341c1.821,0.614,3.33,1.372,4.456,2.278
		c1.373,1.104,1.777,3.065,0.983,4.771C7.322,33.068,7,34.513,7,36c0,0.386,0.023,0.768,0.066,1.144
		c0.011,0.094,0.033,0.185,0.046,0.278c0.04,0.282,0.082,0.563,0.145,0.838c0.028,0.122,0.069,0.24,0.101,0.36
		c0.065,0.241,0.128,0.482,0.21,0.716c0.05,0.143,0.113,0.281,0.169,0.422c0.081,0.204,0.16,0.409,0.254,0.608
		c0.074,0.156,0.16,0.307,0.242,0.46c0.093,0.174,0.185,0.35,0.288,0.519c0.097,0.159,0.205,0.313,0.31,0.468
		c0.106,0.155,0.211,0.311,0.325,0.461c0.115,0.151,0.238,0.297,0.361,0.443c0.124,0.146,0.248,0.292,0.38,0.432
		c0.127,0.135,0.258,0.266,0.393,0.396c0.148,0.143,0.299,0.283,0.455,0.419c0.07,0.061,0.131,0.127,0.202,0.186l0.103,1.001
		c0.208,2.03,0.417,4.066,0.618,5.987C5.752,46,2,38.432,2,30z M48.332,51.137c0.201-1.921,0.41-3.957,0.618-5.987l0.103-1.001
		c0.071-0.059,0.133-0.126,0.202-0.186c0.156-0.136,0.307-0.276,0.455-0.419c0.134-0.13,0.266-0.261,0.393-0.396
		c0.132-0.141,0.256-0.286,0.38-0.432c0.123-0.146,0.246-0.292,0.361-0.443c0.114-0.15,0.219-0.305,0.325-0.461
		c0.106-0.155,0.213-0.308,0.31-0.468c0.103-0.169,0.194-0.344,0.288-0.519c0.082-0.153,0.168-0.304,0.242-0.46
		c0.094-0.198,0.173-0.404,0.254-0.608c0.056-0.141,0.119-0.279,0.169-0.422c0.082-0.234,0.145-0.475,0.21-0.716
		c0.032-0.121,0.073-0.239,0.101-0.36c0.063-0.275,0.105-0.556,0.145-0.838c0.013-0.093,0.036-0.184,0.046-0.278
		C52.977,36.768,53,36.386,53,36c0-1.487-0.322-2.932-0.956-4.292c-0.794-1.705-0.39-3.667,0.983-4.771
		c1.126-0.906,2.635-1.664,4.456-2.278C57.819,26.389,58,28.173,58,30C58,38.432,54.248,46,48.332,51.137z"/>
	<path d="M18.942,12.021c-0.551,0.032-0.972,0.505-0.94,1.056c0.033,0.553,0.503,0.974,1.057,0.94
		c2.215-0.128,3.972,0.447,5.235,1.709c0.195,0.195,0.451,0.293,0.707,0.293s0.512-0.098,0.707-0.293
		c0.391-0.391,0.391-1.023,0-1.414C24.023,12.629,21.747,11.851,18.942,12.021z"/>
	<path d="M40.942,14.018c0.562,0.03,1.024-0.388,1.057-0.94c0.032-0.551-0.389-1.023-0.94-1.056
		c-2.958-0.172-5.687,0.685-7.293,2.291c-0.391,0.391-0.391,1.023,0,1.414c0.195,0.195,0.451,0.293,0.707,0.293
		s0.512-0.098,0.707-0.293C36.388,14.518,38.541,13.879,40.942,14.018z"/>
	<path d="M14,28c0-5.809-3.568-6.916-3.72-6.96c-0.522-0.154-1.063,0.145-1.225,0.665c-0.163,0.52,0.13,1.077,0.647,1.25
		C9.796,22.986,12,23.77,12,28c0,0.553,0.448,1,1,1S14,28.553,14,28z"/>
	<path d="M49.72,21.04C49.568,21.084,46,22.191,46,28c0,0.553,0.448,1,1,1s1-0.447,1-1c0-4.199,2.171-5.002,2.295-5.045
		c0.521-0.16,0.818-0.71,0.665-1.235C50.806,21.189,50.25,20.887,49.72,21.04z"/>
	<path d="M18,33c-2.757,0-5,2.243-5,5s2.243,5,5,5s5-2.243,5-5S20.757,33,18,33z M18,41c-1.654,0-3-1.346-3-3s1.346-3,3-3
		s3,1.346,3,3S19.654,41,18,41z"/>
	<path d="M42,33c-2.757,0-5,2.243-5,5s2.243,5,5,5s5-2.243,5-5S44.757,33,42,33z M42,41c-1.654,0-3-1.346-3-3s1.346-3,3-3
		s3,1.346,3,3S43.654,41,42,41z"/>
</g>
<g>
</g>
<g>
</g>
<g>
</g>
<g>
</g>
<g>
</g>
<g>
</g>
<g>
</g>
<g>
</g>
<g>
</g>
<g>
</g>
<g>
</g>
<g>
</g>
<g>
</g>
<g>
</g>
<g>
</g>
</svg>
