<?xml version="1.0" encoding="iso-8859-1"?>
<!-- Generator: Adobe Illustrator 18.0.0, SVG Export Plug-In . SVG Version: 6.00 Build 0)  -->
<!DOCTYPE svg PUBLIC "-//W3C//DTD SVG 1.1//EN" "http://www.w3.org/Graphics/SVG/1.1/DTD/svg11.dtd">
<svg version="1.1" id="Capa_1" xmlns="http://www.w3.org/2000/svg" xmlns:xlink="http://www.w3.org/1999/xlink" x="0px" y="0px"
	 viewBox="0 0 60 60" style="enable-background:new 0 0 60 60;" xml:space="preserve">
<g>
	<path d="M35,30H25v7h-7v10h7v7h10v-7h7V37h-7V30z M40,39v6h-7v7h-6v-7h-7v-6h7v-7h6v7H40z"/>
	<path d="M43.646,11C42.25,4.674,36.538,0,30,0S17.75,4.674,16.354,11H0v13v2v34h60V26v-2V11H43.646z M30,2
		c5.455,0,10.25,3.795,11.603,9H18.397C19.75,5.795,24.545,2,30,2z M58,58H2V26h6v4h10v-4h24v4h10v-4h6V58z M16,24h-6v-2h6V24z
		 M16,26v2h-6v-2H16z M50,24h-6v-2h6V24z M50,26v2h-6v-2H50z M52,24v-4H42v4H18v-4H8v4H2V13h14.003h27.994H58v11H52z"/>
</g>
<g>
</g>
<g>
</g>
<g>
</g>
<g>
</g>
<g>
</g>
<g>
</g>
<g>
</g>
<g>
</g>
<g>
</g>
<g>
</g>
<g>
</g>
<g>
</g>
<g>
</g>
<g>
</g>
<g>
</g>
</svg>
