<?xml version="1.0" encoding="iso-8859-1"?>
<!-- Generator: Adobe Illustrator 18.0.0, SVG Export Plug-In . SVG Version: 6.00 Build 0)  -->
<!DOCTYPE svg PUBLIC "-//W3C//DTD SVG 1.1//EN" "http://www.w3.org/Graphics/SVG/1.1/DTD/svg11.dtd">
<svg version="1.1" id="Capa_1" xmlns="http://www.w3.org/2000/svg" xmlns:xlink="http://www.w3.org/1999/xlink" x="0px" y="0px"
	 viewBox="0 0 59.47 59.47" style="enable-background:new 0 0 59.47 59.47;" xml:space="preserve">
<g>
	<path d="M47.025,19.624l-0.005-0.009l-4.14-3.396c-0.086-0.085-0.179-0.157-0.266-0.24c-0.385-0.371-0.775-0.735-1.185-1.071
		c-0.108-0.088-0.223-0.161-0.332-0.247c-0.405-0.317-0.814-0.628-1.239-0.91c-0.04-0.026-0.083-0.048-0.123-0.074
		c-3.107-2.026-6.732-3.122-10.529-3.122c-0.554,0-1.103,0.034-1.649,0.08c-0.068,0.006-0.135,0.003-0.203,0.01
		c-0.487,0.046-0.966,0.125-1.445,0.206c-0.136,0.023-0.273,0.034-0.408,0.06c-0.477,0.092-0.943,0.215-1.409,0.341
		c-0.136,0.037-0.273,0.062-0.408,0.102c-0.45,0.133-0.888,0.296-1.325,0.461c-0.149,0.056-0.302,0.1-0.45,0.16
		c-0.409,0.166-0.806,0.361-1.202,0.555c-0.17,0.083-0.345,0.154-0.513,0.242c-0.369,0.195-0.724,0.417-1.08,0.636
		c-0.185,0.113-0.376,0.213-0.558,0.334c-0.343,0.227-0.669,0.482-0.998,0.732c-0.181,0.138-0.37,0.261-0.547,0.406
		c-0.4,0.327-0.781,0.683-1.156,1.044c-0.09,0.087-0.188,0.161-0.277,0.25l-5.024,4.41l0,0L0,29.846l11.222,9.693l0.003,0.006
		l4.305,3.716c1.414,1.414,2.994,2.563,4.678,3.446c2.807,1.473,5.902,2.209,8.997,2.209h0h0c3.702,0,7.404-1.053,10.612-3.16
		c1.069-0.702,2.084-1.521,3.025-2.458L59.47,29.846L47.025,19.624z M56.305,29.834l-7.982,6.458
		c0.786-2.196,1.199-4.514,1.199-6.867c0-1.993-0.301-3.977-0.872-5.881L56.305,29.834z M9.145,24.479
		c-0.409,1.615-0.622,3.267-0.622,4.946c0,2.002,0.312,3.998,0.9,5.919l-6.377-5.51L9.145,24.479z M41.466,41.847
		c-6.761,6.76-17.762,6.761-24.575-0.05L12.8,38.262c-1.49-2.725-2.277-5.776-2.277-8.837c0-2.625,0.561-5.187,1.667-7.617
		l2.581-2.267l2.174-1.908c0.09-0.09,0.188-0.166,0.279-0.253c0.333-0.319,0.668-0.634,1.02-0.921
		c0.107-0.088,0.223-0.161,0.332-0.246c0.354-0.275,0.709-0.548,1.078-0.792c0.039-0.026,0.08-0.046,0.119-0.072
		c6.211-4.028,14.457-3.675,20.366,1.097c0.024,0.02,0.051,0.036,0.075,0.056c0.361,0.295,0.706,0.619,1.048,0.947
		c0.09,0.086,0.187,0.162,0.276,0.25l3.903,3.208c1.362,2.62,2.081,5.561,2.081,8.519c0,3.465-0.977,6.851-2.828,9.803l-3.15,2.549
		L41.466,41.847z"/>
	<path d="M36.523,28.554h-1.08c-0.028-0.192-0.061-0.382-0.104-0.568l1.004-0.389c0.515-0.199,0.771-0.778,0.572-1.294
		s-0.778-0.771-1.293-0.571l-1.006,0.389c-0.148-0.262-0.316-0.512-0.495-0.752l0.766-0.766c0.391-0.391,0.391-1.023,0-1.414
		s-1.023-0.391-1.414,0l-0.766,0.766c-0.154-0.115-0.311-0.224-0.474-0.327l0.437-0.989c0.223-0.505-0.005-1.096-0.51-1.319
		c-0.504-0.222-1.096,0.005-1.319,0.511l-0.436,0.987c-0.287-0.08-0.581-0.141-0.881-0.184v-1.08c0-0.553-0.448-1-1-1s-1,0.447-1,1
		v1.08c-0.192,0.028-0.381,0.061-0.568,0.104l-0.389-1.005c-0.201-0.517-0.782-0.771-1.294-0.571
		c-0.515,0.2-0.771,0.779-0.571,1.294l0.39,1.005c-0.262,0.148-0.511,0.315-0.751,0.495l-0.766-0.766
		c-0.391-0.391-1.023-0.391-1.414,0s-0.391,1.023,0,1.414l0.766,0.766c-0.115,0.154-0.224,0.312-0.327,0.475l-0.989-0.437
		c-0.504-0.221-1.096,0.007-1.319,0.512c-0.223,0.505,0.006,1.096,0.511,1.318l0.986,0.435c-0.08,0.287-0.141,0.581-0.184,0.881
		h-1.08c-0.552,0-1,0.447-1,1s0.448,1,1,1h1.08c0.028,0.192,0.061,0.382,0.104,0.568l-1.004,0.389
		c-0.515,0.199-0.771,0.778-0.572,1.294c0.153,0.396,0.532,0.639,0.933,0.639c0.12,0,0.242-0.021,0.361-0.067l1.006-0.389
		c0.148,0.262,0.316,0.512,0.495,0.752l-0.766,0.766c-0.391,0.391-0.391,1.023,0,1.414c0.195,0.195,0.451,0.293,0.707,0.293
		s0.512-0.098,0.707-0.293l0.766-0.766c0.154,0.115,0.311,0.224,0.474,0.327l-0.437,0.989c-0.223,0.505,0.005,1.096,0.51,1.319
		c0.131,0.058,0.269,0.085,0.404,0.085c0.384,0,0.75-0.222,0.915-0.596l0.436-0.987c0.287,0.08,0.581,0.141,0.881,0.184v1.08
		c0,0.553,0.448,1,1,1s1-0.447,1-1v-1.08c0.192-0.028,0.381-0.061,0.568-0.104l0.389,1.005c0.154,0.396,0.532,0.639,0.933,0.639
		c0.121,0,0.243-0.021,0.361-0.067c0.515-0.2,0.771-0.779,0.571-1.294l-0.39-1.005c0.262-0.148,0.511-0.316,0.751-0.495l0.766,0.766
		c0.195,0.195,0.451,0.293,0.707,0.293s0.512-0.098,0.707-0.293c0.391-0.391,0.391-1.023,0-1.414l-0.766-0.766
		c0.115-0.154,0.225-0.312,0.327-0.475l0.989,0.437c0.131,0.058,0.269,0.085,0.403,0.085c0.384,0,0.75-0.223,0.916-0.597
		c0.223-0.505-0.006-1.096-0.511-1.318l-0.986-0.435c0.08-0.287,0.141-0.581,0.184-0.881h1.08c0.552,0,1-0.447,1-1
		S37.075,28.554,36.523,28.554z M28.523,34.554c-2.757,0-5-2.243-5-5s2.243-5,5-5s5,2.243,5,5S31.28,34.554,28.523,34.554z"/>
	<path d="M23.523,17.551c0.102,0,0.205-0.016,0.307-0.048c1.187-0.383,2.429-0.577,3.692-0.577c0.552,0,1-0.447,1-1s-0.448-1-1-1
		c-1.472,0-2.921,0.227-4.307,0.673c-0.525,0.17-0.814,0.733-0.645,1.259C22.708,17.281,23.101,17.551,23.523,17.551z"/>
	<path d="M20.209,18.915c0.101,0.034,0.208,0.051,0.314,0.051c0.185,0,0.371-0.051,0.538-0.157c0.876-0.561,0.446-1.361,0.427-1.396
		c-0.065-0.118-0.387-0.619-1.081-0.48c-0.117,0.013-0.234,0.048-0.346,0.105c-0.019,0.01-0.037,0.021-0.055,0.031h-0.001
		c-0.45,0.271-0.712,0.885-0.479,1.354C19.658,18.688,19.919,18.855,20.209,18.915z"/>
	<path d="M17.416,19.233c-2.511,2.618-3.893,6.061-3.893,9.693c0,0.553,0.448,1,1,1s1-0.447,1-1c0-3.114,1.185-6.065,3.336-8.309
		c0.382-0.398,0.369-1.032-0.029-1.414C18.432,18.823,17.798,18.835,17.416,19.233z"/>
</g>
<g>
</g>
<g>
</g>
<g>
</g>
<g>
</g>
<g>
</g>
<g>
</g>
<g>
</g>
<g>
</g>
<g>
</g>
<g>
</g>
<g>
</g>
<g>
</g>
<g>
</g>
<g>
</g>
<g>
</g>
</svg>
