<?xml version="1.0" encoding="utf-8"?>
<!-- Generator: Adobe Illustrator 16.0.0, SVG Export Plug-In . SVG Version: 6.00 Build 0)  -->
<!DOCTYPE svg PUBLIC "-//W3C//DTD SVG 1.1//EN" "http://www.w3.org/Graphics/SVG/1.1/DTD/svg11.dtd">
<svg version="1.1" id="Layer_1" xmlns="http://www.w3.org/2000/svg" xmlns:xlink="http://www.w3.org/1999/xlink" x="0px" y="0px"
	 width="72px" height="72px" viewBox="0 0 72 72" enable-background="new 0 0 72 72" xml:space="preserve">
<g>
	<path d="M36.118,15.934c-2.454,0-4.763,0.956-6.498,2.691c-3.582,3.582-3.582,9.41,0,12.992c1.737,1.735,4.045,2.691,6.5,2.691
		c2.453,0,4.762-0.956,6.496-2.691c3.582-3.582,3.582-9.41,0-12.992C40.882,16.89,38.573,15.934,36.118,15.934z M39.788,28.789
		c-0.979,0.98-2.283,1.52-3.668,1.52c-1.386,0-2.69-0.541-3.671-1.52c-2.022-2.023-2.022-5.314,0-7.336
		c0.981-0.981,2.284-1.52,3.669-1.52c1.387,0,2.69,0.539,3.67,1.52C41.809,23.476,41.809,26.767,39.788,28.789z"/>
	<path d="M50.32,21.823c-0.07-0.301-0.117-0.52-0.154-0.688c-0.076-0.355-0.123-0.57-0.248-0.861
		c-0.218-0.507-0.809-0.736-1.314-0.523c-0.504,0.218-0.74,0.806-0.522,1.314c0.047,0.107,0.065,0.183,0.131,0.49
		c0.037,0.179,0.088,0.411,0.162,0.729c0.11,0.461,0.521,0.771,0.974,0.771c0.075,0,0.153-0.009,0.229-0.028
		C50.115,22.899,50.447,22.36,50.32,21.823z"/>
	<path d="M48.382,17.217c-2.386-3.761-6.282-6.263-10.69-6.865c-0.551-0.073-1.051,0.308-1.127,0.856
		c-0.076,0.547,0.308,1.051,0.856,1.126c3.822,0.52,7.201,2.691,9.271,5.955c0.19,0.3,0.515,0.464,0.847,0.464
		c0.185,0,0.366-0.05,0.535-0.155C48.538,18.302,48.677,17.684,48.382,17.217z"/>
	<path d="M36.001,3.262c-11.841,0-21.474,9.633-21.474,21.473c0,7.726,11.138,32.257,14.13,38.154c2.582,5.09,5.77,5.85,7.442,5.85
		c2.896,0,5.533-2.08,7.428-5.858c2.838-5.659,13.947-30.505,13.947-38.145C57.475,12.895,47.841,3.262,36.001,3.262z
		 M39.951,61.088c-1.145,2.285-2.586,3.65-3.852,3.65c-1.284,0-2.695-1.334-3.875-3.66c-3.975-7.834-13.697-30.272-13.697-36.342
		c0-9.635,7.839-17.473,17.474-17.473c9.636,0,17.474,7.838,17.474,17.473C53.475,30.898,43.428,54.158,39.951,61.088z"/>
</g>
</svg>
