<?xml version="1.0" encoding="iso-8859-1"?>
<!-- Generator: Adobe Illustrator 18.0.0, SVG Export Plug-In . SVG Version: 6.00 Build 0)  -->
<!DOCTYPE svg PUBLIC "-//W3C//DTD SVG 1.1//EN" "http://www.w3.org/Graphics/SVG/1.1/DTD/svg11.dtd">
<svg version="1.1" id="Capa_1" xmlns="http://www.w3.org/2000/svg" xmlns:xlink="http://www.w3.org/1999/xlink" x="0px" y="0px"
	 viewBox="0 0 59.998 59.998" style="enable-background:new 0 0 59.998 59.998;" xml:space="preserve">
<g>
	<circle cx="48.001" cy="42.499" r="1"/>
	<circle cx="52.001" cy="40.499" r="1"/>
	<circle cx="41.001" cy="45.499" r="1"/>
	<circle cx="46.001" cy="44.412" r="1"/>
	<circle cx="50.001" cy="44.412" r="1"/>
	<circle cx="38.001" cy="48.412" r="1"/>
	<circle cx="42.001" cy="48.412" r="1"/>
	<circle cx="44.001" cy="46.412" r="1"/>
	<circle cx="46.001" cy="48.412" r="1"/>
	<circle cx="50.001" cy="48.412" r="1"/>
	<circle cx="40.001" cy="50.412" r="1"/>
	<circle cx="42.001" cy="52.412" r="1"/>
	<circle cx="48.001" cy="50.412" r="1"/>
	<circle cx="46.001" cy="52.412" r="1"/>
	<circle cx="50.001" cy="52.412" r="1"/>
	<circle cx="52.001" cy="46.412" r="1"/>
	<circle cx="54.001" cy="48.412" r="1"/>
	<circle cx="54.001" cy="52.412" r="1"/>
	<circle cx="56.001" cy="50.412" r="1"/>
	<path d="M59.13,49.933c-3.954-7.817-4.88-14.927-5.697-21.199c-0.373-2.867-0.726-5.576-1.333-8.133
		c-1.467-6.181-4.786-9.937-9.864-11.16c-2.351-0.568-4.819-0.099-6.778,1.284c-0.544,0.384-1.027,0.832-1.456,1.322V6.499v-4h-8v4
		v5.547c-0.429-0.49-0.912-0.938-1.456-1.322c-1.958-1.383-4.428-1.853-6.778-1.284c-5.077,1.224-8.396,4.979-9.864,11.16
		c-0.616,2.593-0.972,5.458-1.349,8.492c-0.821,6.609-1.753,14.101-5.682,21.868c-1.004,1.984-1.14,3.502-0.414,4.64
		c1.008,1.581,3.368,1.898,6.312,1.898c0.951,0,1.963-0.033,3.01-0.067l0.625-0.021c10.911-0.346,16.985-3.87,18.571-10.775
		c0.697-3.035,0.152-7.095-0.374-11.02c-0.309-2.302-0.601-4.475-0.601-6.204c0-1.099,0.894-1.992,2.009-1.992
		c1.098,0,1.991,0.894,1.991,1.992c0,1.729-0.292,3.902-0.601,6.204c-0.526,3.925-1.071,7.984-0.374,11.02
		c1.582,6.886,7.656,10.401,18.571,10.747c4.028,0.133,8.351-0.063,9.863-2.44C60.275,53.663,60.164,51.978,59.13,49.933z
		 M32.001,10.499h-4v-2h4V10.499z M32.001,12.499v2h-4v-2H32.001z M29.616,18.374c-0.069-0.014-0.133-0.038-0.199-0.059
		c-0.053-0.016-0.108-0.028-0.159-0.048c-0.087-0.035-0.168-0.081-0.249-0.128c-0.025-0.014-0.052-0.025-0.077-0.04
		c-0.086-0.055-0.165-0.119-0.241-0.186c-0.016-0.014-0.033-0.025-0.049-0.039c-0.067-0.063-0.127-0.134-0.186-0.206
		c-0.021-0.025-0.045-0.048-0.064-0.074c-0.039-0.052-0.069-0.11-0.103-0.166c-0.034-0.057-0.072-0.112-0.1-0.172
		c-0.009-0.018-0.014-0.038-0.022-0.056c-0.043-0.099-0.081-0.201-0.107-0.307c-0.001-0.003-0.002-0.006-0.003-0.01
		c-0.021-0.088-0.029-0.18-0.039-0.271c-0.004-0.038-0.01-0.075-0.012-0.114h3.987c-0.001,0.039-0.008,0.076-0.012,0.114
		c-0.009,0.092-0.017,0.184-0.039,0.271c-0.001,0.003-0.002,0.006-0.003,0.01c-0.027,0.108-0.065,0.211-0.109,0.311
		c-0.008,0.017-0.012,0.035-0.02,0.051c-0.029,0.063-0.068,0.12-0.104,0.178c-0.033,0.053-0.062,0.11-0.099,0.159
		c-0.021,0.028-0.047,0.053-0.069,0.08c-0.057,0.07-0.115,0.139-0.181,0.2c-0.017,0.016-0.036,0.028-0.053,0.042
		c-0.075,0.066-0.153,0.129-0.237,0.182c-0.025,0.016-0.054,0.027-0.08,0.042c-0.08,0.046-0.16,0.091-0.246,0.126
		c-0.051,0.02-0.106,0.032-0.159,0.048c-0.066,0.021-0.13,0.045-0.199,0.059c-0.125,0.024-0.253,0.038-0.384,0.038
		S29.741,18.399,29.616,18.374z M28.001,4.499h4v2h-4V4.499z M57.774,53.868c-0.172,0.271-0.455,0.49-0.8,0.676
		c0.006-0.045,0.027-0.086,0.027-0.132c0-0.552-0.448-1-1-1s-1,0.448-1,1c0,0.269,0.109,0.51,0.282,0.69
		c-1.03,0.204-2.205,0.283-3.256,0.304c0.54-0.015,0.974-0.452,0.974-0.995c0-0.552-0.448-1-1-1s-1,0.448-1,1
		c0,0.544,0.436,0.983,0.977,0.995c-0.952,0.018-1.796-0.007-2.318-0.022c-0.431-0.014-0.841-0.039-1.254-0.062
		c0.349-0.156,0.595-0.504,0.595-0.911c0-0.552-0.448-1-1-1s-1,0.448-1,1c0,0.371,0.211,0.681,0.51,0.854
		c-0.948-0.072-1.849-0.171-2.701-0.298c0.111-0.161,0.191-0.345,0.191-0.555c0-0.552-0.448-1-1-1s-1,0.448-1,1
		c0,0.087,0.029,0.164,0.049,0.245c-1.693-0.36-3.157-0.858-4.423-1.483c0.223-0.183,0.374-0.45,0.374-0.762c0-0.552-0.448-1-1-1
		c-0.496,0-0.889,0.367-0.968,0.841c-0.38-0.263-0.727-0.548-1.057-0.846c0.009,0,0.016,0.005,0.024,0.005c0.552,0,1-0.448,1-1
		c0-0.552-0.448-1-1-1c-0.545,0-0.984,0.437-0.996,0.98c-0.271-0.328-0.523-0.67-0.747-1.032c0.424-0.116,0.743-0.487,0.743-0.948
		c0-0.552-0.448-1-1-1c-0.223,0-0.418,0.087-0.585,0.21c-0.172-0.459-0.326-0.932-0.441-1.434
		c-0.616-2.682-0.096-6.558,0.407-10.307c0.318-2.369,0.618-4.607,0.618-6.47c0-2.201-1.79-3.992-4.008-3.992
		c-2.201,0-3.992,1.791-3.992,3.992c0,1.862,0.3,4.101,0.618,6.47c0.503,3.749,1.023,7.625,0.407,10.307
		c-0.293,1.275-0.79,2.407-1.47,3.414c-0.161-0.111-0.345-0.191-0.556-0.191c-0.552,0-1,0.448-1,1c0,0.274,0.111,0.522,0.29,0.702
		c-0.199,0.193-0.402,0.385-0.621,0.565c-0.178-0.162-0.409-0.267-0.669-0.267c-0.552,0-1,0.448-1,1
		c0,0.128,0.029,0.249,0.073,0.362c-1.162,0.67-2.52,1.211-4.075,1.627c-0.007-0.547-0.449-0.988-0.998-0.988c-0.552,0-1,0.448-1,1
		c0,0.148,0.037,0.286,0.095,0.413c-0.79,0.147-1.617,0.271-2.493,0.365c0.236-0.183,0.398-0.456,0.398-0.778c0-0.552-0.448-1-1-1
		s-1,0.448-1,1c0,0.384,0.224,0.707,0.541,0.874c-0.71,0.057-1.437,0.103-2.2,0.127l-0.628,0.02
		c-3.208,0.105-6.848,0.225-7.57-0.907c-0.2-0.315-0.166-0.858,0.056-1.547c0.181,0.256,0.465,0.434,0.802,0.434
		c0.552,0,1-0.448,1-1c0-0.552-0.448-1-1-1c-0.049,0-0.092,0.021-0.139,0.028c0.68-1.379,1.277-2.746,1.792-4.098
		c0.109,0.041,0.224,0.07,0.347,0.07c0.552,0,1-0.448,1-1c0-0.44-0.289-0.803-0.684-0.936C7.24,39.744,7.921,34.299,8.538,29.34
		c0.37-2.979,0.72-5.791,1.31-8.276c1.299-5.466,4.042-8.632,8.388-9.68c0.513-0.123,1.026-0.185,1.534-0.185
		c1.289,0,2.538,0.395,3.622,1.159c1.472,1.04,2.422,2.644,2.606,4.399c0.013,0.127,0.049,0.245,0.073,0.367
		c0.012,0.069,0.025,0.136,0.04,0.203c0.036,0.145,0.081,0.284,0.131,0.421c0.045,0.127,0.091,0.251,0.148,0.371
		c0.039,0.081,0.083,0.157,0.127,0.234c0.083,0.149,0.17,0.295,0.271,0.432c0.036,0.048,0.076,0.091,0.113,0.137
		c0.12,0.148,0.244,0.29,0.383,0.419c0.035,0.032,0.073,0.059,0.109,0.09c0.15,0.129,0.303,0.252,0.471,0.358
		c0.04,0.025,0.083,0.044,0.124,0.067c0.17,0.099,0.343,0.194,0.529,0.267c0.056,0.022,0.117,0.034,0.174,0.054
		c0.176,0.061,0.352,0.121,0.538,0.156c0.14,0.027,0.287,0.031,0.432,0.044c0.106,0.009,0.208,0.032,0.316,0.032h0.043
		c0.108,0,0.21-0.023,0.316-0.032c0.145-0.012,0.292-0.016,0.432-0.044c0.186-0.036,0.363-0.096,0.539-0.157
		c0.057-0.02,0.117-0.031,0.173-0.054c0.185-0.074,0.358-0.168,0.529-0.267c0.041-0.024,0.084-0.042,0.124-0.067
		c0.168-0.106,0.322-0.229,0.471-0.358c0.036-0.031,0.075-0.058,0.109-0.09c0.139-0.129,0.264-0.271,0.383-0.419
		c0.037-0.046,0.077-0.089,0.113-0.137c0.101-0.137,0.188-0.282,0.272-0.432c0.044-0.077,0.088-0.153,0.127-0.234
		c0.057-0.121,0.103-0.245,0.148-0.372c0.05-0.137,0.095-0.276,0.131-0.421c0.016-0.067,0.028-0.135,0.04-0.204
		c0.024-0.123,0.06-0.24,0.073-0.367c0.185-1.756,1.135-3.359,2.606-4.399c1.511-1.066,3.342-1.409,5.156-0.975
		c4.347,1.049,7.09,4.215,8.388,9.68c0.583,2.455,0.929,5.113,1.296,7.929c0.576,4.425,1.205,9.257,2.88,14.486
		c-0.104-0.037-0.212-0.066-0.329-0.066c-0.552,0-1,0.448-1,1c0,0.552,0.448,1,1,1c0.352,0,0.646-0.192,0.824-0.466
		c0.11,0.311,0.23,0.625,0.348,0.939c-0.099,0.155-0.172,0.329-0.172,0.528c0,0.466,0.325,0.839,0.756,0.951
		c0.472,1.141,0.993,2.297,1.588,3.472C58.038,52.206,58.183,53.227,57.774,53.868z"/>
	<circle cx="15.001" cy="44.412" r="1"/>
	<circle cx="11.001" cy="44.412" r="1"/>
	<circle cx="23.001" cy="48.412" r="1"/>
	<circle cx="13.001" cy="41.499" r="1"/>
	<circle cx="19.001" cy="48.412" r="1"/>
	<circle cx="9.001" cy="40.499" r="1"/>
	<circle cx="15.001" cy="48.412" r="1"/>
	<circle cx="11.001" cy="48.412" r="1"/>
	<circle cx="21.001" cy="50.412" r="1"/>
	<circle cx="19.001" cy="52.412" r="1"/>
	<circle cx="13.001" cy="50.412" r="1"/>
	<circle cx="15.001" cy="52.412" r="1"/>
	<circle cx="11.001" cy="52.412" r="1"/>
	<circle cx="7.001" cy="44.412" r="1"/>
	<circle cx="9.001" cy="46.412" r="1"/>
	<circle cx="7.001" cy="48.412" r="1"/>
	<circle cx="7.001" cy="52.412" r="1"/>
	<circle cx="9.001" cy="54.412" r="1"/>
	<circle cx="5.001" cy="54.412" r="1"/>
	<circle cx="5.001" cy="50.412" r="1"/>
</g>
<g>
</g>
<g>
</g>
<g>
</g>
<g>
</g>
<g>
</g>
<g>
</g>
<g>
</g>
<g>
</g>
<g>
</g>
<g>
</g>
<g>
</g>
<g>
</g>
<g>
</g>
<g>
</g>
<g>
</g>
</svg>
