<?xml version="1.0" encoding="utf-8"?>
<!-- Generator: Adobe Illustrator 16.0.0, SVG Export Plug-In . SVG Version: 6.00 Build 0)  -->
<!DOCTYPE svg PUBLIC "-//W3C//DTD SVG 1.1//EN" "http://www.w3.org/Graphics/SVG/1.1/DTD/svg11.dtd">
<svg version="1.1" id="Layer_1" xmlns="http://www.w3.org/2000/svg" xmlns:xlink="http://www.w3.org/1999/xlink" x="0px" y="0px"
	 width="72px" height="72px" viewBox="0 0 72 72" enable-background="new 0 0 72 72" xml:space="preserve">
<g>
	<g>
		<path d="M36,23.5c-4.688,0-8.5-3.813-8.5-8.5s3.813-8.5,8.5-8.5c4.687,0,8.5,3.813,8.5,8.5S40.687,23.5,36,23.5z M36,10.5
			c-2.481,0-4.5,2.019-4.5,4.5s2.019,4.5,4.5,4.5s4.5-2.019,4.5-4.5S38.481,10.5,36,10.5z"/>
	</g>
	<g>
		<path d="M36,44.5c-4.688,0-8.5-3.813-8.5-8.5s3.813-8.5,8.5-8.5c4.687,0,8.5,3.813,8.5,8.5S40.687,44.5,36,44.5z M36,31.5
			c-2.481,0-4.5,2.019-4.5,4.5s2.019,4.5,4.5,4.5s4.5-2.019,4.5-4.5S38.481,31.5,36,31.5z"/>
	</g>
	<g>
		<path d="M36,65.5c-4.688,0-8.5-3.813-8.5-8.5s3.813-8.5,8.5-8.5c4.687,0,8.5,3.813,8.5,8.5S40.687,65.5,36,65.5z M36,52.5
			c-2.481,0-4.5,2.019-4.5,4.5s2.019,4.5,4.5,4.5s4.5-2.019,4.5-4.5S38.481,52.5,36,52.5z"/>
	</g>
</g>
</svg>
