<?xml version="1.0" encoding="utf-8"?>
<!-- Generator: Adobe Illustrator 16.0.0, SVG Export Plug-In . SVG Version: 6.00 Build 0)  -->
<!DOCTYPE svg PUBLIC "-//W3C//DTD SVG 1.1//EN" "http://www.w3.org/Graphics/SVG/1.1/DTD/svg11.dtd">
<svg version="1.1" id="Layer_1" xmlns="http://www.w3.org/2000/svg" xmlns:xlink="http://www.w3.org/1999/xlink" x="0px" y="0px"
	 width="72px" height="72px" viewBox="0 0 72 72" enable-background="new 0 0 72 72" xml:space="preserve">
<g>
	<path d="M51.568,4H20.432C16.604,4,13.5,7.104,13.5,10.932v50.136c0,3.828,3.104,6.933,6.932,6.933h31.136
		c3.828,0,6.932-3.104,6.932-6.933h0.001V10.932C58.501,7.104,55.396,4,51.568,4z M17.5,15h37.001v38H17.5V15z M20.432,8h31.136
		c1.619,0,2.932,1.313,2.932,2.932h0.001V13H17.5v-2.068C17.5,9.313,18.813,8,20.432,8z M51.568,64.001H20.432
		c-1.619,0-2.932-1.313-2.932-2.933V55h37.001v6.068C54.501,62.688,53.188,64.001,51.568,64.001z"/>
	<path d="M36.75,57h-0.5c-0.966,0-1.75,0.783-1.75,1.75v0.5c0,0.967,0.784,1.75,1.75,1.75h0.5c0.966,0,1.75-0.783,1.75-1.75v-0.5
		C38.5,57.783,37.716,57,36.75,57z"/>
	<path d="M41.123,30.053c-0.523-0.187-1.091,0.09-1.275,0.611l-0.271,0.772c-0.183,0.521,0.091,1.092,0.612,1.275
		c0.108,0.039,0.222,0.057,0.33,0.057c0.414,0,0.799-0.257,0.943-0.668l0.271-0.772C41.918,30.807,41.645,30.236,41.123,30.053z"/>
	<path d="M39.875,33.607c-0.521-0.187-1.092,0.091-1.275,0.612l-2.835,8.076c-0.183,0.52,0.091,1.092,0.612,1.273
		c0.109,0.039,0.222,0.057,0.331,0.057c0.413,0,0.799-0.255,0.943-0.668l2.836-8.076C40.67,34.361,40.396,33.79,39.875,33.607z"/>
	<path d="M37.131,22.33c-0.521-0.186-1.092,0.09-1.274,0.612l-4.146,11.812c-0.183,0.52,0.091,1.091,0.612,1.273
		c0.109,0.039,0.222,0.057,0.331,0.057c0.413,0,0.8-0.255,0.943-0.668l4.146-11.812C37.926,23.084,37.652,22.513,37.131,22.33z"/>
	<path d="M31.648,37.947c-0.522-0.186-1.091,0.091-1.274,0.611l-0.61,1.734c-0.183,0.521,0.091,1.094,0.612,1.275
		c0.109,0.039,0.222,0.057,0.331,0.057c0.413,0,0.799-0.255,0.943-0.668l0.61-1.734C32.443,38.702,32.169,38.13,31.648,37.947z"/>
</g>
</svg>
