<?xml version="1.0" encoding="iso-8859-1"?>
<!-- Generator: Adobe Illustrator 18.0.0, SVG Export Plug-In . SVG Version: 6.00 Build 0)  -->
<!DOCTYPE svg PUBLIC "-//W3C//DTD SVG 1.1//EN" "http://www.w3.org/Graphics/SVG/1.1/DTD/svg11.dtd">
<svg version="1.1" id="Capa_1" xmlns="http://www.w3.org/2000/svg" xmlns:xlink="http://www.w3.org/1999/xlink" x="0px" y="0px"
	 viewBox="0 0 58.069 58.069" style="enable-background:new 0 0 58.069 58.069;" xml:space="preserve">
<g>
	<path d="M50.911,29.229c-0.07-0.303-0.178-0.587-0.302-0.86c-0.027-0.06-0.054-0.119-0.083-0.177
		c-0.132-0.26-0.282-0.506-0.459-0.731c-0.026-0.034-0.057-0.063-0.084-0.095c-0.165-0.198-0.347-0.378-0.544-0.542
		c-0.045-0.038-0.087-0.078-0.134-0.114c-0.223-0.171-0.462-0.32-0.717-0.445c-0.021-0.011-0.039-0.027-0.06-0.038l0.272-0.769
		c2.218-8.442,1.434-14.965-2.33-19.385c-5.78-6.788-16.429-6.107-17.637-6.007c-1.206-0.1-11.857-0.78-17.637,6.007
		c-3.764,4.42-4.547,10.942-2.321,19.419l0.284,0.943c-0.007,0.004-0.013,0.011-0.02,0.015c-0.525,0.32-0.972,0.745-1.319,1.257
		c-0.008,0.012-0.015,0.024-0.023,0.036c-0.294,0.443-0.522,0.939-0.649,1.487c-0.016,0.071-0.022,0.142-0.035,0.213
		c-0.004,0.019-0.012,0.036-0.016,0.055c-0.007,0.04-0.007,0.08-0.013,0.12c-0.017,0.12-0.032,0.24-0.04,0.359
		c-0.005,0.08-0.007,0.16-0.008,0.24c-0.001,0.105-0.002,0.209,0.004,0.313c0.005,0.101,0.017,0.2,0.029,0.3
		c0.01,0.081,0.019,0.162,0.033,0.242c0.022,0.124,0.053,0.245,0.085,0.366c0.015,0.055,0.027,0.11,0.044,0.165
		c0.044,0.142,0.099,0.28,0.157,0.417c0.014,0.033,0.026,0.068,0.041,0.101c0.069,0.149,0.148,0.293,0.234,0.434
		c0.013,0.021,0.023,0.042,0.035,0.063c0.093,0.147,0.196,0.288,0.308,0.424c0.011,0.013,0.019,0.027,0.03,0.04
		c0.124,0.148,0.257,0.29,0.403,0.423c-0.007,0.118-0.013,0.25-0.015,0.394c-0.016,1.004,0.139,2.556,1.071,3.723
		c0.164,0.205,0.349,0.386,0.547,0.55c0.064,0.053,0.137,0.092,0.204,0.141c0.142,0.102,0.286,0.2,0.443,0.282
		c0.089,0.046,0.184,0.081,0.277,0.12c0.149,0.064,0.3,0.124,0.461,0.17c0.107,0.031,0.219,0.054,0.331,0.077
		c0.091,0.019,0.176,0.05,0.271,0.063v5.506l0.006,0.112c0.035,0.31,0.989,7.639,12.167,12.449c1.512,0.65,3.112,0.976,4.691,0.976
		c1.587,0,3.153-0.328,4.59-0.985c11.097-5.071,11.532-12.207,11.546-12.552v-5.424c0.023-0.001,0.044-0.003,0.067-0.004l0.54-0.035
		c1.225-0.082,2.237-0.582,2.927-1.445c1.065-1.334,1.115-3.171,1.056-4.117C50.789,32.431,51.281,30.828,50.911,29.229z
		 M43.032,44.481c-0.015,0.253-0.479,6.26-10.379,10.784c-2.352,1.075-5.144,1.073-7.659-0.01
		c-9.705-4.176-10.868-10.167-10.963-10.791v-5.289c2.508,0.191,3,0.496,3,2.894v2.09c0,0.185,0.035,0.359,0.083,0.528
		c-0.135,0.325-0.097,0.698,0.117,0.982l3,4c0.012,0.016,0.033,0.023,0.046,0.039c0.066,0.078,0.145,0.139,0.232,0.194
		c0.035,0.022,0.064,0.051,0.101,0.068c0.129,0.06,0.269,0.099,0.42,0.099h16c0.151,0,0.291-0.039,0.42-0.099
		c0.038-0.017,0.066-0.046,0.101-0.068c0.087-0.055,0.166-0.116,0.232-0.194c0.013-0.016,0.034-0.022,0.046-0.039l3-4
		c0.213-0.284,0.252-0.657,0.117-0.982c0.049-0.169,0.083-0.344,0.083-0.528v-2.09c0-2.039,0.354-2.565,2-2.794L43.032,44.481z
		 M36.03,48.07h-2v-2h2V48.07z M32.03,48.07h-2v-2h2V48.07z M28.03,48.07h-2v-2h2V48.07z M24.03,48.07h-2v-2h2V48.07z
		 M47.978,32.265l-0.485,0.361l0.091,0.597c0.086,0.567,0.15,2.241-0.585,3.155c-0.339,0.423-0.828,0.649-1.493,0.693l-0.535,0.035
		c-0.307,0.02-0.606,0.04-0.9,0.062c-0.037,0.003-0.079,0.005-0.116,0.008l-0.924,0.07v0.026c-2.344,0.304-4,1.156-4,4.797v2h-1v-3
		c0-0.553-0.448-1-1-1s-1,0.447-1,1v3h-2v-3c0-0.553-0.448-1-1-1s-1,0.447-1,1v3h-2v-3c0-0.553-0.448-1-1-1s-1,0.447-1,1v3h-2v-3
		c0-0.553-0.448-1-1-1s-1,0.447-1,1v3h-2v-3c0-0.553-0.448-1-1-1s-1,0.447-1,1v3h-1v-2c0-4.139-2.141-4.676-5-4.897v-0.003
		l-0.27-0.018c-0.22-0.016-0.443-0.03-0.67-0.045l-0.535-0.035c-0.666-0.044-1.154-0.271-1.493-0.693
		c-0.735-0.914-0.671-2.588-0.585-3.152l-0.027-0.68l-0.475-0.362c-0.166-0.126-0.305-0.273-0.429-0.43
		c-0.02-0.025-0.041-0.049-0.059-0.075c-0.111-0.152-0.201-0.316-0.271-0.489c-0.014-0.034-0.026-0.068-0.038-0.103
		c-0.061-0.171-0.104-0.348-0.125-0.531c-0.004-0.034-0.005-0.068-0.008-0.102c-0.014-0.197-0.01-0.399,0.024-0.603
		c0.002-0.01,0.003-0.02,0.005-0.029C9.1,29.676,9.153,29.544,9.2,29.409c0.034-0.097,0.064-0.195,0.108-0.285
		c0.06-0.121,0.135-0.229,0.212-0.337c0.049-0.068,0.094-0.137,0.149-0.199c0.093-0.103,0.198-0.192,0.308-0.277
		c0.061-0.047,0.12-0.095,0.186-0.136c0.118-0.074,0.247-0.132,0.38-0.184c0.132-0.052,0.26-0.113,0.405-0.142
		c1.837-0.365,3.08-1.021,3.694-1.952c0.375-0.567,0.508-1.229,0.389-1.922V21.07c0-0.553-0.448-1-1-1s-1,0.447-1,1v3l0.021,0.206
		c0.056,0.267-0.009,0.413-0.08,0.521c-0.125,0.19-0.562,0.636-1.922,0.979l-0.249-0.826c-2.04-7.769-1.396-13.681,1.913-17.573
		C18.03,1.12,28.63,2.055,28.738,2.065l0.097,0.01l0.095-0.01c0.107-0.009,10.708-0.942,16.024,5.312
		c3.309,3.893,3.953,9.805,1.939,17.49l-0.285,0.795c-1.042-0.323-1.407-0.696-1.519-0.866c-0.071-0.107-0.136-0.254-0.08-0.521
		l0.021-3.206c0-0.553-0.448-1-1-1s-1,0.447-1,1v2.906c-0.119,0.692,0.015,1.354,0.389,1.922c0.476,0.72,1.332,1.274,2.545,1.658
		l-0.012,0.037l1.164,0.258c0.103,0.021,0.191,0.069,0.289,0.102c0.122,0.041,0.252,0.07,0.363,0.129
		c0.141,0.075,0.261,0.179,0.382,0.28c0.05,0.041,0.11,0.069,0.156,0.115c0.125,0.124,0.224,0.274,0.32,0.426
		c0.026,0.041,0.062,0.072,0.085,0.114c0.111,0.202,0.195,0.424,0.251,0.664c0.175,0.755,0.036,1.81-0.876,2.504L47.978,32.265z"/>
	<path d="M27.074,21.165c-0.508-2.88-5.459-3.152-6.447-3.178h-0.026c-0.982,0-2.786,0.482-3.312,2.288
		c-0.345,1.182-0.149,3.202,0.892,4.776c0.759,1.148,1.826,1.834,3.086,1.984c0.187,0.022,0.374,0.033,0.56,0.033
		c1.389,0,2.75-0.61,3.801-1.724C26.781,24.127,27.321,22.565,27.074,21.165z M24.175,23.972c-0.753,0.798-1.728,1.195-2.672,1.078
		c-0.667-0.079-1.223-0.449-1.654-1.101c-0.701-1.061-0.822-2.489-0.64-3.114c0.229-0.783,1.26-0.843,1.389-0.848
		c1.749,0.05,4.346,0.617,4.506,1.525C25.238,22.269,24.873,23.234,24.175,23.972z"/>
	<path d="M37.561,17.988h-0.026c-0.987,0.025-5.938,0.298-6.447,3.178c-0.247,1.399,0.293,2.962,1.446,4.181
		c1.052,1.113,2.412,1.724,3.801,1.724c0.186,0,0.373-0.011,0.56-0.033c1.26-0.15,2.327-0.836,3.086-1.984
		c1.041-1.574,1.237-3.595,0.892-4.775C40.347,18.47,38.544,17.988,37.561,17.988z M38.313,23.949
		c-0.431,0.651-0.987,1.021-1.654,1.101c-0.942,0.113-1.917-0.28-2.672-1.078c-0.698-0.738-1.063-1.703-0.929-2.459
		c0.159-0.903,2.757-1.474,4.507-1.525c0.131,0.005,1.16,0.065,1.388,0.849C39.135,21.46,39.014,22.889,38.313,23.949z"/>
	<path d="M30.263,30.47c-0.031-0.074-0.071-0.21-0.111-0.335c-0.024-0.077-0.054-0.17-0.092-0.269l-0.004-0.654l-0.679-0.104
		c-0.094-0.029-0.197-0.044-0.316-0.041c-0.129,0.002-0.243,0.015-0.342,0.05l-0.658,0.117v0.635
		c-0.038,0.099-0.067,0.19-0.091,0.267c-0.04,0.125-0.081,0.261-0.079,0.271l-2.403,4.206c-0.418,0.731-0.556,1.553-0.388,2.313
		c0.248,1.12,1.054,1.785,2.157,1.785c0.011,0,0.021,0,0.031,0c0.607-0.006,1.182-0.212,1.664-0.596
		c0.054-0.043,0.163-0.043,0.216,0c0.482,0.384,1.057,0.59,1.663,0.596c1.1-0.003,1.939-0.654,2.189-1.784
		c0.169-0.76,0.031-1.581-0.387-2.313L30.263,30.47z M31.068,36.493c-0.029,0.132-0.068,0.191-0.077,0.199
		c-0.001,0.001-0.027,0.024-0.139,0.018c-0.159-0.002-0.307-0.056-0.438-0.16c-0.783-0.624-1.922-0.625-2.707,0
		c-0.132,0.104-0.279,0.158-0.44,0.16c-0.097,0-0.134-0.017-0.135-0.016c-0.011-0.011-0.05-0.069-0.079-0.201
		c-0.06-0.271,0.002-0.594,0.171-0.889l1.836-3.214l1.837,3.214C31.066,35.9,31.129,36.223,31.068,36.493z"/>
	<path d="M14.559,12.919c0.469-0.292,0.612-0.909,0.321-1.378c-0.292-0.47-0.908-0.611-1.377-0.321
		c-1.594,0.991-2.472,2.358-2.472,3.85s0.878,2.858,2.472,3.85c0.165,0.102,0.347,0.15,0.527,0.15c0.334,0,0.661-0.167,0.85-0.472
		c0.292-0.469,0.148-1.086-0.321-1.378c-0.985-0.612-1.528-1.376-1.528-2.15S13.573,13.531,14.559,12.919z"/>
	<path d="M43.502,17.22c-0.469,0.292-0.612,0.909-0.321,1.378c0.189,0.305,0.516,0.472,0.85,0.472c0.18,0,0.363-0.049,0.527-0.15
		c1.594-0.991,2.472-2.358,2.472-3.85s-0.878-2.858-2.472-3.85c-0.471-0.29-1.086-0.148-1.377,0.321
		c-0.292,0.469-0.148,1.086,0.321,1.378c0.985,0.612,1.528,1.376,1.528,2.15S44.487,16.608,43.502,17.22z"/>
</g>
<g>
</g>
<g>
</g>
<g>
</g>
<g>
</g>
<g>
</g>
<g>
</g>
<g>
</g>
<g>
</g>
<g>
</g>
<g>
</g>
<g>
</g>
<g>
</g>
<g>
</g>
<g>
</g>
<g>
</g>
</svg>
