<?xml version="1.0" encoding="iso-8859-1"?>
<!-- Generator: Adobe Illustrator 18.0.0, SVG Export Plug-In . SVG Version: 6.00 Build 0)  -->
<!DOCTYPE svg PUBLIC "-//W3C//DTD SVG 1.1//EN" "http://www.w3.org/Graphics/SVG/1.1/DTD/svg11.dtd">
<svg version="1.1" id="Capa_1" xmlns="http://www.w3.org/2000/svg" xmlns:xlink="http://www.w3.org/1999/xlink" x="0px" y="0px"
	 viewBox="0 0 59.012 59.012" style="enable-background:new 0 0 59.012 59.012;" xml:space="preserve">
<g>
	<path d="M51.525,11.703c-4.477-4.292-8.948-6.181-13.288-5.613c-5.291,0.692-8.703,4.823-9.821,6.389
		c-4.969-1.171-5.979-5.404-6.023-5.601c-0.118-0.538-0.649-0.886-1.187-0.764c-0.54,0.115-0.884,0.647-0.768,1.188
		c0.053,0.248,1.383,6.092,8.265,7.275l0.669,0.113l0.354-0.577c0.033-0.054,3.328-5.337,8.785-6.042
		c3.705-0.481,7.618,1.229,11.63,5.075c8.048,7.717,7.906,17.639,5.09,24.352c-3.531,8.417-11.379,13.718-20.035,13.427
		l-0.086-0.002l-0.083,0.012c-0.072,0.012-7.372,0.952-15.847-4.118l-0.757-0.439l-0.545,0.684c-0.028,0.035-0.702,0.864-1.91,0.932
		c-1.22,0.084-2.674-0.688-4.177-2.19c-0.997-0.997-2.39-1.293-3.639-0.779C7.204,45.416,5,46.883,5,52.016c0,0.553,0.448,1,1,1
		s1-0.447,1-1c0-3.208,0.99-4.761,1.917-5.145c0.5-0.21,1.032-0.081,1.459,0.345c1.963,1.964,3.889,2.891,5.758,2.771
		c1.222-0.083,2.126-0.617,2.681-1.067c6.254,3.557,11.766,4.102,14.561,4.102c0.963,0,1.604-0.065,1.84-0.094
		c9.423,0.212,18.016-5.495,21.859-14.655C60.997,28.926,58.87,18.745,51.525,11.703z"/>
	<path d="M6.405,40.086c4.593-2.734,11.466,0.93,11.534,0.968l0.712,0.386l0.525-0.615c2.925-3.422,7.405-2.01,7.59-1.951
		l1.161,0.388l0.148-1.215c0.337-2.762,4.233-4.252,4.273-4.267L33,33.535v-6.814l-0.557-0.275
		c-2.776-1.373-2.942-5.018-2.944-5.051l-0.025-0.806l-0.792-0.147C16.981,18.272,15.299,10.09,15.233,9.742
		c-0.101-0.54-0.616-0.906-1.162-0.801c-0.543,0.099-0.904,0.619-0.805,1.162c0.072,0.395,1.87,9.518,14.317,12.158
		c0.207,1.366,0.927,4.123,3.417,5.667v4.256c-1.222,0.577-3.792,2.049-4.657,4.534c-1.755-0.322-5.339-0.532-8.149,2.229
		c-2.054-0.96-8.141-3.356-12.806-0.585C1.813,40.487,0,45.081,0,52.016c0,0.553,0.448,1,1,1s1-0.447,1-1
		C2,45.84,3.482,41.826,6.405,40.086z"/>
</g>
<g>
</g>
<g>
</g>
<g>
</g>
<g>
</g>
<g>
</g>
<g>
</g>
<g>
</g>
<g>
</g>
<g>
</g>
<g>
</g>
<g>
</g>
<g>
</g>
<g>
</g>
<g>
</g>
<g>
</g>
</svg>
