<?xml version="1.0" encoding="utf-8"?>
<!-- Generator: Adobe Illustrator 16.0.0, SVG Export Plug-In . SVG Version: 6.00 Build 0)  -->
<!DOCTYPE svg PUBLIC "-//W3C//DTD SVG 1.1//EN" "http://www.w3.org/Graphics/SVG/1.1/DTD/svg11.dtd">
<svg version="1.1" id="Layer_1" xmlns="http://www.w3.org/2000/svg" xmlns:xlink="http://www.w3.org/1999/xlink" x="0px" y="0px"
	 width="72px" height="72px" viewBox="0 0 72 72" enable-background="new 0 0 72 72" xml:space="preserve">
<g>
	<path d="M30.918,19.207c-2.609,0.708-5.041,2.058-7.032,3.906c-0.405,0.376-0.429,1.009-0.053,1.414
		c0.197,0.212,0.464,0.319,0.733,0.319c0.244,0,0.488-0.088,0.681-0.266c1.755-1.629,3.897-2.819,6.195-3.443
		c0.533-0.145,0.848-0.694,0.703-1.227C32,19.378,31.452,19.059,30.918,19.207z"/>
	<path d="M21.86,27.073c-0.485-0.265-1.092-0.08-1.354,0.405c-0.403,0.748-0.752,1.533-1.036,2.333
		c-0.186,0.52,0.086,1.091,0.607,1.277c0.11,0.039,0.224,0.058,0.335,0.058c0.411,0,0.797-0.255,0.942-0.665
		c0.25-0.704,0.557-1.396,0.912-2.054C22.528,27.941,22.346,27.335,21.86,27.073z"/>
	<path d="M66.5,34.5h-5.69c-0.471-12.217-9.923-22.167-21.929-23.413V5.5c0-1.104-0.896-2-2-2c-1.104,0-2,0.896-2,2v5.501
		C22.361,11.737,12.342,21.914,11.857,34.5H5.5c-1.104,0-2,0.896-2,2c0,1.104,0.896,2,2,2h6.529
		c1.446,11.604,11.034,20.713,22.852,21.407V66.5c0,1.104,0.896,2,2,2c1.104,0,2-0.896,2-2v-6.679
		C50.193,58.647,59.236,49.743,60.638,38.5H66.5c1.104,0,2-0.896,2-2C68.5,35.396,67.604,34.5,66.5,34.5z M38.881,55.777V52.5
		c0-1.105-0.896-2-2-2c-1.104,0-2,0.895-2,2v3.38c-9.606-0.679-17.387-7.991-18.796-17.38H19.5c1.104,0,2-0.896,2-2
		c0-1.104-0.896-2-2-2h-3.619c0.48-10.375,8.689-18.746,19-19.473V19.5c0,1.104,0.896,2,2,2c1.104,0,2-0.896,2-2v-4.371
		c9.793,1.222,17.441,9.366,17.905,19.371H52.5c-1.104,0-2,0.896-2,2c0,1.104,0.896,2,2,2h4.082
		C55.228,47.529,47.98,54.642,38.881,55.777z"/>
</g>
</svg>
