<?xml version="1.0" encoding="utf-8"?>
<!-- Generator: Adobe Illustrator 16.0.0, SVG Export Plug-In . SVG Version: 6.00 Build 0)  -->
<!DOCTYPE svg PUBLIC "-//W3C//DTD SVG 1.1//EN" "http://www.w3.org/Graphics/SVG/1.1/DTD/svg11.dtd">
<svg version="1.1" id="Layer_1" xmlns="http://www.w3.org/2000/svg" xmlns:xlink="http://www.w3.org/1999/xlink" x="0px" y="0px"
	 width="72px" height="72px" viewBox="0 0 72 72" enable-background="new 0 0 72 72" xml:space="preserve">
<g>
	<path d="M45.531,38.322V12.5c0-5.238-4.262-9.5-9.5-9.5c-5.238,0-9.5,4.262-9.5,9.5v25.73c-3,2.719-7.342,7.607-7.342,13.936
		C19.189,61.449,26.763,69,36.093,69c9.21,0,16.72-7.55,16.72-16.833C52.813,46.1,50.531,41.23,45.531,38.322z M36.097,65
		c-7.124,0-12.917-5.757-12.917-12.833c0-5.246,3.458-9.31,6.412-11.196c0.575-0.369,0.938-1.005,0.938-1.687v-3.7h3.969
		c0.553,0,1-0.447,1-1s-0.447-1-1-1H30.53v-2h3.969c0.553,0,1-0.447,1-1s-0.447-1-1-1H30.53v-3h6.969c0.553,0,1-0.447,1-1
		s-0.447-1-1-1H30.53v-3h3.969c0.553,0,1-0.447,1-1s-0.447-1-1-1H30.53v-2h3.969c0.553,0,1-0.447,1-1s-0.447-1-1-1H30.53V12.5
		c0-3.032,2.468-5.5,5.5-5.5c3.033,0,5.5,2.468,5.501,5.5v26.986c0,0.746,0.4,1.43,1.063,1.773
		c5.141,2.674,6.203,7.406,6.203,10.906C48.797,59.242,43.102,65,36.097,65z"/>
	<path d="M46.027,54.896c-0.514-0.199-1.094,0.057-1.293,0.572c-1.354,3.508-4.791,5.865-8.554,5.865c-0.552,0-1,0.447-1,1
		s0.448,1,1,1c4.583,0,8.77-2.871,10.419-7.145C46.798,55.674,46.543,55.094,46.027,54.896z"/>
	<path d="M46.346,51.166c-0.552,0-1,0.447-1,1c0,0.258-0.01,0.512-0.029,0.762c-0.045,0.551,0.365,1.033,0.916,1.078
		c0.026,0.002,0.055,0.004,0.08,0.004c0.516,0,0.955-0.396,0.996-0.92c0.024-0.305,0.037-0.611,0.037-0.924
		C47.346,51.613,46.898,51.166,46.346,51.166z"/>
</g>
</svg>
