<?xml version="1.0" encoding="iso-8859-1"?>
<!-- Generator: Adobe Illustrator 18.0.0, SVG Export Plug-In . SVG Version: 6.00 Build 0)  -->
<!DOCTYPE svg PUBLIC "-//W3C//DTD SVG 1.1//EN" "http://www.w3.org/Graphics/SVG/1.1/DTD/svg11.dtd">
<svg version="1.1" id="Capa_1" xmlns="http://www.w3.org/2000/svg" xmlns:xlink="http://www.w3.org/1999/xlink" x="0px" y="0px"
	 viewBox="0 0 58.609 58.609" style="enable-background:new 0 0 58.609 58.609;" xml:space="preserve">
<g>
	<path d="M42.258,37.745c0.212-0.183,0.352-0.445,0.352-0.747c0-0.302-0.141-0.564-0.352-0.747c-0.112-0.339-0.293-0.651-0.552-0.91
		l-7.956-7.957c-0.456-0.456-1.052-0.712-1.721-0.68c-0.633,0.017-1.233,0.277-1.689,0.732l-2.902,2.901
		c-0.456,0.455-0.715,1.056-0.732,1.689c-0.017,0.654,0.224,1.265,0.68,1.72l7.957,7.957c0.454,0.453,1.052,0.679,1.656,0.679
		c0.63,0,1.266-0.244,1.753-0.731l2.902-2.901C41.94,38.465,42.138,38.118,42.258,37.745z M28.852,31.753l2.902-2.901
		c0.124-0.124,0.259-0.146,0.329-0.147c0.068,0.003,0.171,0.014,0.253,0.095l0.294,0.294c0.046,0.473,0.414,0.841,0.887,0.887
		l1.113,1.113c0.046,0.473,0.414,0.841,0.887,0.887l1.113,1.113c0.046,0.473,0.414,0.841,0.887,0.887l1.113,1.113
		c0.046,0.473,0.414,0.841,0.887,0.887l0.776,0.776c0.081,0.082,0.096,0.183,0.094,0.253c-0.002,0.069-0.023,0.204-0.147,0.328
		l-0.67,0.67c-0.518,0.022-0.929,0.433-0.951,0.951l-1.05,1.05c-0.286,0.012-0.533,0.144-0.708,0.348
		c-0.038-0.016-0.074-0.034-0.104-0.064l-0.526-0.526c0.227-0.183,0.38-0.452,0.38-0.766c0-0.552-0.448-1-1-1
		c-0.314,0-0.583,0.154-0.766,0.38l-0.614-0.614c0.227-0.183,0.38-0.452,0.38-0.766c0-0.552-0.448-1-1-1
		c-0.314,0-0.583,0.154-0.766,0.38l-0.614-0.614c0.227-0.183,0.38-0.452,0.38-0.766c0-0.552-0.448-1-1-1
		c-0.314,0-0.583,0.154-0.766,0.38l-0.614-0.614c0.227-0.183,0.38-0.452,0.38-0.766c0-0.552-0.448-1-1-1
		c-0.314,0-0.583,0.154-0.766,0.38l-0.045-0.045c-0.081-0.082-0.096-0.183-0.094-0.253C28.707,32.011,28.728,31.877,28.852,31.753z"
		/>
	<path d="M44.445,47.272l2.829-2.828c0.975-0.975,0.975-2.561,0-3.535c-0.942-0.943-2.595-0.942-3.536,0l-2.829,2.828
		c-0.975,0.975-0.975,2.561,0,3.535h0c0.471,0.472,1.099,0.731,1.768,0.731C43.347,48.004,43.974,47.744,44.445,47.272z
		 M42.324,45.858c-0.125-0.126-0.144-0.275-0.144-0.354s0.019-0.228,0.144-0.354l2.829-2.828c0.126-0.126,0.275-0.146,0.354-0.146
		c0.078,0,0.227,0.02,0.354,0.146c0.125,0.126,0.144,0.275,0.144,0.354s-0.019,0.228-0.144,0.354l-2.829,2.828
		c-0.126,0.126-0.275,0.146-0.354,0.146C42.599,46.004,42.45,45.984,42.324,45.858L42.324,45.858z"/>
	<path d="M57.376,45.354L27.121,15.099c-0.009-0.009-0.021-0.012-0.031-0.02c-0.077-0.071-0.164-0.129-0.261-0.173
		c-0.023-0.01-0.043-0.023-0.066-0.031c-0.015-0.006-0.027-0.015-0.043-0.02l-8.281-2.667c-0.454-0.146-0.937-0.178-1.413-0.11
		L5.974,1.023c-1.364-1.365-3.584-1.363-4.949,0c-1.365,1.364-1.365,3.586,0,4.95l11.053,11.053
		c-0.067,0.476-0.035,0.958,0.111,1.411l2.667,8.281c0.005,0.017,0.016,0.03,0.022,0.047c0.009,0.025,0.022,0.046,0.033,0.07
		c0.044,0.093,0.1,0.178,0.169,0.253c0.009,0.009,0.012,0.022,0.021,0.031l28.283,28.283c0,0,0,0.001,0.001,0.001l1.971,1.971
		c0.795,0.796,1.853,1.234,2.979,1.234s2.183-0.438,2.979-1.234l6.063-6.063C59.018,49.67,59.018,46.997,57.376,45.354z
		 M2.439,2.437c0.292-0.292,0.677-0.438,1.061-0.438c0.384,0,0.769,0.146,1.061,0.438l1.768,1.768L4.206,6.327L2.439,4.559
		C1.854,3.974,1.854,3.022,2.439,2.437z M12.979,15.099L5.621,7.741L7.742,5.62l7.358,7.359l-0.141,0.141
		c-0.001,0.001-0.003,0.002-0.004,0.003l-1.832,1.831c-0.001,0.001-0.002,0.003-0.004,0.004L12.979,15.099z M14.536,16.371
		l1.836-1.836c0.317-0.316,0.735-0.495,1.118-0.495c0.117,0,0.231,0.018,0.337,0.052l6.723,2.165l-8.292,8.292l-2.166-6.724
		C13.945,17.369,14.124,16.785,14.536,16.371z M26.414,17.22l26.87,26.87l-9.192,9.192l-26.87-26.87L26.414,17.22z M55.962,49.898
		l-6.063,6.063c-0.836,0.836-2.293,0.836-3.129,0l-1.264-1.264l9.192-9.192l1.264,1.264C56.825,47.632,56.825,49.035,55.962,49.898z
		"/>
	<circle cx="31.61" cy="30.998" r="1"/>
	<circle cx="33.61" cy="32.998" r="1"/>
	<circle cx="35.61" cy="34.998" r="1"/>
	<circle cx="37.61" cy="36.998" r="1"/>
</g>
<g>
</g>
<g>
</g>
<g>
</g>
<g>
</g>
<g>
</g>
<g>
</g>
<g>
</g>
<g>
</g>
<g>
</g>
<g>
</g>
<g>
</g>
<g>
</g>
<g>
</g>
<g>
</g>
<g>
</g>
</svg>
