<?xml version="1.0" encoding="utf-8"?>
<!-- Generator: Adobe Illustrator 16.0.0, SVG Export Plug-In . SVG Version: 6.00 Build 0)  -->
<!DOCTYPE svg PUBLIC "-//W3C//DTD SVG 1.1//EN" "http://www.w3.org/Graphics/SVG/1.1/DTD/svg11.dtd">
<svg version="1.1" id="Layer_1" xmlns="http://www.w3.org/2000/svg" xmlns:xlink="http://www.w3.org/1999/xlink" x="0px" y="0px"
	 width="72px" height="72px" viewBox="0 0 72 72" style="fill:#3399ff" enable-background="new 0 0 72 72" xml:space="preserve">
<g>
	<path d="M37.881,8.313V5.175c0-1.104-0.896-2-2-2c-1.104,0-2,0.896-2,2v3.156C18.165,9.423,5.709,22.548,5.709,38.537
		c0,16.699,13.589,30.288,30.291,30.288s30.291-13.589,30.291-30.288C66.291,22.468,53.71,9.288,37.881,8.313z M36,64.825
		c-14.497,0-26.291-11.794-26.291-26.288c0-14.496,11.794-26.289,26.291-26.289s26.291,11.793,26.291,26.289
		C62.291,53.031,50.497,64.825,36,64.825z"/>
	<path d="M25.733,56.689c-6.529-3.703-10.585-10.66-10.585-18.153c0-0.554-0.447-1-1-1c-0.553,0-1,0.446-1,1
		c0,8.212,4.445,15.835,11.599,19.894c0.155,0.088,0.325,0.129,0.492,0.129c0.349,0,0.687-0.182,0.871-0.506
		C26.382,57.572,26.213,56.96,25.733,56.689z"/>
	<path d="M31.187,59.432c-0.389-0.103-0.772-0.211-1.153-0.334c-0.53-0.168-1.089,0.125-1.257,0.649
		c-0.167,0.526,0.123,1.088,0.649,1.256c0.416,0.134,0.834,0.254,1.261,0.363c0.084,0.021,0.168,0.03,0.251,0.03
		c0.445,0,0.851-0.299,0.967-0.748C32.043,60.115,31.722,59.568,31.187,59.432z"/>
	<path d="M61.807,18.746c0.391,0.39,0.901,0.584,1.412,0.584c0.512,0,1.025-0.197,1.416-0.588c0.78-0.782,0.778-2.048-0.004-2.828
		l-5.193-5.18c-0.78-0.782-2.049-0.778-2.828,0.004c-0.779,0.782-0.777,2.048,0.004,2.828L61.807,18.746z"/>
	<path d="M37.88,38.164V22.175c0-1.104-0.896-2-2-2c-1.104,0-2,0.896-2,2v16.853c0,0.551,0.287,1.076,0.687,1.453l5.853,5.47
		c0.387,0.364,0.88,0.546,1.373,0.546c0.531,0,1.031-0.21,1.423-0.628c0.761-0.804,0.693-2.069-0.11-2.827L37.88,38.164z"/>
</g>
</svg>
