<?xml version="1.0" encoding="iso-8859-1"?>
<!-- Generator: Adobe Illustrator 18.0.0, SVG Export Plug-In . SVG Version: 6.00 Build 0)  -->
<!DOCTYPE svg PUBLIC "-//W3C//DTD SVG 1.1//EN" "http://www.w3.org/Graphics/SVG/1.1/DTD/svg11.dtd">
<svg version="1.1" id="Capa_1" xmlns="http://www.w3.org/2000/svg" xmlns:xlink="http://www.w3.org/1999/xlink" x="0px" y="0px"
	 viewBox="0 0 60 60" style="enable-background:new 0 0 60 60;" xml:space="preserve">
<g>
	<circle cx="44" cy="40" r="1"/>
	<circle cx="46" cy="57" r="1"/>
	<circle cx="21" cy="49" r="1"/>
	<circle cx="37" cy="43" r="1"/>
	<circle cx="52" cy="48" r="1"/>
	<circle cx="15" cy="57" r="1"/>
	<path d="M17.071,12.899C13.171,9,6.828,9.001,2.929,12.899C1.04,14.788,0,17.299,0,19.97c0,2.671,1.04,5.183,2.929,7.071
		l15.556,15.556l14.142-14.142L17.071,12.899z M4.343,25.627C2.832,24.116,2,22.107,2,19.97c0-2.137,0.832-4.146,2.343-5.657
		c1.56-1.56,3.608-2.339,5.657-2.339s4.097,0.78,5.657,2.339l14.143,14.143L18.485,39.77L4.343,25.627z"/>
	<path d="M57.071,3.929C55.182,2.04,52.671,1,50,1s-5.182,1.04-7.071,2.929L27.373,19.485l14.142,14.142l15.556-15.557
		C58.96,16.182,60,13.671,60,11S58.96,5.818,57.071,3.929z M55.657,16.657L41.515,30.799L30.201,19.485L44.343,5.343
		C45.854,3.832,47.863,3,50,3s4.146,0.832,5.657,2.343S58,8.863,58,11S57.168,15.146,55.657,16.657z"/>
	<path d="M40,36c0-2.206-1.794-4-4-4s-4,1.794-4,4s1.794,4,4,4S40,38.206,40,36z M34,36c0-1.103,0.897-2,2-2s2,0.897,2,2
		s-0.897,2-2,2S34,37.103,34,36z"/>
	<path d="M29,40c-2.206,0-4,1.794-4,4s1.794,4,4,4s4-1.794,4-4S31.206,40,29,40z M29,46c-1.103,0-2-0.897-2-2s0.897-2,2-2
		s2,0.897,2,2S30.103,46,29,46z"/>
	<path d="M39,46c-2.206,0-4,1.794-4,4s1.794,4,4,4s4-1.794,4-4S41.206,46,39,46z M39,52c-1.103,0-2-0.897-2-2s0.897-2,2-2
		s2,0.897,2,2S40.103,52,39,52z"/>
	<path d="M29,51c-2.206,0-4,1.794-4,4s1.794,4,4,4s4-1.794,4-4S31.206,51,29,51z M29,57c-1.103,0-2-0.897-2-2s0.897-2,2-2
		s2,0.897,2,2S30.103,57,29,57z"/>
</g>
<g>
</g>
<g>
</g>
<g>
</g>
<g>
</g>
<g>
</g>
<g>
</g>
<g>
</g>
<g>
</g>
<g>
</g>
<g>
</g>
<g>
</g>
<g>
</g>
<g>
</g>
<g>
</g>
<g>
</g>
</svg>
