<?xml version="1.0" encoding="iso-8859-1"?>
<!-- Generator: Adobe Illustrator 18.0.0, SVG Export Plug-In . SVG Version: 6.00 Build 0)  -->
<!DOCTYPE svg PUBLIC "-//W3C//DTD SVG 1.1//EN" "http://www.w3.org/Graphics/SVG/1.1/DTD/svg11.dtd">
<svg version="1.1" id="Capa_1" xmlns="http://www.w3.org/2000/svg" xmlns:xlink="http://www.w3.org/1999/xlink" x="0px" y="0px"
	 viewBox="0 0 60 60" style="enable-background:new 0 0 60 60;" xml:space="preserve">
<path d="M60,30c0-13.1-8.443-24.258-20.171-28.338l-0.003-0.015l-0.544-0.177c-0.038-0.012-0.077-0.021-0.115-0.033
	c-0.62-0.199-1.247-0.38-1.884-0.539c-0.024-0.006-0.048-0.011-0.071-0.016c-0.623-0.154-1.255-0.286-1.893-0.4
	c-0.064-0.012-0.129-0.023-0.194-0.035c-1.313-0.227-2.653-0.369-4.017-0.419c-0.056-0.002-0.111-0.003-0.167-0.004
	C30.628,0.014,30.316,0,30,0c-0.306,0-0.608,0.014-0.911,0.023c-0.073,0.002-0.145,0.003-0.217,0.005
	c-1.33,0.049-2.638,0.186-3.919,0.405c-0.125,0.021-0.249,0.044-0.373,0.067c-0.553,0.101-1.102,0.217-1.644,0.348
	c-0.068,0.016-0.138,0.027-0.206,0.044l-0.624,0.155l-0.003,0.016C9.381,4.539,0,16.191,0,30c0,13.56,9.046,25.042,21.419,28.743
	l0.001,0.013l0.681,0.186c0.031,0.008,0.063,0.014,0.093,0.022c1.195,0.323,2.42,0.571,3.668,0.744
	c0.129,0.018,0.259,0.033,0.388,0.049c0.483,0.06,0.969,0.109,1.459,0.146c0.154,0.012,0.307,0.026,0.461,0.035
	C28.776,59.976,29.385,60,30,60c0.626,0,1.245-0.026,1.862-0.064c0.151-0.009,0.301-0.023,0.451-0.034
	c0.517-0.04,1.031-0.092,1.54-0.158c0.109-0.014,0.217-0.026,0.326-0.042c1.289-0.181,2.551-0.444,3.783-0.783
	c0.032-0.009,0.066-0.015,0.098-0.024l0.674-0.188l0.001-0.009C51.029,54.95,60,43.505,60,30z M41.24,30.273
	c2.784,1.528,4.609,4.367,4.796,7.504c0.161,2.74-0.89,5.384-2.884,7.253c-3.539,3.317-5.754,7.596-6.288,12.114
	c-0.533,0.135-1.07,0.251-1.608,0.354c-0.065,0.012-0.131,0.023-0.196,0.035c-0.476,0.087-0.954,0.162-1.433,0.224
	c-0.085,0.011-0.17,0.022-0.255,0.032c-0.483,0.058-0.968,0.104-1.453,0.137c-0.063,0.004-0.126,0.011-0.189,0.014
	c-1.117,0.069-2.238,0.073-3.354,0.008c-0.016-0.001-0.032-0.003-0.049-0.004c-0.522-0.031-1.043-0.078-1.562-0.138
	c-0.093-0.011-0.185-0.024-0.277-0.035c-0.451-0.057-0.901-0.124-1.349-0.203c-0.104-0.018-0.208-0.036-0.312-0.056
	c-0.462-0.087-0.923-0.185-1.381-0.295c-0.052-0.013-0.105-0.023-0.156-0.036c-0.527-4.534-2.743-8.825-6.292-12.151
	c-1.994-1.869-3.045-4.513-2.884-7.252c0.204-3.443,2.364-6.489,5.544-7.872c0.044,0.02,0.089,0.034,0.133,0.053
	c0.15,0.064,0.301,0.124,0.454,0.181c0.137,0.052,0.274,0.1,0.412,0.146c0.142,0.047,0.285,0.094,0.43,0.135
	c0.168,0.048,0.337,0.089,0.507,0.129c0.121,0.028,0.241,0.06,0.363,0.084c0.297,0.059,0.596,0.109,0.897,0.143
	c1.413,0.158,2.813,0.055,4.16-0.307c0.378-0.101,0.768-0.185,1.165-0.257c0.058-0.011,0.117-0.019,0.176-0.029
	c0.366-0.062,0.738-0.113,1.116-0.149c0.024-0.002,0.047-0.005,0.071-0.007c0.653,0.019,1.315,0.003,1.966-0.052
	c0.016,0.001,0.031,0.001,0.047,0.002c0.539,0.023,1.071,0.074,1.595,0.15c0.053,0.008,0.106,0.018,0.159,0.026
	c0.518,0.081,1.028,0.183,1.524,0.316c0.418,0.112,0.843,0.191,1.27,0.253c0.124,0.018,0.248,0.031,0.372,0.045
	c0.335,0.037,0.673,0.059,1.012,0.066c0.075,0.002,0.149,0.015,0.225,0.015c0.034,0,0.069-0.005,0.104-0.006
	c0.391-0.003,0.783-0.022,1.177-0.066c0.369-0.041,0.732-0.106,1.089-0.184c0.053-0.012,0.106-0.028,0.16-0.041
	c0.316-0.074,0.626-0.161,0.932-0.261C41.197,30.285,41.219,30.281,41.24,30.273z M41.184,28.164l-0.228,0.087
	c-0.33,0.126-0.663,0.227-0.996,0.313c-0.056,0.014-0.111,0.029-0.167,0.042c-0.341,0.081-0.682,0.145-1.022,0.183
	c-1.166,0.132-2.313,0.046-3.42-0.25c-0.582-0.156-1.171-0.271-1.763-0.364c-0.058-0.009-0.115-0.02-0.173-0.028
	c-0.604-0.089-1.21-0.143-1.819-0.166c-0.019-0.001-0.038-0.005-0.057-0.005l-0.063-0.003l-0.034,0.003
	c-0.173-0.005-0.346-0.017-0.519-0.017c-0.479,0-0.957,0.027-1.435,0.067l-0.02-0.001l-0.063,0.006
	c-0.032,0.003-0.063,0.01-0.095,0.013c-0.416,0.039-0.83,0.094-1.242,0.163c-0.078,0.013-0.157,0.025-0.234,0.039
	c-0.449,0.082-0.896,0.176-1.338,0.295c-1.105,0.297-2.253,0.383-3.42,0.25c-0.262-0.029-0.521-0.072-0.776-0.123
	c-0.167-0.034-0.332-0.08-0.498-0.124c-0.081-0.021-0.164-0.039-0.244-0.062c-0.237-0.07-0.472-0.151-0.704-0.242
	c-0.004-0.002-0.009-0.003-0.013-0.005c-0.241-0.094-0.479-0.2-0.714-0.315l-0.188-0.092c-2.8-1.459-4.783-4.333-4.976-7.603
	c-0.161-2.74,0.89-5.384,2.884-7.253c3.057-2.866,5.113-6.406,5.972-10.274c0.065-0.015,0.129-0.031,0.195-0.045
	c0.505-0.11,1.012-0.209,1.522-0.291c0.027-0.004,0.053-0.01,0.08-0.014c0.578-0.091,1.158-0.162,1.739-0.217
	c0.056-0.005,0.114-0.008,0.17-0.013c0.507-0.044,1.016-0.074,1.525-0.091c0.111-0.004,0.223-0.006,0.335-0.008
	c0.49-0.01,0.979-0.009,1.469,0.006c0.079,0.002,0.159,0.003,0.238,0.006c1.161,0.045,2.319,0.161,3.466,0.349
	c0.057,0.009,0.112,0.021,0.169,0.03c0.495,0.084,0.988,0.184,1.478,0.294c0.112,0.025,0.224,0.051,0.335,0.077
	c0.478,0.114,0.953,0.242,1.424,0.381c0.056,0.017,0.112,0.031,0.168,0.048c0.924,3.656,2.945,7.021,5.869,9.762
	c1.994,1.869,3.045,4.513,2.884,7.253C46.675,23.769,44.362,26.849,41.184,28.164z M2,30C2,17.487,10.251,6.867,21.597,3.29
	c-0.889,3.073-2.631,5.891-5.116,8.221c-2.43,2.276-3.71,5.495-3.513,8.829c0.201,3.404,1.997,6.454,4.643,8.38
	c-3.173,1.88-5.271,5.217-5.491,8.941c-0.197,3.334,1.083,6.553,3.513,8.829c2.979,2.793,4.911,6.327,5.547,10.079
	C10.05,52.863,2,42.357,2,30z M38.981,56.514c0.645-3.73,2.574-7.245,5.539-10.025c2.43-2.276,3.71-5.495,3.513-8.83
	c-0.199-3.356-1.945-6.415-4.655-8.374c3.113-1.857,5.281-5.184,5.503-8.946c0.197-3.334-1.083-6.553-3.513-8.829
	c-2.283-2.14-3.943-4.697-4.891-7.47C50.739,8.198,58,18.264,58,30C58,42.298,50.027,52.762,38.981,56.514z"/>
<g>
</g>
<g>
</g>
<g>
</g>
<g>
</g>
<g>
</g>
<g>
</g>
<g>
</g>
<g>
</g>
<g>
</g>
<g>
</g>
<g>
</g>
<g>
</g>
<g>
</g>
<g>
</g>
<g>
</g>
</svg>
