<?xml version="1.0" encoding="iso-8859-1"?>
<!-- Generator: Adobe Illustrator 18.0.0, SVG Export Plug-In . SVG Version: 6.00 Build 0)  -->
<!DOCTYPE svg PUBLIC "-//W3C//DTD SVG 1.1//EN" "http://www.w3.org/Graphics/SVG/1.1/DTD/svg11.dtd">
<svg version="1.1" id="Capa_1" xmlns="http://www.w3.org/2000/svg" xmlns:xlink="http://www.w3.org/1999/xlink" x="0px" y="0px"
	 viewBox="0 0 60 60" style="enable-background:new 0 0 60 60;" xml:space="preserve">
<g>
	<path d="M55.009,46.524C58.265,41.609,60,35.92,60,30C60,13.458,46.542,0,30,0S0,13.458,0,30s13.458,30,30,30
		c5.92,0,11.609-1.735,16.524-4.991l3.124,3.124c0.821,0.994,2.186,1.658,3.756,1.824c0.254,0.027,0.506,0.041,0.756,0.041
		c1.435,0,2.779-0.439,3.771-1.247c1.24-1.012,1.966-2.544,2.044-4.316c0.079-1.794-0.527-3.503-1.614-4.561L55.009,46.524z
		 M49.615,22.232c-0.488-0.388-0.988-0.752-1.502-1.086c-0.072-0.046-0.148-0.084-0.22-0.13c-0.496-0.313-1-0.607-1.517-0.87
		c-0.117-0.06-0.239-0.108-0.357-0.165c-0.475-0.231-0.955-0.449-1.444-0.639c-0.178-0.069-0.36-0.125-0.54-0.188
		c-0.432-0.153-0.865-0.3-1.305-0.422c-0.242-0.067-0.487-0.12-0.731-0.178c-0.38-0.09-0.76-0.175-1.145-0.242
		c-0.299-0.052-0.6-0.091-0.902-0.13c-0.331-0.042-0.661-0.079-0.993-0.103c-0.346-0.026-0.692-0.042-1.04-0.05
		c-0.288-0.006-0.574-0.005-0.862,0.001c-0.218,0.005-0.434-0.011-0.652,0.001c-0.168,0.009-0.331,0.04-0.498,0.054
		c-0.25,0.02-0.498,0.051-0.747,0.081c-0.418,0.05-0.833,0.104-1.244,0.179c-0.172,0.032-0.342,0.074-0.513,0.111
		c-0.484,0.102-0.964,0.212-1.435,0.35c-0.042,0.012-0.083,0.028-0.124,0.041c-2.821,0.847-5.39,2.329-7.577,4.364
		c-0.183,0.17-0.376,0.323-0.555,0.501c-0.015,0.015-0.027,0.031-0.042,0.046c-0.212,0.214-0.406,0.45-0.61,0.675
		c-0.254,0.281-0.516,0.557-0.752,0.849c-0.032,0.039-0.068,0.073-0.099,0.112c-0.747,0.936-1.386,1.933-1.933,2.968
		c-0.052,0.097-0.095,0.197-0.145,0.295c-0.217,0.429-0.421,0.862-0.604,1.304c-0.075,0.179-0.142,0.36-0.211,0.54
		c-0.137,0.359-0.264,0.721-0.379,1.087c-0.073,0.231-0.143,0.462-0.207,0.695c-0.086,0.315-0.161,0.631-0.231,0.949
		c-0.06,0.271-0.122,0.54-0.171,0.812c-0.049,0.276-0.083,0.554-0.12,0.831c-0.041,0.306-0.09,0.61-0.116,0.918
		c-0.012,0.142-0.011,0.285-0.02,0.427c-0.046,0.711-0.051,1.422-0.021,2.133c0.011,0.257,0.016,0.514,0.037,0.771
		c0.024,0.291,0.064,0.58,0.101,0.869c0.038,0.302,0.078,0.602,0.13,0.902c0.044,0.254,0.097,0.505,0.151,0.757
		c0.075,0.35,0.16,0.698,0.254,1.044c0.056,0.204,0.112,0.408,0.175,0.61c0.13,0.424,0.279,0.841,0.439,1.256
		c0.049,0.127,0.093,0.254,0.144,0.38c0.652,1.593,1.514,3.116,2.606,4.51c0.058,0.074,0.122,0.139,0.181,0.211
		c0.137,0.172,0.287,0.336,0.431,0.504c0.262,0.304,0.527,0.604,0.803,0.888c0.073,0.076,0.135,0.158,0.21,0.232
		c0.106,0.106,0.224,0.197,0.332,0.3c0.275,0.263,0.556,0.517,0.843,0.762c0.183,0.155,0.366,0.309,0.554,0.457
		c0.344,0.272,0.697,0.527,1.056,0.774c0.094,0.064,0.181,0.14,0.276,0.203C15.06,52.203,6,42.14,6,30C6,16.767,16.767,6,30,6
		c12.14,0,22.202,9.061,23.784,20.773c-0.071-0.108-0.156-0.206-0.229-0.313c-0.212-0.309-0.436-0.611-0.667-0.909
		c-0.134-0.173-0.264-0.348-0.404-0.517c-0.364-0.438-0.745-0.865-1.152-1.274c-0.016-0.016-0.029-0.033-0.044-0.049
		c-0.49-0.49-1.001-0.946-1.528-1.372C49.713,22.301,49.662,22.269,49.615,22.232z M2,30C2,14.561,14.561,2,30,2s28,12.561,28,28
		c0,2.569-0.347,5.094-1.022,7.521c0-0.004,0-0.008,0-0.011c0-0.579-0.032-1.157-0.083-1.733c-0.015-0.173-0.041-0.344-0.061-0.516
		c-0.047-0.407-0.104-0.812-0.176-1.215c-0.035-0.198-0.074-0.394-0.116-0.591c-0.083-0.394-0.18-0.785-0.288-1.174
		c-0.049-0.176-0.093-0.353-0.146-0.528c-0.047-0.153-0.096-0.305-0.147-0.458C55.982,30.865,56,30.435,56,30
		C56,15.663,44.337,4,30,4S4,15.663,4,30s11.663,26,26,26c0.413,0,0.822-0.018,1.231-0.037c2.002,0.682,4.101,1.03,6.22,1.032
		C35.045,57.658,32.545,58,30,58C14.561,58,2,45.439,2,30z M56.666,57.2c-0.741,0.605-1.881,0.891-3.052,0.769
		c-1.052-0.111-1.965-0.535-2.443-1.132l-2.966-2.971l0.002-0.001l-1.487-1.487l-0.661,0.371c-0.443,0.249-0.894,0.473-1.349,0.68
		c-0.289,0.131-0.583,0.243-0.876,0.357c-0.153,0.06-0.306,0.126-0.46,0.182c-0.41,0.146-0.823,0.276-1.24,0.39
		c-0.027,0.007-0.053,0.016-0.08,0.023c-3.492,0.938-7.181,0.751-10.541-0.464c-0.466-0.169-0.922-0.355-1.367-0.56
		c-0.1-0.046-0.202-0.085-0.301-0.133c-0.513-0.247-1.009-0.523-1.492-0.818c-0.154-0.094-0.303-0.197-0.455-0.296
		c-0.35-0.229-0.693-0.471-1.026-0.726c-0.074-0.057-0.148-0.114-0.222-0.172c-0.109-0.086-0.217-0.175-0.324-0.264
		c-0.312-0.259-0.615-0.531-0.91-0.813c-0.159-0.152-0.319-0.302-0.473-0.461c-0.25-0.258-0.485-0.524-0.716-0.793
		c-0.132-0.153-0.267-0.302-0.395-0.461c-1.06-1.324-1.903-2.766-2.521-4.279c-0.026-0.065-0.049-0.131-0.074-0.196
		c-0.168-0.425-0.317-0.856-0.451-1.291c-0.042-0.136-0.08-0.273-0.118-0.411c-0.102-0.365-0.19-0.732-0.268-1.102
		c-0.037-0.176-0.074-0.352-0.106-0.53c-0.06-0.337-0.105-0.675-0.146-1.015c-0.023-0.195-0.052-0.39-0.068-0.586
		c-0.03-0.353-0.042-0.707-0.051-1.06c-0.004-0.173-0.019-0.345-0.018-0.518c0.002-0.505,0.027-1.009,0.072-1.513
		c0.017-0.185,0.048-0.369,0.07-0.554c0.042-0.342,0.086-0.684,0.147-1.023c0.034-0.189,0.078-0.376,0.119-0.563
		c0.074-0.344,0.155-0.686,0.25-1.025c0.046-0.165,0.096-0.329,0.147-0.493c0.117-0.375,0.247-0.747,0.39-1.116
		c0.048-0.123,0.094-0.247,0.144-0.369c0.183-0.441,0.383-0.875,0.604-1.303c0.025-0.049,0.047-0.099,0.073-0.148
		c0.514-0.974,1.129-1.908,1.839-2.79c0.215-0.266,0.447-0.511,0.674-0.761c0.181-0.201,0.351-0.408,0.544-0.602
		c0.248-0.251,0.513-0.477,0.774-0.71c0.921-0.824,1.911-1.543,2.963-2.146c0.163-0.094,0.32-0.198,0.486-0.286
		c0.307-0.163,0.626-0.302,0.942-0.446c0.222-0.101,0.441-0.211,0.668-0.303c0.282-0.115,0.573-0.208,0.861-0.308
		c0.278-0.096,0.555-0.195,0.838-0.277c0.257-0.074,0.519-0.133,0.78-0.195c0.328-0.078,0.657-0.155,0.991-0.214
		c0.241-0.043,0.485-0.075,0.729-0.108c0.355-0.048,0.713-0.089,1.074-0.116c0.245-0.018,0.491-0.028,0.738-0.036
		c0.374-0.011,0.748-0.014,1.12-0.001c0.207,0.006,0.413,0.017,0.618,0.03c0.438,0.03,0.874,0.074,1.307,0.136
		c0.131,0.018,0.262,0.036,0.392,0.058c0.514,0.086,1.023,0.192,1.526,0.322c0.056,0.014,0.112,0.027,0.167,0.042
		c0.565,0.153,1.122,0.331,1.668,0.538c0.007,0.003,0.014,0.005,0.021,0.007c1.124,0.429,2.202,0.974,3.219,1.626
		c0.015,0.01,0.031,0.018,0.046,0.028c0.473,0.305,0.929,0.64,1.372,0.992c0.041,0.033,0.085,0.06,0.126,0.094
		c0.474,0.383,0.93,0.792,1.365,1.227c0.011,0.011,0.02,0.023,0.031,0.034c0.402,0.404,0.774,0.829,1.13,1.265
		c0.124,0.151,0.24,0.307,0.358,0.462c0.247,0.324,0.481,0.656,0.704,0.996c0.104,0.159,0.213,0.317,0.312,0.479
		c0.292,0.479,0.566,0.971,0.811,1.48c0.051,0.105,0.093,0.214,0.141,0.321c0.201,0.439,0.385,0.889,0.552,1.348
		c0.741,2.048,1.108,4.215,1.061,6.389c-0.041,1.868-0.379,3.737-1.025,5.533c-0.323,0.898-0.723,1.777-1.201,2.628l-0.371,0.661
		l1.487,1.487l3.091,3.091c0.673,0.655,1.073,1.853,1.021,3.049C57.945,55.039,57.734,56.329,56.666,57.2z"/>
	<circle cx="51" cy="53" r="1"/>
	<circle cx="55" cy="53" r="1"/>
	<circle cx="53" cy="51" r="1"/>
	<circle cx="53" cy="55" r="1"/>
	<path d="M18,15c-0.553,0-1,0.447-1,1v4c0,0.553,0.447,1,1,1s1-0.447,1-1v-4C19,15.447,18.553,15,18,15z"/>
	<path d="M13.707,26.293c-0.391-0.391-1.023-0.391-1.414,0l-2.5,2.5c-0.391,0.391-0.391,1.023,0,1.414
		C9.988,30.402,10.244,30.5,10.5,30.5s0.512-0.098,0.707-0.293l2.5-2.5C14.098,27.316,14.098,26.684,13.707,26.293z"/>
	<path d="M30.707,11.293c-0.391-0.391-1.023-0.391-1.414,0s-0.391,1.023,0,1.414l2,2C31.488,14.902,31.744,15,32,15
		s0.512-0.098,0.707-0.293c0.391-0.391,0.391-1.023,0-1.414L30.707,11.293z"/>
	<path d="M14.168,36.445l-2,3c-0.307,0.46-0.183,1.08,0.277,1.387C12.616,40.945,12.809,41,12.999,41
		c0.323,0,0.641-0.156,0.833-0.445l2-3c0.307-0.46,0.183-1.08-0.277-1.387C15.093,35.861,14.474,35.985,14.168,36.445z"/>
	<path d="M33,31c2.206,0,4-1.794,4-4s-1.794-4-4-4s-4,1.794-4,4S30.794,31,33,31z M33,25c1.103,0,2,0.897,2,2s-0.897,2-2,2
		s-2-0.897-2-2S31.897,25,33,25z"/>
	<path d="M48.828,43.172c-1.51-1.512-4.146-1.512-5.656,0C42.416,43.927,42,44.932,42,46s0.416,2.073,1.172,2.828
		C43.927,49.584,44.932,50,46,50s2.073-0.416,2.828-1.172C49.584,48.073,50,47.068,50,46S49.584,43.927,48.828,43.172z
		 M47.414,47.414c-0.756,0.756-2.072,0.756-2.828,0C44.208,47.036,44,46.534,44,46s0.208-1.036,0.586-1.414S45.466,44,46,44
		s1.036,0.208,1.414,0.586S48,45.466,48,46S47.792,47.036,47.414,47.414z"/>
	<path d="M43.077,35.382c0.101,0.245,0.296,0.44,0.541,0.541C43.74,35.974,43.87,36,44,36h5c0.553,0,1-0.447,1-1s-0.447-1-1-1
		h-2.586l1.293-1.293c0.391-0.391,0.391-1.023,0-1.414s-1.023-0.391-1.414,0l-2.999,2.999c-0.093,0.092-0.166,0.203-0.217,0.326
		C42.976,34.862,42.976,35.138,43.077,35.382z"/>
	<path d="M30,42h-3c-0.553,0-1,0.447-1,1s0.447,1,1,1h2v3c0,0.553,0.447,1,1,1s1-0.447,1-1v-4C31,42.447,30.553,42,30,42z"/>
	<path d="M34,39c0.256,0,0.512-0.098,0.707-0.293l2-2c0.391-0.391,0.391-1.023,0-1.414s-1.023-0.391-1.414,0l-2,2
		c-0.391,0.391-0.391,1.023,0,1.414C33.488,38.902,33.744,39,34,39z"/>
	<path d="M38,41c0.553,0,1-0.447,1-1v-3c0-0.553-0.447-1-1-1s-1,0.447-1,1v3C37,40.553,37.447,41,38,41z"/>
	<path d="M36.707,42.293l-2-2c-0.391-0.391-1.023-0.391-1.414,0s-0.391,1.023,0,1.414l2,2C35.488,43.902,35.744,44,36,44
		s0.512-0.098,0.707-0.293C37.098,43.316,37.098,42.684,36.707,42.293z"/>
	<path d="M39.293,41.293l-2,2c-0.391,0.391-0.391,1.023,0,1.414C37.488,44.902,37.744,45,38,45s0.512-0.098,0.707-0.293l2-2
		c0.391-0.391,0.391-1.023,0-1.414S39.684,40.902,39.293,41.293z"/>
	<path d="M42,36c0-0.553-0.447-1-1-1s-1,0.447-1,1v3c0,0.553,0.447,1,1,1s1-0.447,1-1V36z"/>
	<path d="M36,34c0,0.553,0.447,1,1,1h2c0.553,0,1-0.447,1-1s-0.447-1-1-1h-2C36.447,33,36,33.447,36,34z"/>
	<path d="M32.447,40.895c0.494-0.247,0.694-0.848,0.447-1.342l-1-2c-0.248-0.494-0.848-0.693-1.342-0.447
		c-0.494,0.247-0.694,0.848-0.447,1.342l1,2C31.281,40.798,31.634,41,32.001,41C32.151,41,32.304,40.966,32.447,40.895z"/>
	<path d="M34.707,34.707c0.391-0.391,0.391-1.023,0-1.414s-1.023-0.391-1.414,0l-1,1c-0.391,0.391-0.391,1.023,0,1.414
		C32.488,35.902,32.744,36,33,36s0.512-0.098,0.707-0.293L34.707,34.707z"/>
	<path d="M34,43h-1c-0.553,0-1,0.447-1,1s0.447,1,1,1h1c0.553,0,1-0.447,1-1S34.553,43,34,43z"/>
</g>
<g>
</g>
<g>
</g>
<g>
</g>
<g>
</g>
<g>
</g>
<g>
</g>
<g>
</g>
<g>
</g>
<g>
</g>
<g>
</g>
<g>
</g>
<g>
</g>
<g>
</g>
<g>
</g>
<g>
</g>
</svg>
