<?xml version="1.0" encoding="iso-8859-1"?>
<!-- Generator: Adobe Illustrator 18.0.0, SVG Export Plug-In . SVG Version: 6.00 Build 0)  -->
<!DOCTYPE svg PUBLIC "-//W3C//DTD SVG 1.1//EN" "http://www.w3.org/Graphics/SVG/1.1/DTD/svg11.dtd">
<svg version="1.1" id="Capa_1" xmlns="http://www.w3.org/2000/svg" xmlns:xlink="http://www.w3.org/1999/xlink" x="0px" y="0px"
	 viewBox="0 0 60 60" style="enable-background:new 0 0 60 60;" xml:space="preserve">
<path d="M59.034,22.442L59.034,22.442l-0.143-0.516c-0.01-0.035-0.023-0.068-0.033-0.103c-0.217-0.765-0.458-1.52-0.733-2.259
	c-0.005-0.015-0.012-0.029-0.017-0.044c-0.263-0.703-0.555-1.391-0.867-2.067c-0.04-0.087-0.077-0.175-0.118-0.261
	c-0.305-0.644-0.635-1.272-0.984-1.89c-0.074-0.131-0.149-0.261-0.225-0.391c-0.356-0.609-0.728-1.207-1.125-1.787
	c-0.052-0.076-0.107-0.148-0.159-0.223c-0.398-0.572-0.815-1.129-1.251-1.67c-0.041-0.05-0.079-0.103-0.12-0.153
	c-0.473-0.58-0.97-1.139-1.483-1.681c-0.048-0.051-0.096-0.101-0.144-0.151c-4.366-4.548-10.144-7.726-16.626-8.82
	c-0.033-0.006-0.065-0.012-0.098-0.017c-0.746-0.123-1.501-0.218-2.263-0.285c-0.121-0.011-0.243-0.019-0.364-0.028
	C31.526,0.039,30.768,0,30,0s-1.526,0.039-2.28,0.095c-0.121,0.009-0.243,0.017-0.364,0.028c-0.763,0.067-1.518,0.161-2.263,0.285
	c-0.033,0.005-0.065,0.012-0.098,0.017c-6.481,1.094-12.26,4.271-16.626,8.82c-0.048,0.05-0.096,0.101-0.144,0.151
	c-0.514,0.543-1.011,1.102-1.483,1.681c-0.041,0.05-0.079,0.102-0.12,0.153c-0.436,0.542-0.853,1.099-1.251,1.67
	c-0.052,0.075-0.107,0.148-0.159,0.223c-0.397,0.581-0.769,1.178-1.125,1.787c-0.076,0.13-0.151,0.26-0.225,0.391
	c-0.349,0.617-0.679,1.246-0.984,1.89C2.837,17.278,2.8,17.367,2.76,17.453c-0.313,0.677-0.605,1.365-0.867,2.067
	c-0.005,0.015-0.012,0.029-0.017,0.044c-0.275,0.739-0.516,1.494-0.733,2.259c-0.01,0.035-0.024,0.068-0.033,0.103l-0.144,0.515
	l0.001,0.001C0.337,24.858,0,27.39,0,30c0,16.542,13.458,30,30,30s30-13.458,30-30C60,27.39,59.663,24.858,59.034,22.442z
	 M52.998,38.765c0.071,2.315-3.244,2.735-7.586,3.042l-0.79,0.058c-2.29,0.171-3.508,0.194-5.782-0.013
	c-0.523-0.048-1.063-0.084-1.607-0.121c-3.89-0.262-6.25-0.594-6.232-2.989c0.012-1.616,0.061-5.025,0.248-8.741H35v4h6v-4h2v4h6v-4
	h3.344C52.687,33.306,52.929,36.478,52.998,38.765z M29,38.741c0.018,2.396-2.343,2.728-6.232,2.989
	c-0.544,0.037-1.084,0.073-1.607,0.121c-2.275,0.207-3.493,0.184-5.782,0.013l-0.79-0.058c-4.342-0.307-7.657-0.727-7.586-3.042
	C7.071,36.478,7.313,33.306,7.656,30H11v4h6v-4h2v4h6v-4h3.752C28.939,33.717,28.988,37.125,29,38.741z M2.659,23.98
	c0.819,0.488,1.756,0.754,2.721,0.754h0.884c-0.142,1.073-0.276,2.168-0.4,3.266H2.079C2.177,26.631,2.371,25.288,2.659,23.98z
	 M3.2,21.896c0.205-0.679,0.439-1.343,0.692-1.996c0.04-0.102,0.08-0.203,0.12-0.305c0.251-0.627,0.521-1.243,0.815-1.845
	c0.039-0.08,0.082-0.157,0.121-0.237c0.273-0.545,0.563-1.079,0.869-1.602c0.056-0.097,0.11-0.195,0.167-0.291
	c0.331-0.551,0.682-1.086,1.049-1.61c0.08-0.114,0.16-0.227,0.241-0.339c0.386-0.535,0.785-1.059,1.206-1.564
	c0.022-0.026,0.045-0.051,0.067-0.077c0.445-0.53,0.909-1.042,1.391-1.536c0.022-0.023,0.044-0.047,0.066-0.07
	c0.506-0.516,1.032-1.012,1.576-1.487c0.005-0.004,0.009-0.008,0.014-0.012c3.868-3.372,8.642-5.679,13.824-6.544
	c0.018-0.003,0.036-0.007,0.054-0.01c0.687-0.113,1.382-0.196,2.082-0.258c0.118-0.01,0.237-0.018,0.356-0.027
	C28.603,2.034,29.299,2,30,2s1.397,0.034,2.088,0.086c0.119,0.009,0.238,0.017,0.356,0.027c0.7,0.062,1.395,0.145,2.082,0.258
	c0.018,0.003,0.036,0.007,0.054,0.01c5.182,0.865,9.957,3.172,13.824,6.544c0.005,0.004,0.009,0.008,0.014,0.012
	c0.544,0.475,1.069,0.971,1.576,1.487c0.022,0.023,0.044,0.047,0.066,0.07c0.482,0.494,0.946,1.007,1.391,1.536
	c0.022,0.026,0.045,0.051,0.067,0.077c0.421,0.504,0.82,1.028,1.205,1.563c0.082,0.113,0.163,0.227,0.243,0.341
	c0.366,0.524,0.717,1.059,1.048,1.609c0.058,0.096,0.111,0.194,0.167,0.291c0.306,0.523,0.596,1.057,0.869,1.602
	c0.04,0.079,0.082,0.157,0.121,0.237c0.294,0.602,0.564,1.219,0.815,1.846c0.041,0.101,0.08,0.202,0.12,0.303
	c0.253,0.654,0.487,1.318,0.692,1.997c0.001,0.005,0.003,0.01,0.004,0.015c-0.61,0.528-1.383,0.824-2.184,0.824h-0.988
	c-0.384-2.127-0.83-4.271-1.301-6.25c-1.44-6.051-6.587-6.75-10.332-6.75c-7.027,0-9.345,0.361-11.326,7.938
	c-0.255,0.974-0.478,2.016-0.673,3.146c-0.195-1.13-0.418-2.172-0.673-3.146c-1.981-7.577-4.299-7.938-11.326-7.938
	c-3.745,0-8.892,0.699-10.332,6.75c-0.471,1.979-0.917,4.123-1.301,6.25H5.38c-0.8,0-1.574-0.296-2.184-0.824
	C3.198,21.906,3.199,21.901,3.2,21.896z M9.614,16.947c1.091-4.581,4.676-5.213,8.387-5.213c6.609,0,7.752,0.178,9.391,6.444
	c0.631,2.412,1.013,6.139,1.247,9.821H25v-4h-6v4h-2v-4h-6v4H7.874C8.356,23.794,8.98,19.61,9.614,16.947z M23,26v6h-2v-6H23z
	 M15,26v6h-2v-6H15z M37,32v-6h2v6H37z M45,32v-6h2v6H45z M49,28v-4h-6v4h-2v-4h-6v4h-3.639c0.234-3.682,0.616-7.41,1.247-9.821
	c1.639-6.267,2.781-6.444,9.391-6.444c3.711,0,7.296,0.632,8.387,5.213C51.02,19.61,51.644,23.794,52.126,28H49z M53.736,24.734
	h0.884c0.965,0,1.902-0.266,2.721-0.754c0.288,1.308,0.482,2.651,0.579,4.02h-3.784C54.012,26.903,53.878,25.808,53.736,24.734z
	 M30,58C14.561,58,2,45.439,2,30h3.647c-0.338,3.288-0.576,6.429-0.645,8.704c-0.135,4.42,5.401,4.812,9.444,5.098l0.783,0.057
	c1.219,0.091,2.15,0.143,3.087,0.143c0.913,0,1.831-0.049,3.025-0.157c0.509-0.047,1.033-0.082,1.561-0.117
	c2.568-0.174,5.573-0.385,7.098-2.074c1.525,1.689,4.53,1.9,7.098,2.074c0.527,0.035,1.052,0.07,1.561,0.117
	c1.194,0.108,2.112,0.157,3.025,0.157c0.937,0,1.868-0.052,3.087-0.143l0.783-0.057c4.043-0.286,9.579-0.678,9.444-5.098
	c-0.069-2.275-0.307-5.416-0.645-8.704H58C58,45.439,45.439,58,30,58z"/>
<g>
</g>
<g>
</g>
<g>
</g>
<g>
</g>
<g>
</g>
<g>
</g>
<g>
</g>
<g>
</g>
<g>
</g>
<g>
</g>
<g>
</g>
<g>
</g>
<g>
</g>
<g>
</g>
<g>
</g>
</svg>
