<?xml version="1.0" encoding="iso-8859-1"?>
<!-- Generator: Adobe Illustrator 18.0.0, SVG Export Plug-In . SVG Version: 6.00 Build 0)  -->
<!DOCTYPE svg PUBLIC "-//W3C//DTD SVG 1.1//EN" "http://www.w3.org/Graphics/SVG/1.1/DTD/svg11.dtd">
<svg version="1.1" id="Capa_1" xmlns="http://www.w3.org/2000/svg" xmlns:xlink="http://www.w3.org/1999/xlink" x="0px" y="0px"
	 viewBox="0 0 59.477 59.477" style="enable-background:new 0 0 59.477 59.477;" xml:space="preserve">
<g>
	<path d="M55.299,22.682c-0.774-1.203-1.206-3.811-1.11-5.398c0.225-3.707-1.745-7.388-4.789-8.95
		c-0.587-0.302-1.115-0.454-1.581-0.588c-0.801-0.231-1.132-0.327-1.435-0.956c-1.596-3.317-3.362-3.781-6.711-3.564
		c-0.314,0.059-0.732-0.46-1.163-0.92c-0.741-0.793-1.731-1.852-3.301-2.032l-0.505-0.05c-2.061,0-3.915,0.746-4.991,1.847
		c-0.533-0.576-1.21-1.08-1.889-1.44c-1.322-0.701-2.56-0.822-3.447-0.336c-1.558,0.308-2.556,1.296-3.294,2.026
		c-0.583,0.577-0.948,0.944-1.281,0.904c-3.351-0.215-5.114,0.249-6.711,3.564c-0.302,0.629-0.633,0.725-1.434,0.956
		c-0.465,0.134-0.993,0.286-1.581,0.588c-3.044,1.563-5.013,5.243-4.789,8.95c0.096,1.588-0.336,4.195-1.11,5.398
		c-1.907,2.968-1.907,7.114,0,10.082c0.295,0.458,0.727,0.991,1.227,1.609c0.892,1.102,2.386,2.945,2.335,3.789
		c-0.227,3.736,2.053,8.041,5.082,9.596c0.545,0.28,0.637,0.563,0.843,1.42c0.114,0.474,0.256,1.063,0.562,1.697
		c0.823,1.711,2.114,2.202,3.056,2.561c0.936,0.355,1.323,0.503,1.465,1.529c0.461,3.34,2.563,4.513,4.49,4.513
		c0.11,0,0.219-0.004,0.328-0.011c2.362-0.163,4.837-1.971,6.173-4.763c1.336,2.793,3.81,4.601,6.173,4.763
		c0.108,0.007,0.218,0.011,0.328,0.011c1.927,0,4.029-1.174,4.49-4.513c0.142-1.026,0.529-1.174,1.465-1.529
		c0.942-0.359,2.233-0.85,3.057-2.561c0.305-0.634,0.447-1.224,0.561-1.697c0.207-0.856,0.298-1.14,0.843-1.42
		c3.028-1.555,5.308-5.859,5.082-9.596c-0.051-0.844,1.443-2.688,2.335-3.789c0.5-0.618,0.932-1.151,1.227-1.609
		C57.206,29.796,57.206,25.649,55.299,22.682z M23.429,57.472c-1.477,0.076-2.438-0.886-2.699-2.78
		c-0.304-2.2-1.709-2.735-2.735-3.125c-0.831-0.316-1.488-0.566-1.965-1.559c-0.213-0.441-0.318-0.878-0.42-1.3
		c-0.001-0.005-0.003-0.01-0.004-0.015c0.077-0.142,0.133-0.297,0.133-0.47c0-2.757,2.243-5,5-5c0.552,0,1-0.447,1-1s-0.448-1-1-1
		c-3.145,0-5.81,2.085-6.691,4.944c-0.1-0.064-0.197-0.129-0.313-0.188c-2.307-1.184-4.175-4.78-3.999-7.695
		c0.098-1.62-1.429-3.506-2.777-5.17c-0.444-0.548-0.863-1.065-1.098-1.432c-1.499-2.331-1.499-5.587,0-7.918
		c1.043-1.622,1.543-4.63,1.423-6.602c-0.175-2.893,1.383-5.857,3.706-7.05c0.415-0.213,0.826-0.331,1.222-0.446
		c0.42-0.121,0.864-0.256,1.29-0.491c0.078,0.019,0.153,0.048,0.236,0.048c2.206,0,4,1.794,4,4c0,0.553,0.448,1,1,1s1-0.447,1-1
		c0-2.86-2.013-5.256-4.696-5.853c0.895-1.749,1.653-2.198,3.398-2.198c0.364,0,0.772,0.019,1.233,0.049
		c1.243,0.077,2.079-0.748,2.817-1.479c0.701-0.693,1.362-1.349,2.395-1.506l0.329-0.061l0.156-0.144
		c0.192-0.083,0.73-0.052,1.517,0.365c1.148,0.609,1.852,1.528,1.852,1.826v8.069c-3.94,0.495-7,3.859-7,7.931c0,3.309-2.691,6-6,6
		c-0.552,0-1,0.447-1,1s0.448,1,1,1c4.411,0,8-3.589,8-8c0-2.967,2.167-5.431,5-5.91v35.91
		C28.739,54.655,25.599,57.322,23.429,57.472z M53.616,31.682c-0.235,0.366-0.654,0.884-1.098,1.432
		c-0.404,0.499-0.821,1.019-1.209,1.545c-1.072-3.156-4.057-5.436-7.571-5.436c-3.309,0-6-2.691-6-6c0-0.553-0.448-1-1-1
		s-1,0.447-1,1c0,4.411,3.589,8,8,8c3.309,0,6,2.691,6,6c0,0.117,0.03,0.226,0.067,0.331c-0.05,0.247-0.079,0.492-0.065,0.73
		c0.176,2.915-1.692,6.512-3.999,7.695c-0.115,0.059-0.212,0.125-0.313,0.188c-0.88-2.859-3.546-4.944-6.691-4.944
		c-0.552,0-1,0.447-1,1s0.448,1,1,1c2.757,0,5,2.243,5,5c0,0.173,0.056,0.328,0.133,0.47c-0.001,0.005-0.003,0.01-0.004,0.015
		c-0.102,0.422-0.207,0.858-0.419,1.3c-0.478,0.992-1.134,1.242-1.965,1.559c-1.026,0.39-2.432,0.925-2.735,3.125
		c-0.262,1.895-1.233,2.854-2.699,2.78c-2.17-0.149-5.31-2.816-5.31-7.249v-46c0-0.754,1.458-1.849,3.531-1.985l0.469,0.009
		c0.913,0,1.482,0.538,2.311,1.425c0.714,0.763,1.535,1.607,2.753,1.55c2.684-0.17,3.56,0.041,4.651,2.19
		c-2.132,0.571-3.715,2.502-3.715,4.812c0,0.553,0.448,1,1,1s1-0.447,1-1c0-1.654,1.346-3,3-3c0.084,0,0.159-0.028,0.236-0.048
		c0.426,0.235,0.87,0.37,1.29,0.491c0.396,0.115,0.807,0.233,1.222,0.446c2.322,1.192,3.881,4.157,3.706,7.05
		c-0.12,1.972,0.38,4.979,1.423,6.602C55.115,26.095,55.115,29.35,53.616,31.682z"/>
	<path d="M26.276,27.859c-0.391-0.391-1.023-0.391-1.414,0c-1.369,1.368-2.123,3.188-2.123,5.121c0,1.619,0.535,3.153,1.51,4.414
		c-0.975,1.261-1.51,2.796-1.51,4.414c0,1.934,0.754,3.753,2.123,5.121c0.195,0.195,0.451,0.293,0.707,0.293
		s0.512-0.098,0.707-0.293c0.391-0.391,0.391-1.023,0-1.414c-0.991-0.991-1.537-2.308-1.537-3.707s0.546-2.716,1.537-3.707
		c0.391-0.391,0.391-1.023,0-1.414c-0.991-0.991-1.537-2.308-1.537-3.707c0-1.399,0.546-2.716,1.537-3.707
		C26.666,28.883,26.666,28.25,26.276,27.859z"/>
	<path d="M34.55,31.202c-0.391,0.391-0.391,1.023,0,1.414c1.858,1.859,1.858,4.884,0,6.743c-1.279,1.279-1.984,2.979-1.984,4.785
		s0.705,3.506,1.984,4.785c0.195,0.195,0.451,0.293,0.707,0.293s0.512-0.098,0.707-0.293c0.391-0.391,0.391-1.023,0-1.414
		c-0.901-0.901-1.398-2.099-1.398-3.371s0.497-2.47,1.398-3.371c2.638-2.639,2.638-6.933,0-9.571
		C35.573,30.811,34.94,30.811,34.55,31.202z"/>
	<path d="M47.554,21.692c-2.583,0.453-5.066-1.282-5.521-3.871c-0.313-1.781-1.3-3.334-2.779-4.371
		c-1.479-1.037-3.276-1.436-5.057-1.124c-0.544,0.096-0.908,0.614-0.812,1.158s0.613,0.902,1.158,0.813
		c1.258-0.226,2.521,0.061,3.563,0.79c1.042,0.731,1.737,1.825,1.958,3.08c0.577,3.281,3.44,5.599,6.664,5.599
		c0.387,0,0.779-0.034,1.173-0.103c0.544-0.096,0.908-0.614,0.812-1.158S48.102,21.598,47.554,21.692z"/>
	<path d="M13.609,22.796c1.645,0,3.195-1.012,3.797-2.643c0.191-0.519-0.073-1.094-0.591-1.285c-0.517-0.19-1.094,0.074-1.285,0.592
		c-0.391,1.058-1.569,1.6-2.624,1.209c-2.09-0.768-4.42,0.303-5.192,2.393c-0.191,0.519,0.074,1.094,0.592,1.285
		c0.114,0.042,0.231,0.062,0.346,0.062c0.407,0,0.789-0.25,0.938-0.653c0.39-1.057,1.564-1.602,2.624-1.209
		C12.674,22.715,13.145,22.796,13.609,22.796z"/>
	<path d="M16.794,38.1c-1.056-0.389-1.599-1.566-1.21-2.622c0,0,0-0.001,0-0.001c0.772-2.091-0.302-4.42-2.393-5.193
		c-0.516-0.189-1.094,0.074-1.285,0.592c-0.191,0.519,0.073,1.094,0.591,1.285c1.057,0.39,1.6,1.567,1.21,2.623
		c0,0.001,0,0.002,0,0.002c-0.77,2.089,0.303,4.418,2.393,5.191c0.114,0.042,0.231,0.062,0.347,0.062
		c0.407,0,0.789-0.25,0.938-0.653C17.577,38.867,17.312,38.293,16.794,38.1z"/>
</g>
<g>
</g>
<g>
</g>
<g>
</g>
<g>
</g>
<g>
</g>
<g>
</g>
<g>
</g>
<g>
</g>
<g>
</g>
<g>
</g>
<g>
</g>
<g>
</g>
<g>
</g>
<g>
</g>
<g>
</g>
</svg>
