<?xml version="1.0" encoding="utf-8"?>
<!-- Generator: Adobe Illustrator 16.0.0, SVG Export Plug-In . SVG Version: 6.00 Build 0)  -->
<!DOCTYPE svg PUBLIC "-//W3C//DTD SVG 1.1//EN" "http://www.w3.org/Graphics/SVG/1.1/DTD/svg11.dtd">
<svg version="1.1" id="Layer_1" xmlns="http://www.w3.org/2000/svg" xmlns:xlink="http://www.w3.org/1999/xlink" x="0px" y="0px"
	 width="72px" height="72px" viewBox="0 0 72 72" style="fill:#cccc00" enable-background="new 0 0 72 72" xml:space="preserve">
<g>
	<path d="M61.568,11.5H10.432c-3.828,0-6.932,3.104-6.932,6.932v35.136c0,3.828,3.104,6.933,6.932,6.933h51.136
		c3.828,0,6.932-3.104,6.932-6.933h0.001V18.432C68.501,14.604,65.396,11.5,61.568,11.5z M7.5,23.5h57.001v9H7.5V23.5z M10.432,15.5
		h51.136c1.619,0,2.932,1.313,2.932,2.932h0.001V21.5H7.5v-3.068C7.5,16.813,8.813,15.5,10.432,15.5z M61.568,56.501H10.432
		c-1.619,0-2.932-1.313-2.932-2.933V34.5h57.001v19.068C64.501,55.188,63.188,56.501,61.568,56.501z"/>
	<path d="M14.119,47.5h-4c-0.553,0-1,0.447-1,1s0.447,1,1,1h4c0.552,0,1-0.447,1-1S14.671,47.5,14.119,47.5z"/>
	<path d="M25.119,47.5h-7c-0.553,0-1,0.447-1,1s0.447,1,1,1h7c0.552,0,1-0.447,1-1S25.671,47.5,25.119,47.5z"/>
	<path d="M31.119,47.5h-2c-0.553,0-1,0.447-1,1s0.447,1,1,1h2c0.552,0,1-0.447,1-1S31.671,47.5,31.119,47.5z"/>
</g>
</svg>
