<?xml version="1.0" encoding="iso-8859-1"?>
<!-- Generator: Adobe Illustrator 18.0.0, SVG Export Plug-In . SVG Version: 6.00 Build 0)  -->
<!DOCTYPE svg PUBLIC "-//W3C//DTD SVG 1.1//EN" "http://www.w3.org/Graphics/SVG/1.1/DTD/svg11.dtd">
<svg version="1.1" id="Capa_1" xmlns="http://www.w3.org/2000/svg" xmlns:xlink="http://www.w3.org/1999/xlink" x="0px" y="0px"
	 viewBox="0 0 59.081 59.081" style="enable-background:new 0 0 59.081 59.081;" xml:space="preserve">
<g>
	<circle cx="40.997" cy="43.997" r="1"/>
	<circle cx="46.997" cy="43.997" r="1"/>
	<circle cx="43.997" cy="45.997" r="1"/>
	<circle cx="46.997" cy="48.997" r="1"/>
	<circle cx="49.997" cy="45.997" r="1"/>
	<circle cx="49.997" cy="51.997" r="1"/>
	<path d="M58.204,53.961l-2.614-2.614l-1.414-7.071L27.421,17.522l2.99-2.99l-4.95-4.95l-2.99,2.99l-1.818-1.818l1.414-1.414
		c0.391-0.391,0.391-1.023,0-1.414s-1.023-0.391-1.414,0L19.24,9.34l-0.045-0.045l-7.248-7.248c-2.729-2.729-7.17-2.729-9.899,0
		c-2.729,2.729-2.729,7.17,0,9.899L9.34,19.24l-1.414,1.414c-0.391,0.391-0.391,1.023,0,1.414c0.195,0.195,0.451,0.293,0.707,0.293
		s0.512-0.098,0.707-0.293l1.414-1.414l0,0l1.818,1.818l-2.667,2.667l4.95,4.95l2.667-2.667l12.575,12.576l0,0l14.178,14.179
		l7.071,1.414l2.614,2.614c0.585,0.585,1.353,0.877,2.122,0.877c0.768,0,1.536-0.292,2.121-0.877
		c0.146-0.146,0.274-0.304,0.384-0.47c0.329-0.499,0.494-1.075,0.494-1.651C59.081,55.314,58.789,54.546,58.204,53.961z
		 M21.926,20.189l-2.121-2.121l2.121-2.121l2.121,2.121L21.926,20.189z M18.39,19.482l2.121,2.121l-2.121,2.121l-2.121-2.121
		L18.39,19.482z M25.461,12.411l2.122,2.122l-1.575,1.575l0,0l-0.546,0.546l-2.121-2.121l0.546-0.546l0,0L25.461,12.411z
		 M3.461,3.461c0.975-0.975,2.255-1.462,3.536-1.462s2.561,0.487,3.536,1.462l7.248,7.248l-7.071,7.071l-7.248-7.248
		C1.512,8.583,1.512,5.411,3.461,3.461z M12.168,19.239l7.071-7.071l1.818,1.818l-7.071,7.071L12.168,19.239z M14.855,27.26
		l-2.122-2.122l1.253-1.253l0.868-0.868l2.122,2.122l-0.868,0.868L14.855,27.26z M26.007,18.936l21.06,21.061H33.411l1.293-1.293
		c0.391-0.391,0.391-1.023,0-1.414s-1.023-0.391-1.414,0l-1.535,1.535l-1.586-1.586l1.535-1.535c0.391-0.391,0.391-1.023,0-1.414
		s-1.023-0.391-1.414,0l-1.535,1.535l-1.586-1.586l1.535-1.535c0.391-0.391,0.391-1.023,0-1.414s-1.023-0.391-1.414,0l-1.535,1.535
		l-1.586-1.586l1.535-1.535c0.391-0.391,0.391-1.023,0-1.414s-1.023-0.391-1.414,0l-1.535,1.535l-3.818-3.818L26.007,18.936z
		 M56.79,56.79c-0.39,0.389-1.024,0.39-1.415,0l-3.042-3.043l-7.071-1.414l-3.277-3.277c0.001-0.021,0.012-0.038,0.012-0.059
		c0-0.552-0.448-1-1-1c-0.021,0-0.038,0.011-0.059,0.012l-6.012-6.012h14.142l3.265,3.265l0.551,2.758
		c-0.497,0.058-0.887,0.465-0.887,0.977c0,0.552,0.448,1,1,1c0.096,0,0.184-0.029,0.272-0.055l0.478,2.391l3.043,3.042
		C57.179,55.765,57.179,56.4,56.79,56.79z"/>
</g>
<g>
</g>
<g>
</g>
<g>
</g>
<g>
</g>
<g>
</g>
<g>
</g>
<g>
</g>
<g>
</g>
<g>
</g>
<g>
</g>
<g>
</g>
<g>
</g>
<g>
</g>
<g>
</g>
<g>
</g>
</svg>
