<?xml version="1.0" encoding="iso-8859-1"?>
<!-- Generator: Adobe Illustrator 18.0.0, SVG Export Plug-In . SVG Version: 6.00 Build 0)  -->
<!DOCTYPE svg PUBLIC "-//W3C//DTD SVG 1.1//EN" "http://www.w3.org/Graphics/SVG/1.1/DTD/svg11.dtd">
<svg version="1.1" id="Capa_1" xmlns="http://www.w3.org/2000/svg" xmlns:xlink="http://www.w3.org/1999/xlink" x="0px" y="0px"
	 viewBox="0 0 60 60" style="enable-background:new 0 0 60 60;" xml:space="preserve">
<path d="M49.295,20.057l-2.511-4.018C46.271,15.219,46,14.273,46,13.305V11c0.553,0,1-0.448,1-1V1c0-0.552-0.447-1-1-1H14
	c-0.553,0-1,0.448-1,1v9c0,0.552,0.447,1,1,1v2.305c0,0.968-0.271,1.914-0.784,2.735l-2.511,4.018C9.59,21.841,9,23.896,9,26v0.292
	v27.416v0.856C9,57.562,11.438,60,14.436,60h31.129C48.562,60,51,57.562,51,54.564v-0.856V26.292V26
	C51,23.896,50.41,21.841,49.295,20.057z M35,53V27h14v4H39v2h10v2H39v2h10v2H39v2h10v2H39v2h10v2H39v2h10v4H35z M45,9h-2V2h2V9z
	 M39,9V2h2v7H39z M35,9V2h2v7H35z M31,9V2h2v7H31z M27,9V2h2v7H27z M23,9V2h2v7H23z M19,9V2h2v7H19z M15,2h2v7h-2V2z M16,27v26h-5
	V27H16z M45.564,58H14.436c-1.745,0-3.175-1.313-3.391-3H18V25h-6.93c0.15-1.374,0.592-2.702,1.33-3.883l2.511-4.018
	C15.624,15.961,16,14.648,16,13.305V11h28v2.305c0,1.344,0.376,2.656,1.089,3.794l2.511,4.018c0,0,0,0,0,0
	c0.738,1.181,1.18,2.508,1.33,3.882H33v30h15.956C48.739,56.687,47.31,58,45.564,58z"/>
<g>
</g>
<g>
</g>
<g>
</g>
<g>
</g>
<g>
</g>
<g>
</g>
<g>
</g>
<g>
</g>
<g>
</g>
<g>
</g>
<g>
</g>
<g>
</g>
<g>
</g>
<g>
</g>
<g>
</g>
</svg>
