<?xml version="1.0" encoding="iso-8859-1"?>
<!-- Generator: Adobe Illustrator 18.0.0, SVG Export Plug-In . SVG Version: 6.00 Build 0)  -->
<!DOCTYPE svg PUBLIC "-//W3C//DTD SVG 1.1//EN" "http://www.w3.org/Graphics/SVG/1.1/DTD/svg11.dtd">
<svg version="1.1" id="Capa_1" xmlns="http://www.w3.org/2000/svg" xmlns:xlink="http://www.w3.org/1999/xlink" x="0px" y="0px"
	 viewBox="0 0 59.999 59.999" style="enable-background:new 0 0 59.999 59.999;" xml:space="preserve">
<g>
	<path d="M44.614,5.299c-3.519-3.747-8.412-5.516-14.556-5.278c-9.424,0.361-15.675,3.218-18.582,8.49
		c-4.137,7.505,0.86,16.323,1.076,16.695c1.274,2.204,4.111,2.962,6.322,1.696c2.213-1.268,2.988-4.106,1.729-6.328
		c-0.683-1.204-2.329-5.183-0.983-7.596c1.197-2.149,5.03-3.456,10.792-3.678c3.403-0.129,5.826,0.646,7.431,2.355
		c3.254,3.465,3.307,10.382,2.777,15.573c-0.76,7.466-3.67,14.163-8.414,19.368c-0.403,0.443-0.783,0.665-1.16,0.68
		c-0.831,0.014-1.887-0.951-2.722-1.741c-0.762-0.72-1.42-1.342-2.165-1.514c-0.929-0.212-1.751,0.24-2.412,0.604
		c-0.31,0.169-0.833,0.456-0.978,0.394c-0.016-0.006-0.399-0.177-0.848-1.638c-0.402-1.311-1.354-2.371-2.614-2.91
		c-1.255-0.539-2.687-0.491-3.89,0.111c-0.375,0.172-0.667,0.524-0.977,1.181c-1.152,2.449-1.014,5.356,0.37,7.776
		c2.428,4.247,6.014,9.466,9.313,10.206c0.744,0.167,1.51,0.252,2.274,0.252c4.088,0,8.351-2.404,12.671-7.145
		c6.096-6.686,9.826-15.221,10.79-24.683C50.913,17.823,49.149,10.128,44.614,5.299z M47.87,27.968
		c-0.919,9.032-4.474,17.172-10.278,23.538c-4.617,5.068-9.02,7.188-13.029,6.289c-1.989-0.446-4.911-3.817-8.015-9.247
		c-1.061-1.855-1.172-4.072-0.297-5.933c0.068-0.144,0.118-0.232,0.15-0.285c0.688-0.305,1.435-0.313,2.119-0.021
		c0.718,0.308,1.26,0.912,1.489,1.659c0.5,1.628,1.138,2.551,2.007,2.904c1.031,0.418,1.989-0.108,2.691-0.493
		c0.345-0.189,0.804-0.454,1.005-0.408c0.231,0.067,0.837,0.64,1.237,1.019c1.081,1.021,2.421,2.287,4.053,2.287
		c0.039,0,0.078,0,0.118-0.002c0.928-0.034,1.79-0.482,2.563-1.33c5.035-5.524,8.121-12.617,8.926-20.513
		c0.57-5.606,0.46-13.131-3.31-17.146c-2.023-2.155-4.956-3.142-8.963-2.984c-6.677,0.257-10.87,1.839-12.465,4.702
		c-1.736,3.115-0.111,7.612,0.99,9.556c0.719,1.267,0.277,2.885-0.982,3.606c-1.256,0.719-2.871,0.29-3.597-0.962
		c-0.192-0.332-4.654-8.201-1.056-14.729c2.544-4.614,8.232-7.124,16.908-7.457c5.53-0.216,9.916,1.345,13.02,4.649
		C47.276,11.055,48.862,18.222,47.87,27.968z"/>
	<path d="M23.8,35c-1.437,0.051-2.527,0.744-2.92,1.853c-0.364,1.028-0.028,2.154,0.874,2.94c0.467,0.405,1.45,1.02,3.129,1.02
		c1.344,0,3.134-0.394,5.46-1.602c4.193-2.178,6.581-5.319,6.549-8.619c-0.033-3.428-2.563-6.559-7.121-8.814
		c-0.901-0.446-1.851-0.677-2.743-0.859c-1.85-0.379-3.192-2.026-3.192-3.919c0-2.206,1.794-4,4-4c0.553,0,1-0.447,1-1s-0.447-1-1-1
		c-3.309,0-6,2.691-6,6c0,2.838,2.016,5.311,4.791,5.878c0.761,0.156,1.56,0.348,2.258,0.693c3.849,1.904,5.982,4.405,6.008,7.041
		c0.024,2.52-1.97,5.007-5.471,6.824c-3.389,1.76-5.541,1.556-6.354,0.849c-0.271-0.235-0.386-0.527-0.303-0.764
		c0.107-0.302,0.53-0.502,1.07-0.521c2.206,0,4-1.794,4-4s-1.794-4-4-4c-0.553,0-1,0.447-1,1s0.447,1,1,1c1.103,0,2,0.897,2,2
		S24.938,34.999,23.8,35z"/>
</g>
<g>
</g>
<g>
</g>
<g>
</g>
<g>
</g>
<g>
</g>
<g>
</g>
<g>
</g>
<g>
</g>
<g>
</g>
<g>
</g>
<g>
</g>
<g>
</g>
<g>
</g>
<g>
</g>
<g>
</g>
</svg>
