<?xml version="1.0" encoding="iso-8859-1"?>
<!-- Generator: Adobe Illustrator 18.0.0, SVG Export Plug-In . SVG Version: 6.00 Build 0)  -->
<!DOCTYPE svg PUBLIC "-//W3C//DTD SVG 1.1//EN" "http://www.w3.org/Graphics/SVG/1.1/DTD/svg11.dtd">
<svg version="1.1" id="Capa_1" xmlns="http://www.w3.org/2000/svg" xmlns:xlink="http://www.w3.org/1999/xlink" x="0px" y="0px"
	 viewBox="0 0 59.555 59.555" style="enable-background:new 0 0 59.555 59.555;" xml:space="preserve">
<g>
	<path d="M53.39,23.428c-2.326-2.405-4.648-4.29-7.099-5.76c-5.068-3.041-10.815-4.701-16.674-4.859
		c-0.206-0.007-0.408-0.031-0.617-0.031c-0.04,0-0.08,0.006-0.12,0.006c-0.059,0-0.118-0.006-0.178-0.006
		c-8.308,0-16.382,3.072-22.733,8.65l-3.698,3.247C0.83,25.942,0.002,27.781,0,29.72c-0.002,1.939,0.822,3.779,2.261,5.049
		l3.746,3.306c6.361,5.612,14.457,8.703,22.794,8.703c0.041,0,0.082-0.004,0.123-0.004c0.026,0,0.05,0.004,0.076,0.004
		c0.11,0,0.217-0.014,0.326-0.017c5.457-0.085,10.878-1.491,15.708-4.102c3.001-1.622,5.9-3.879,8.616-6.708l5.904-6.149
		L53.39,23.428z M44,29.778c0,8.161-6.554,14.807-14.673,14.983c-0.134,0.002-0.268,0.012-0.403,0.013
		C20.688,44.732,14,38.023,14,29.778c0-8.231,6.665-14.928,14.88-14.994c0.247,0.001,0.492,0.018,0.739,0.025
		C37.602,15.137,44,21.715,44,29.778z M7.33,36.574l-3.746-3.306C2.576,32.38,1.999,31.087,2,29.722
		c0.001-1.365,0.582-2.657,1.591-3.544l3.698-3.247c3.302-2.9,7.097-5.077,11.149-6.45C14.522,19.598,12,24.395,12,29.778
		c0,5.344,2.484,10.113,6.351,13.232C14.346,41.625,10.595,39.455,7.33,36.574z M52.208,34.567c-2.573,2.68-5.306,4.811-8.125,6.333
		c-1.331,0.719-2.713,1.331-4.126,1.855C43.648,39.634,46,34.978,46,29.778c0-5.164-2.322-9.788-5.967-12.908
		c1.804,0.682,3.558,1.511,5.229,2.514c2.299,1.379,4.488,3.157,6.69,5.436l4.826,4.989L52.208,34.567z"/>
	<path d="M6.837,25.665l-0.642-0.444l-1.944,1.708C3.457,27.626,3.001,28.645,3,29.723s0.453,2.097,1.246,2.796l2.016,1.779
		l0.647-0.465C8.218,32.893,9,31.376,9,29.778C9,28.138,8.191,26.601,6.837,25.665z M6.312,31.675l-0.744-0.656
		C5.207,30.699,5,30.228,5,29.725s0.209-0.975,0.572-1.294l0.696-0.611C6.735,28.359,7,29.052,7,29.778
		C7,30.473,6.751,31.144,6.312,31.675z"/>
	<path d="M28,21.778v1.08c-0.192,0.028-0.381,0.061-0.568,0.104l-0.389-1.005c-0.201-0.517-0.783-0.77-1.294-0.571
		c-0.515,0.2-0.771,0.779-0.571,1.294l0.39,1.005c-0.262,0.148-0.511,0.315-0.751,0.495l-0.766-0.766
		c-0.391-0.391-1.023-0.391-1.414,0s-0.391,1.023,0,1.414l0.766,0.766c-0.115,0.154-0.224,0.312-0.327,0.475l-0.989-0.437
		c-0.506-0.222-1.096,0.007-1.319,0.512c-0.223,0.505,0.006,1.096,0.511,1.318l0.986,0.435c-0.08,0.287-0.141,0.581-0.184,0.881H21
		c-0.552,0-1,0.447-1,1s0.448,1,1,1h1.08c0.028,0.192,0.061,0.382,0.104,0.568l-1.004,0.389c-0.515,0.199-0.771,0.778-0.572,1.294
		c0.153,0.396,0.532,0.639,0.933,0.639c0.12,0,0.242-0.021,0.361-0.067l1.006-0.389c0.148,0.262,0.316,0.512,0.495,0.752
		l-0.766,0.766c-0.391,0.391-0.391,1.023,0,1.414c0.195,0.195,0.451,0.293,0.707,0.293s0.512-0.098,0.707-0.293l0.766-0.766
		c0.154,0.115,0.311,0.224,0.474,0.327l-0.437,0.989c-0.223,0.505,0.005,1.096,0.51,1.319c0.131,0.058,0.269,0.085,0.404,0.085
		c0.384,0,0.75-0.222,0.915-0.596l0.436-0.987c0.287,0.08,0.581,0.141,0.881,0.184v1.08c0,0.553,0.448,1,1,1s1-0.447,1-1v-1.08
		c0.192-0.028,0.381-0.061,0.568-0.104l0.389,1.005c0.154,0.396,0.532,0.639,0.933,0.639c0.121,0,0.243-0.021,0.361-0.067
		c0.515-0.2,0.771-0.779,0.571-1.294l-0.39-1.005c0.262-0.148,0.511-0.316,0.751-0.495l0.766,0.766
		c0.195,0.195,0.451,0.293,0.707,0.293s0.512-0.098,0.707-0.293c0.391-0.391,0.391-1.023,0-1.414l-0.766-0.766
		c0.115-0.154,0.225-0.312,0.327-0.475l0.989,0.437c0.131,0.058,0.269,0.085,0.403,0.085c0.384,0,0.75-0.223,0.916-0.597
		c0.223-0.505-0.006-1.096-0.511-1.318l-0.986-0.435c0.08-0.287,0.141-0.581,0.184-0.881H37c0.552,0,1-0.447,1-1s-0.448-1-1-1h-1.08
		c-0.028-0.192-0.061-0.382-0.104-0.568l1.004-0.389c0.515-0.199,0.771-0.778,0.572-1.294c-0.199-0.515-0.777-0.77-1.293-0.571
		l-1.006,0.389c-0.148-0.262-0.316-0.512-0.495-0.752l0.766-0.766c0.391-0.391,0.391-1.023,0-1.414s-1.023-0.391-1.414,0
		l-0.766,0.766c-0.154-0.115-0.311-0.224-0.474-0.327l0.437-0.989c0.223-0.505-0.005-1.096-0.51-1.319
		c-0.504-0.223-1.096,0.004-1.319,0.511l-0.436,0.987c-0.287-0.08-0.581-0.141-0.881-0.184v-1.08c0-0.553-0.448-1-1-1
		S28,21.225,28,21.778z M34,29.778c0,2.757-2.243,5-5,5s-5-2.243-5-5s2.243-5,5-5S34,27.021,34,29.778z"/>
</g>
<g>
</g>
<g>
</g>
<g>
</g>
<g>
</g>
<g>
</g>
<g>
</g>
<g>
</g>
<g>
</g>
<g>
</g>
<g>
</g>
<g>
</g>
<g>
</g>
<g>
</g>
<g>
</g>
<g>
</g>
</svg>
