<?xml version="1.0" encoding="iso-8859-1"?>
<!-- Generator: Adobe Illustrator 18.0.0, SVG Export Plug-In . SVG Version: 6.00 Build 0)  -->
<!DOCTYPE svg PUBLIC "-//W3C//DTD SVG 1.1//EN" "http://www.w3.org/Graphics/SVG/1.1/DTD/svg11.dtd">
<svg version="1.1" id="Capa_1" xmlns="http://www.w3.org/2000/svg" xmlns:xlink="http://www.w3.org/1999/xlink" x="0px" y="0px"
	 viewBox="0 0 60 60" style="enable-background:new 0 0 60 60;" xml:space="preserve">
<path d="M60,30c0-8.627-3.666-16.411-9.516-21.889c-0.023-0.027-0.04-0.058-0.065-0.082c-1.861-1.73-3.913-3.194-6.1-4.385
	c-0.028-0.015-0.057-0.03-0.085-0.046C43.849,3.39,43.461,3.191,43.068,3c-0.061-0.03-0.123-0.058-0.184-0.088
	c-0.361-0.172-0.724-0.337-1.092-0.494c-0.095-0.041-0.191-0.081-0.286-0.12c-0.335-0.139-0.672-0.273-1.012-0.4
	c-0.129-0.048-0.258-0.095-0.387-0.142c-0.31-0.111-0.623-0.217-0.937-0.318c-0.158-0.051-0.316-0.101-0.475-0.149
	c-0.29-0.088-0.582-0.17-0.875-0.249c-0.182-0.049-0.365-0.098-0.548-0.144c-0.276-0.069-0.554-0.132-0.833-0.193
	c-0.199-0.044-0.397-0.088-0.598-0.128c-0.272-0.054-0.545-0.1-0.819-0.147c-0.208-0.035-0.414-0.072-0.623-0.103
	c-0.278-0.041-0.558-0.073-0.838-0.107c-0.205-0.024-0.409-0.052-0.615-0.073c-0.314-0.031-0.629-0.051-0.944-0.072
	c-0.173-0.011-0.346-0.028-0.52-0.037C30.99,0.013,30.496,0,30,0c-0.714,0-1.419,0.034-2.121,0.083
	c-0.18,0.013-0.359,0.025-0.539,0.041c-0.665,0.059-1.326,0.134-1.978,0.235c-0.184,0.028-0.365,0.066-0.548,0.098
	C24.325,0.544,23.84,0.641,23.36,0.75c-0.247,0.056-0.495,0.109-0.74,0.171c-0.561,0.143-1.115,0.301-1.663,0.475
	c-0.293,0.093-0.582,0.194-0.872,0.296c-0.355,0.125-0.706,0.257-1.055,0.395c-0.42,0.166-0.836,0.34-1.249,0.525
	c-0.354,0.159-0.706,0.322-1.053,0.494c-0.288,0.143-0.574,0.288-0.858,0.44c-0.488,0.261-0.969,0.533-1.44,0.821
	c-0.25,0.153-0.496,0.316-0.742,0.476c-0.339,0.221-0.674,0.449-1.004,0.683c-0.166,0.118-0.34,0.222-0.504,0.343
	c-0.017,0.012-0.025,0.031-0.041,0.045C4.778,11.385,0,20.144,0,30c0,15.492,11.805,28.279,26.891,29.839
	c0.002,0,0.004,0.001,0.006,0.002c0.007,0.001,0.013,0.001,0.02,0.001C27.931,59.946,28.959,60,30,60
	c0.641,0,1.275-0.027,1.906-0.067c0.149-0.01,0.298-0.022,0.446-0.034c0.556-0.043,1.108-0.101,1.656-0.175
	c0.079-0.011,0.159-0.019,0.238-0.03c1.336-0.19,2.642-0.471,3.915-0.832c0.038-0.011,0.077-0.018,0.114-0.029
	c0.008-0.002,0.014-0.008,0.021-0.01C50.814,55.215,60,43.664,60,30z M49,11c0,4.963-4.037,9-9,9H19c-0.553,0-1,0.447-1,1
	s0.447,1,1,1h21c4.963,0,9,4.037,9,9s-4.037,9-9,9h-7H20c-0.553,0-1,0.447-1,1s0.447,1,1,1h13c2.206,0,4,1.794,4,4v11.109
	c-0.697,0.18-1.4,0.328-2.106,0.454c-0.067,0.012-0.133,0.025-0.2,0.036c-0.688,0.117-1.379,0.209-2.073,0.274
	c-0.089,0.008-0.18,0.013-0.269,0.021c-0.613,0.052-1.228,0.082-1.844,0.093c-0.113,0.002-0.225,0.008-0.339,0.009
	c-0.663,0.004-1.327-0.018-1.991-0.062c-0.059-0.004-0.118-0.009-0.177-0.014V51c0-0.553-0.447-1-1-1h-6c-4.963,0-9-4.037-9-9
	s4.037-9,9-9h21c0.553,0,1-0.447,1-1s-0.447-1-1-1H21c-4.963,0-9-4.037-9-9s4.037-9,9-9h21c0.553,0,1-0.447,1-1s-0.447-1-1-1H21
	c-2.615,0-5.087-1.146-6.79-3.108c0.161-0.11,0.324-0.216,0.487-0.323c0.308-0.202,0.617-0.4,0.932-0.589
	c0.268-0.161,0.54-0.316,0.814-0.469c0.246-0.137,0.495-0.267,0.744-0.396c0.444-0.23,0.896-0.448,1.353-0.654
	c0.252-0.114,0.505-0.227,0.76-0.333c0.295-0.123,0.593-0.24,0.894-0.353c0.289-0.108,0.582-0.209,0.875-0.307
	c0.407-0.137,0.818-0.266,1.234-0.385c0.339-0.097,0.678-0.19,1.02-0.274c0.252-0.062,0.506-0.121,0.761-0.176
	c0.493-0.106,0.99-0.202,1.49-0.281c0.165-0.026,0.331-0.048,0.496-0.072c0.507-0.071,1.017-0.128,1.53-0.172
	c0.177-0.015,0.355-0.029,0.533-0.041C28.752,2.029,29.374,2,30,2c0.461,0,0.918,0.013,1.374,0.035
	c0.16,0.008,0.32,0.023,0.48,0.033c0.294,0.019,0.588,0.039,0.88,0.067c0.189,0.018,0.376,0.043,0.565,0.065
	c0.261,0.031,0.522,0.062,0.781,0.1c0.195,0.029,0.389,0.062,0.583,0.095c0.252,0.042,0.504,0.086,0.754,0.135
	c0.188,0.037,0.374,0.078,0.561,0.118c0.258,0.056,0.515,0.115,0.771,0.178c0.172,0.043,0.344,0.088,0.516,0.134
	c0.271,0.073,0.541,0.149,0.809,0.23c0.151,0.045,0.301,0.092,0.451,0.14c0.294,0.094,0.586,0.193,0.875,0.297
	c0.119,0.042,0.239,0.085,0.357,0.129c0.326,0.122,0.649,0.25,0.97,0.383c0.08,0.033,0.161,0.066,0.241,0.1
	c0.368,0.157,0.732,0.322,1.092,0.494c0.032,0.015,0.064,0.03,0.096,0.045c2.443,1.182,4.689,2.708,6.675,4.516
	C48.943,9.871,49,10.443,49,11z M2,30c0-8.875,4.155-16.792,10.616-21.926c1.056,1.25,2.351,2.253,3.808,2.923
	C12.637,12.737,10,16.566,10,21c0,4.432,2.634,8.259,6.419,10C12.634,32.741,10,36.568,10,41c0,6.065,4.935,11,11,11h5v5.71
	C12.449,55.762,2,44.081,2,30z M39,56.508V46c0-1.535-0.58-2.938-1.531-4H40c6.065,0,11-4.935,11-11c0-4.432-2.634-8.259-6.419-10
	c3.645-1.677,6.215-5.289,6.401-9.512C55.344,16.427,58,22.908,58,30C58,42.291,50.036,52.75,39,56.508z"/>
<g>
</g>
<g>
</g>
<g>
</g>
<g>
</g>
<g>
</g>
<g>
</g>
<g>
</g>
<g>
</g>
<g>
</g>
<g>
</g>
<g>
</g>
<g>
</g>
<g>
</g>
<g>
</g>
<g>
</g>
</svg>
