<?xml version="1.0" encoding="iso-8859-1"?>
<!-- Generator: Adobe Illustrator 18.0.0, SVG Export Plug-In . SVG Version: 6.00 Build 0)  -->
<!DOCTYPE svg PUBLIC "-//W3C//DTD SVG 1.1//EN" "http://www.w3.org/Graphics/SVG/1.1/DTD/svg11.dtd">
<svg version="1.1" id="Capa_1" xmlns="http://www.w3.org/2000/svg" xmlns:xlink="http://www.w3.org/1999/xlink" x="0px" y="0px"
	 viewBox="0 0 57.983 57.983" style="enable-background:new 0 0 57.983 57.983;" xml:space="preserve">
<path d="M57.391,3.951c-0.499-0.61-1.236-0.96-2.022-0.96H14.262c-3.239,0-7.883,2.145-10.956,6.936
	c-3.679,5.735-6.131,16.771,2.999,36.798l-0.011,0.297c-0.018,0.529,0.189,1.044,0.567,1.411c0.35,0.342,0.822,0.532,1.309,0.532
	c0.036,0,0.073-0.002,0.109-0.004c2.481-0.143,9.644-1.035,13.703-6.289v11.319c0,0.553,0.447,1,1,1s1-0.447,1-1V39.013
	c0.001-0.002,0.001-0.003,0.002-0.005c0.021,0,0.044,0,0.066,0c0.259,0,0.574-0.005,0.932-0.017v15.001c0,0.553,0.447,1,1,1
	s1-0.447,1-1V38.853c5.934-0.595,16.96-3.399,19.096-15.84c6.472-4.292,10.463-9.974,11.853-16.902
	C58.085,5.345,57.888,4.558,57.391,3.951z M32.989,35.565c-3.725,1.3-7.326,1.451-8.87,1.447c0.44-1.731,1.998-3.021,3.864-3.021
	c0.553,0,1-0.447,1-1s-0.447-1-1-1c-2.527,0-4.69,1.573-5.573,3.789c-0.883-0.491-2.071-0.789-3.427-0.789c-0.553,0-1,0.447-1,1
	s0.447,1,1,1c0.655,0,1.201,0.089,1.649,0.213c-3.304,0.614-5.649,2.497-5.649,4.787c0,0.553,0.447,1,1,1c0.553,0,1-0.447,1-1
	c0-1.257,1.935-2.638,4.834-2.938c-2.854,6.64-10.816,7.729-13.52,7.903l0.072-2.16c0.023-0.131,0.05-0.265,0.079-0.401
	c0.016-0.076,0.035-0.155,0.054-0.233c0.014-0.058,0.027-0.116,0.041-0.176c0.026-0.104,0.055-0.21,0.084-0.318
	c0.009-0.031,0.017-0.063,0.026-0.095c0.037-0.129,0.076-0.26,0.119-0.393c0.002-0.006,0.004-0.012,0.006-0.018
	c1.317-4.079,5.457-9.947,18.029-13.186l-0.001-0.003c0.046-0.012,0.095-0.023,0.141-0.035l0,0.001
	c0.591-0.15,1.202-0.294,1.826-0.432l0.512-0.111c0.694-0.147,1.404-0.29,2.143-0.421c0.001,0,0.002,0,0.003,0
	c0.332-0.056,5.745-1.002,11.679-4.19c0.07-0.037,0.139-0.075,0.209-0.112c0.137-0.075,0.272-0.144,0.41-0.221
	C42.286,29.846,38.681,33.578,32.989,35.565z M55.971,5.718c-1.306,6.51-5.121,11.846-11.342,15.861
	c-0.725,0.469-1.488,0.916-2.277,1.345c-0.042,0.023-0.084,0.048-0.126,0.071c-0.791,0.426-1.613,0.83-2.464,1.214
	c-0.908,0.408-1.78,0.757-2.607,1.063c-0.599,0.223-1.201,0.433-1.806,0.627c-0.159,0.051-0.308,0.096-0.461,0.143
	c-0.632,0.195-1.266,0.377-1.901,0.54c-0.175,0.045-0.33,0.082-0.483,0.119l-0.499,0.116c-0.558,0.125-0.894,0.185-0.908,0.187
	l-0.011,0.002c-0.792,0.141-1.55,0.294-2.293,0.452l-0.446,0.097c-0.017,0.004-0.032,0.008-0.049,0.012
	c-0.598,0.133-1.182,0.27-1.748,0.414c-0.031,0.008-0.065,0.015-0.096,0.023c-0.001,0-0.146,0.036-0.146,0.036
	c-0.013,0.003-0.025,0.007-0.038,0.011c-0.805,0.208-1.576,0.428-2.318,0.657c-0.078,0.024-0.154,0.048-0.231,0.072
	C12.099,32.422,8.105,38.448,6.795,42.806c-0.003,0.009-0.006,0.018-0.009,0.026C-0.39,25.573,1.765,16.033,4.989,11.007
	c2.651-4.133,6.666-6.016,9.273-6.016h17.67c-0.514,6.701-6.119,12-12.949,12c-0.553,0-1,0.447-1,1s0.447,1,1,1
	c7.934,0,14.431-6.195,14.949-14h21.436c0.184,0,0.357,0.083,0.476,0.228C55.913,5.302,56.019,5.477,55.971,5.718z"/>
<g>
</g>
<g>
</g>
<g>
</g>
<g>
</g>
<g>
</g>
<g>
</g>
<g>
</g>
<g>
</g>
<g>
</g>
<g>
</g>
<g>
</g>
<g>
</g>
<g>
</g>
<g>
</g>
<g>
</g>
</svg>
