<?xml version="1.0" encoding="utf-8"?>
<!-- Generator: Adobe Illustrator 16.0.0, SVG Export Plug-In . SVG Version: 6.00 Build 0)  -->
<!DOCTYPE svg PUBLIC "-//W3C//DTD SVG 1.1//EN" "http://www.w3.org/Graphics/SVG/1.1/DTD/svg11.dtd">
<svg version="1.1" id="Layer_1" xmlns="http://www.w3.org/2000/svg" xmlns:xlink="http://www.w3.org/1999/xlink" x="0px" y="0px"
	 width="72px" height="72px" viewBox="0 0 72 72" enable-background="new 0 0 72 72" xml:space="preserve">
<g>
	<g>
		<path d="M18.787,69.824c-3.299,0-6.398-1.283-8.729-3.615l-4.268-4.266c-2.332-2.332-3.615-5.432-3.615-8.729
			c0-3.299,1.283-6.398,3.615-8.729L44.486,5.791c2.332-2.331,5.432-3.615,8.729-3.615s6.396,1.284,8.729,3.615l4.266,4.268
			c2.332,2.331,3.615,5.431,3.615,8.728s-1.283,6.396-3.615,8.728L27.514,66.209C25.184,68.541,22.084,69.824,18.787,69.824z
			 M53.215,6.175c-2.229,0-4.324,0.868-5.9,2.443L8.619,47.314c-1.576,1.576-2.443,3.67-2.443,5.9c0,2.229,0.867,4.324,2.443,5.9
			l4.268,4.266c1.576,1.576,3.67,2.443,5.9,2.443c2.229,0,4.322-0.867,5.898-2.443l38.695-38.696
			c1.576-1.576,2.443-3.671,2.443-5.899s-0.867-4.323-2.443-5.899l-4.266-4.268C57.539,7.043,55.443,6.175,53.215,6.175z"/>
	</g>
	<g>
		<path d="M49.971,34.679c-0.258,0-0.516-0.099-0.711-0.297L38.51,23.507c-0.389-0.393-0.385-1.026,0.008-1.414
			c0.395-0.39,1.027-0.386,1.414,0.008l10.75,10.875c0.389,0.393,0.385,1.026-0.008,1.414
			C50.479,34.583,50.225,34.679,49.971,34.679z"/>
	</g>
	<g>
		<path d="M32.971,51.68c-0.258,0-0.516-0.1-0.711-0.297L21.51,40.508c-0.389-0.393-0.385-1.027,0.008-1.414
			c0.395-0.391,1.027-0.387,1.414,0.008l10.75,10.875c0.389,0.393,0.385,1.025-0.008,1.414C33.479,51.584,33.225,51.68,32.971,51.68
			z"/>
	</g>
	<circle cx="35.783" cy="43.617" r="1.313"/>
	<circle cx="42.783" cy="35.617" r="1.313"/>
	<circle cx="28.783" cy="36.617" r="1.313"/>
	<circle cx="35.783" cy="28.617" r="1.313"/>
</g>
</svg>
