<?xml version="1.0" encoding="iso-8859-1"?>
<!-- Generator: Adobe Illustrator 18.0.0, SVG Export Plug-In . SVG Version: 6.00 Build 0)  -->
<!DOCTYPE svg PUBLIC "-//W3C//DTD SVG 1.1//EN" "http://www.w3.org/Graphics/SVG/1.1/DTD/svg11.dtd">
<svg version="1.1" id="Capa_1" xmlns="http://www.w3.org/2000/svg" xmlns:xlink="http://www.w3.org/1999/xlink" x="0px" y="0px"
	 viewBox="0 0 58 58" style="enable-background:new 0 0 58 58;" xml:space="preserve">
<path d="M54.969,37.474l-9.211-5.77c-0.408-0.255-0.642-0.678-0.642-1.16s0.233-0.904,0.642-1.159l9.211-5.77
	c1.573-0.986,2.052-3.069,1.066-4.643l-4.904-7.828c-0.48-0.768-1.233-1.3-2.118-1.499c-0.887-0.201-1.794-0.039-2.556,0.453
	l-7.35,4.718c-0.429,0.273-0.948,0.292-1.396,0.049C37.267,14.622,37,14.173,37,13.665V3.368C37,1.511,35.489,0,33.632,0h-9.264
	C22.511,0,21,1.511,21,3.368v10.354c0,0.505-0.264,0.953-0.705,1.197c-0.443,0.243-0.963,0.229-1.39-0.038l-7.379-4.623
	c-1.574-0.984-3.657-0.507-4.644,1.067l-4.918,7.85c-0.985,1.574-0.507,3.656,1.066,4.643l8.888,5.567
	c0.407,0.255,0.642,0.678,0.642,1.159s-0.234,0.904-0.643,1.159l-8.887,5.567c-1.573,0.986-2.052,3.069-1.066,4.643l4.918,7.851
	c0.986,1.574,3.068,2.052,4.644,1.066l7.378-4.623c0.43-0.269,0.948-0.282,1.391-0.038C20.736,46.414,21,46.861,21,47.366v7.266
	C21,56.489,22.511,58,24.368,58h9.264C35.489,58,37,56.489,37,54.632V47.36c0-0.51,0.268-0.959,0.716-1.203
	c0.444-0.243,0.968-0.225,1.397,0.055l7.336,4.76c0.763,0.495,1.671,0.66,2.562,0.463c0.888-0.197,1.643-0.73,2.126-1.501
	l4.898-7.818C57.021,40.542,56.542,38.46,54.969,37.474z M54.34,41.055l-4.898,7.818c-0.196,0.313-0.503,0.53-0.863,0.61
	s-0.729,0.013-1.041-0.188l-7.335-4.76c-1.053-0.683-2.338-0.733-3.441-0.134C35.658,44.999,35,46.105,35,47.36v7.272
	C35,55.386,34.387,56,33.632,56h-9.264C23.613,56,23,55.386,23,54.632v-7.266c0-1.243-0.649-2.345-1.736-2.947
	c-0.517-0.286-1.076-0.428-1.635-0.428c-0.617,0-1.232,0.174-1.786,0.521l-7.379,4.623c-0.637,0.4-1.485,0.208-1.886-0.433
	L3.66,40.852c-0.194-0.31-0.256-0.676-0.174-1.033c0.082-0.356,0.297-0.659,0.607-0.853l8.886-5.567
	c0.99-0.62,1.581-1.687,1.581-2.854s-0.591-2.235-1.58-2.854l-8.887-5.567c-0.64-0.4-0.834-1.247-0.434-1.886l4.918-7.85
	c0.401-0.639,1.248-0.834,1.886-0.433l7.38,4.623c1.054,0.661,2.333,0.695,3.42,0.092C22.351,16.066,23,14.965,23,13.722V3.368
	C23,2.614,23.613,2,24.368,2h9.264C34.387,2,35,2.614,35,3.368v10.297c0,1.251,0.655,2.356,1.754,2.956
	c1.098,0.6,2.382,0.554,3.434-0.122l7.35-4.718c0.31-0.198,0.677-0.264,1.039-0.184c0.359,0.08,0.664,0.296,0.859,0.608l4.904,7.828
	c0.4,0.639,0.206,1.485-0.434,1.886l-9.211,5.771c-0.988,0.62-1.579,1.687-1.579,2.854s0.591,2.234,1.579,2.854l9.211,5.771
	C54.546,39.569,54.74,40.416,54.34,41.055z"/>
<g>
</g>
<g>
</g>
<g>
</g>
<g>
</g>
<g>
</g>
<g>
</g>
<g>
</g>
<g>
</g>
<g>
</g>
<g>
</g>
<g>
</g>
<g>
</g>
<g>
</g>
<g>
</g>
<g>
</g>
</svg>
