<?xml version="1.0" encoding="utf-8"?>
<!-- Generator: Adobe Illustrator 16.0.0, SVG Export Plug-In . SVG Version: 6.00 Build 0)  -->
<!DOCTYPE svg PUBLIC "-//W3C//DTD SVG 1.1//EN" "http://www.w3.org/Graphics/SVG/1.1/DTD/svg11.dtd">
<svg version="1.1" id="Layer_1" xmlns="http://www.w3.org/2000/svg" xmlns:xlink="http://www.w3.org/1999/xlink" x="0px" y="0px"
	 width="72px" height="72px" viewBox="0 0 72 72" enable-background="new 0 0 72 72" xml:space="preserve">
<g>
	<g>
		<path d="M48.5,36c0-4.688,3.813-8.5,8.5-8.5s8.5,3.813,8.5,8.5c0,4.687-3.813,8.5-8.5,8.5S48.5,40.687,48.5,36z M61.5,36
			c0-2.481-2.019-4.5-4.5-4.5s-4.5,2.019-4.5,4.5s2.019,4.5,4.5,4.5S61.5,38.481,61.5,36z"/>
	</g>
	<g>
		<path d="M27.5,36c0-4.688,3.813-8.5,8.5-8.5s8.5,3.813,8.5,8.5c0,4.687-3.813,8.5-8.5,8.5S27.5,40.687,27.5,36z M40.5,36
			c0-2.481-2.019-4.5-4.5-4.5s-4.5,2.019-4.5,4.5s2.019,4.5,4.5,4.5S40.5,38.481,40.5,36z"/>
	</g>
	<g>
		<path d="M6.5,36c0-4.688,3.813-8.5,8.5-8.5s8.5,3.813,8.5,8.5c0,4.687-3.813,8.5-8.5,8.5S6.5,40.687,6.5,36z M19.5,36
			c0-2.481-2.019-4.5-4.5-4.5s-4.5,2.019-4.5,4.5s2.019,4.5,4.5,4.5S19.5,38.481,19.5,36z"/>
	</g>
</g>
</svg>
