<?xml version="1.0" encoding="iso-8859-1"?>
<!-- Generator: Adobe Illustrator 18.0.0, SVG Export Plug-In . SVG Version: 6.00 Build 0)  -->
<!DOCTYPE svg PUBLIC "-//W3C//DTD SVG 1.1//EN" "http://www.w3.org/Graphics/SVG/1.1/DTD/svg11.dtd">
<svg version="1.1" id="Capa_1" xmlns="http://www.w3.org/2000/svg" xmlns:xlink="http://www.w3.org/1999/xlink" x="0px" y="0px"
	 viewBox="0 0 60 60" style="enable-background:new 0 0 60 60;" xml:space="preserve">
<g>
	<path d="M16,18.5c0,2.481,2.019,4.5,4.5,4.5s4.5-2.019,4.5-4.5S22.981,14,20.5,14S16,16.019,16,18.5z M20.5,16
		c1.379,0,2.5,1.121,2.5,2.5S21.879,21,20.5,21S18,19.879,18,18.5S19.121,16,20.5,16z"/>
	<path d="M20.5,27c-2.481,0-4.5,2.019-4.5,4.5s2.019,4.5,4.5,4.5s4.5-2.019,4.5-4.5S22.981,27,20.5,27z M20.5,34
		c-1.379,0-2.5-1.121-2.5-2.5s1.121-2.5,2.5-2.5s2.5,1.121,2.5,2.5S21.879,34,20.5,34z"/>
	<path d="M20.5,40c-2.481,0-4.5,2.019-4.5,4.5s2.019,4.5,4.5,4.5s4.5-2.019,4.5-4.5S22.981,40,20.5,40z M20.5,47
		c-1.379,0-2.5-1.121-2.5-2.5s1.121-2.5,2.5-2.5s2.5,1.121,2.5,2.5S21.879,47,20.5,47z"/>
	<path d="M28,18h15c0.553,0,1-0.447,1-1s-0.447-1-1-1H28c-0.553,0-1,0.447-1,1S27.447,18,28,18z"/>
	<path d="M28,22h15c0.553,0,1-0.447,1-1s-0.447-1-1-1H28c-0.553,0-1,0.447-1,1S27.447,22,28,22z"/>
	<path d="M28,31h15c0.553,0,1-0.447,1-1s-0.447-1-1-1H28c-0.553,0-1,0.447-1,1S27.447,31,28,31z"/>
	<path d="M28,35h15c0.553,0,1-0.447,1-1s-0.447-1-1-1H28c-0.553,0-1,0.447-1,1S27.447,35,28,35z"/>
	<path d="M28,44h15c0.553,0,1-0.447,1-1s-0.447-1-1-1H28c-0.553,0-1,0.447-1,1S27.447,44,28,44z"/>
	<path d="M28,48h15c0.553,0,1-0.447,1-1s-0.447-1-1-1H28c-0.553,0-1,0.447-1,1S27.447,48,28,48z"/>
	<path d="M52,3h-9V1c0-0.553-0.447-1-1-1H19c-0.553,0-1,0.447-1,1v2H8C7.447,3,7,3.447,7,4v55c0,0.553,0.447,1,1,1h44
		c0.553,0,1-0.447,1-1V4C53,3.447,52.553,3,52,3z M19,11h23c0.553,0,1-0.447,1-1V9h4v45H13V9h5v1C18,10.553,18.447,11,19,11z M20,2
		h21v2v4v1H20V8V4V2z M51,58H9V5h9v2h-6c-0.553,0-1,0.447-1,1v47c0,0.553,0.447,1,1,1h36c0.553,0,1-0.447,1-1V8c0-0.553-0.447-1-1-1
		h-5V5h8V58z"/>
	<path d="M23,6h15c0.553,0,1-0.447,1-1s-0.447-1-1-1H23c-0.553,0-1,0.447-1,1S22.447,6,23,6z"/>
</g>
<g>
</g>
<g>
</g>
<g>
</g>
<g>
</g>
<g>
</g>
<g>
</g>
<g>
</g>
<g>
</g>
<g>
</g>
<g>
</g>
<g>
</g>
<g>
</g>
<g>
</g>
<g>
</g>
<g>
</g>
</svg>
