<?xml version="1.0" encoding="iso-8859-1"?>
<!-- Generator: Adobe Illustrator 18.0.0, SVG Export Plug-In . SVG Version: 6.00 Build 0)  -->
<!DOCTYPE svg PUBLIC "-//W3C//DTD SVG 1.1//EN" "http://www.w3.org/Graphics/SVG/1.1/DTD/svg11.dtd">
<svg version="1.1" id="Capa_1" xmlns="http://www.w3.org/2000/svg" xmlns:xlink="http://www.w3.org/1999/xlink" x="0px" y="0px"
	 viewBox="0 0 58.118 58.118" style="enable-background:new 0 0 58.118 58.118;" xml:space="preserve">
<g>
	<path d="M58.099,47.214l0.019-0.348l-0.006-0.006c0.004-0.195,0-0.395-0.005-0.598l0.01-0.01l-0.019-0.308
		c-0.021-0.407-0.065-0.826-0.129-1.255c-0.011-0.076-0.025-0.15-0.037-0.226c-0.048-0.286-0.107-0.575-0.177-0.868
		c-0.023-0.098-0.046-0.196-0.071-0.294c-0.072-0.273-0.158-0.55-0.252-0.828c-0.031-0.091-0.057-0.183-0.089-0.274
		c-0.128-0.354-0.271-0.711-0.438-1.071c-1.88-4.055-1.907-9.524-1.907-9.579v-1.976v-2.828v-4.687v-10h-2v-12h-19v12h-2v8.687
		v1.313v1.515v6.68c0,1.553-0.98,2.952-2.439,3.483l-3.351,1.218l0,0l-14.834,5.395l0,0l-1.375,0.5v2.21L4.242,43.06
		c-0.26-0.013-2.53-0.038-3.662,1.472c-0.448,0.599-0.867,1.661-0.321,3.329c0.766,2.336,4.412,5.765,9.738,7.742v1.664l0.68,0.229
		c1.187,0.401,2.425,0.563,3.707,0.563c2.565,0,5.303-0.648,8.146-1.322l0.908-0.215c0.529-0.124,1.047-0.238,1.558-0.345
		l0.108-0.022c0.119-0.025,0.234-0.045,0.352-0.068c2.806-0.561,5.343-0.863,7.673-1c0.008,0,0.017-0.001,0.026-0.002
		c0.77-0.045,1.517-0.072,2.245-0.085c0.025,0,0.05-0.001,0.075-0.002c0.718-0.012,1.417-0.01,2.099,0.001
		c0.028,0,0.055,0.001,0.083,0.001c0.682,0.013,1.349,0.035,1.999,0.064c0.016,0.001,0.032,0.001,0.048,0.002
		c1.329,0.06,2.599,0.148,3.827,0.232l3.246,0.223l-0.023-0.023c0.41,0.02,0.814,0.037,1.216,0.048
		c0.23,0.006,0.454,0.01,0.672,0.01c0.114,0,0.215-0.007,0.325-0.008c0.133-0.002,0.264-0.006,0.393-0.01
		c0.258-0.009,0.506-0.022,0.746-0.04c0.089-0.007,0.177-0.014,0.263-0.022c0.262-0.024,0.513-0.052,0.754-0.086
		c0.058-0.008,0.116-0.016,0.172-0.025c0.255-0.039,0.498-0.083,0.73-0.131c0.038-0.008,0.076-0.016,0.113-0.024
		c0.24-0.053,0.468-0.111,0.684-0.173c0.025-0.007,0.05-0.014,0.075-0.021c0.22-0.065,0.428-0.135,0.624-0.208
		c0.018-0.007,0.036-0.013,0.053-0.019c0.198-0.076,0.384-0.154,0.558-0.236c0.012-0.006,0.025-0.011,0.037-0.017
		c0.175-0.083,0.338-0.169,0.491-0.256c0.01-0.006,0.021-0.011,0.031-0.017c0.151-0.088,0.292-0.177,0.423-0.268
		c0.009-0.006,0.018-0.012,0.027-0.018c0.128-0.09,0.246-0.179,0.356-0.27c0.01-0.008,0.02-0.016,0.029-0.023
		c0.106-0.088,0.203-0.175,0.293-0.262c0.01-0.01,0.022-0.02,0.032-0.029c0.086-0.084,0.164-0.167,0.237-0.248
		c0.011-0.012,0.023-0.024,0.033-0.035c0.069-0.078,0.131-0.154,0.189-0.228c0.01-0.013,0.023-0.027,0.033-0.04
		c0.054-0.071,0.102-0.138,0.147-0.203c0.01-0.014,0.022-0.029,0.031-0.043c0.043-0.063,0.08-0.12,0.115-0.176
		c0.008-0.013,0.019-0.028,0.027-0.041c0.041-0.066,0.077-0.127,0.109-0.18l0.055-0.091c0.043-0.064,0.094-0.152,0.148-0.253
		c0.004-0.008,0.008-0.017,0.012-0.024C57.381,51.082,57.996,49.396,58.099,47.214z M55.569,43.203
		c0.023,0.071,0.046,0.141,0.067,0.212c0.128,0.422,0.237,0.849,0.313,1.282l-0.964-0.964l-7.074-7.074l5.086-5.086
		c0,0.01,0,0.037,0.001,0.052c0,0.016,0,0.024,0,0.045c0,0.039,0.002,0.088,0.003,0.147c0.001,0.032,0.001,0.059,0.002,0.096
		c0.002,0.06,0.004,0.129,0.007,0.202c0.002,0.048,0.003,0.092,0.005,0.146c0.003,0.077,0.007,0.161,0.012,0.249
		c0.003,0.064,0.006,0.124,0.01,0.193c0.005,0.092,0.012,0.191,0.018,0.291c0.005,0.08,0.01,0.156,0.016,0.241
		c0.008,0.105,0.017,0.218,0.026,0.331c0.007,0.089,0.014,0.175,0.023,0.269c0.011,0.12,0.024,0.246,0.037,0.373
		c0.01,0.1,0.02,0.197,0.031,0.301c0.014,0.129,0.031,0.264,0.048,0.399c0.013,0.109,0.026,0.216,0.041,0.328
		c0.019,0.14,0.04,0.285,0.062,0.429c0.017,0.115,0.032,0.228,0.051,0.347c0.023,0.148,0.05,0.299,0.077,0.451
		c0.021,0.121,0.04,0.24,0.063,0.364c0.029,0.156,0.062,0.315,0.094,0.474c0.025,0.122,0.048,0.243,0.074,0.366
		c0.036,0.165,0.077,0.332,0.116,0.499c0.029,0.121,0.055,0.241,0.086,0.362c0.043,0.171,0.092,0.343,0.14,0.515
		c0.033,0.118,0.063,0.237,0.097,0.355c0.054,0.183,0.114,0.365,0.173,0.547c0.035,0.107,0.066,0.215,0.103,0.322
		c0.068,0.198,0.143,0.394,0.217,0.59c0.034,0.09,0.065,0.181,0.1,0.271c0.113,0.284,0.233,0.565,0.361,0.841
		C55.277,42.373,55.432,42.785,55.569,43.203z M46.498,35.245L35.311,24.059h17.687v4.687L46.498,35.245z M35.998,7.549
		c0.552,0,1-0.448,1-1c0-0.552-0.448-1-1-1V2.059h15v10h-15V7.549z M52.998,14.059v8h-19v-8H52.998z M33.998,30.253v-4.68
		L56.063,47.64c-0.086,0.901-0.27,1.664-0.451,2.239c-0.183,0.572-0.358,0.942-0.419,1.064c-0.009,0.016-0.021,0.04-0.027,0.05
		c-0.031,0.047-0.068,0.106-0.111,0.179c-0.628,1.052-1.789,1.765-3.464,2.122c-0.034,0.007-0.075,0.011-0.11,0.018
		c-0.303,0.061-0.617,0.115-0.952,0.153c-0.752,0.086-1.587,0.114-2.503,0.084c-0.69-0.02-1.386-0.054-2.094-0.096
		c-0.041-0.002-0.081-0.005-0.123-0.007c-0.318-0.019-0.649-0.042-0.973-0.064l-16.921-16.92l2.327-0.847
		C32.488,34.798,33.998,32.643,33.998,30.253z M39.926,53.076c-0.021-0.001-0.043-0.002-0.064-0.003
		c-2.887-0.136-6.049-0.146-9.698,0.257c-0.013,0.001-0.027,0.003-0.041,0.005c-1.428,0.159-2.933,0.383-4.524,0.687
		c-0.036,0.007-0.07,0.011-0.106,0.018L13.248,41.795l7.476-2.719l4.969-1.807l15.898,15.898
		C41.047,53.133,40.49,53.103,39.926,53.076z M2.16,47.237c-0.223-0.681-0.217-1.187,0.019-1.503
		c0.415-0.558,1.527-0.677,1.979-0.677c0.019,0,0.036,0.001,0.053,0.001h5.788v8.404C5.44,51.603,2.652,48.739,2.16,47.237z
		 M22.068,54.791c-3.682,0.872-7.176,1.7-10.071,1.006V43.372l11.163,11.163c-0.061,0.014-0.119,0.026-0.18,0.04L22.068,54.791z"/>
	<circle cx="37.998" cy="3.549" r="1"/>
	<circle cx="40.998" cy="5.549" r="1"/>
	<circle cx="38.998" cy="8.549" r="1"/>
</g>
<g>
</g>
<g>
</g>
<g>
</g>
<g>
</g>
<g>
</g>
<g>
</g>
<g>
</g>
<g>
</g>
<g>
</g>
<g>
</g>
<g>
</g>
<g>
</g>
<g>
</g>
<g>
</g>
<g>
</g>
</svg>
