<?xml version="1.0" encoding="iso-8859-1"?>
<!-- Generator: Adobe Illustrator 18.0.0, SVG Export Plug-In . SVG Version: 6.00 Build 0)  -->
<!DOCTYPE svg PUBLIC "-//W3C//DTD SVG 1.1//EN" "http://www.w3.org/Graphics/SVG/1.1/DTD/svg11.dtd">
<svg version="1.1" id="Capa_1" xmlns="http://www.w3.org/2000/svg" xmlns:xlink="http://www.w3.org/1999/xlink" x="0px" y="0px"
	 viewBox="0 0 59.994 59.994" style="enable-background:new 0 0 59.994 59.994;" xml:space="preserve">
<g>
	<circle cx="14.997" cy="33.994" r="1"/>
	<circle cx="53.997" cy="53.994" r="1"/>
	<path d="M13.997,27.987c3.585,0,7.17-1.365,9.899-4.094c5.458-5.458,5.458-14.34,0-19.799c-5.458-5.459-14.341-5.459-19.799,0
		c-5.458,5.458-5.458,14.34,0,19.799C6.826,26.623,10.412,27.987,13.997,27.987z M5.511,5.508C7.851,3.169,10.924,2,13.997,2
		s6.146,1.169,8.485,3.509c4.679,4.679,4.679,12.292,0,16.971s-12.292,4.679-16.971,0S0.833,10.187,5.511,5.508z"/>
	<path d="M30.997,31.994c-7.72,0-14,6.28-14,14s6.28,14,14,14s14-6.28,14-14S38.717,31.994,30.997,31.994z M30.997,57.994
		c-6.617,0-12-5.383-12-12s5.383-12,12-12s12,5.383,12,12S37.614,57.994,30.997,57.994z"/>
	<path d="M55.896,8.094c-5.458-5.459-14.341-5.459-19.799,0c-5.458,5.458-5.458,14.34,0,19.799c2.729,2.729,6.314,4.094,9.899,4.094
		s7.17-1.365,9.899-4.094C61.355,22.435,61.355,13.553,55.896,8.094z M37.511,26.479c-4.679-4.679-4.679-12.292,0-16.971
		C39.851,7.169,42.924,6,45.997,6s6.146,1.169,8.485,3.509c4.679,4.679,4.679,12.292,0,16.971S42.19,31.158,37.511,26.479z"/>
	<path d="M7.633,21.357c0.256,0,0.512-0.098,0.707-0.293L21.068,8.337c0.391-0.391,0.391-1.023,0-1.414s-1.023-0.391-1.414,0
		L6.926,19.65c-0.391,0.391-0.391,1.023,0,1.414C7.121,21.26,7.377,21.357,7.633,21.357z"/>
	<path d="M40.34,10.923c-0.391-0.391-1.023-0.391-1.414,0s-0.391,1.023,0,1.414l12.728,12.728c0.195,0.195,0.451,0.293,0.707,0.293
		s0.512-0.098,0.707-0.293c0.391-0.391,0.391-1.023,0-1.414L40.34,10.923z"/>
	<path d="M30.997,35.994c-0.552,0-1,0.448-1,1v18c0,0.552,0.448,1,1,1s1-0.448,1-1v-18C31.997,36.441,31.549,35.994,30.997,35.994z"
		/>
	<path d="M9.997,48.994h-3v-3c0-0.552-0.448-1-1-1s-1,0.448-1,1v3h-3c-0.552,0-1,0.448-1,1s0.448,1,1,1h3v3c0,0.552,0.448,1,1,1
		s1-0.448,1-1v-3h3c0.552,0,1-0.448,1-1S10.549,48.994,9.997,48.994z"/>
	<path d="M57.532,34.63c-0.391-0.391-1.023-0.391-1.414,0l-2.122,2.121l-2.122-2.121c-0.391-0.391-1.023-0.391-1.414,0
		s-0.391,1.023,0,1.414l2.122,2.121l-2.122,2.121c-0.391,0.391-0.391,1.023,0,1.414c0.195,0.195,0.451,0.293,0.707,0.293
		s0.512-0.098,0.707-0.293l2.122-2.121l2.122,2.121c0.195,0.195,0.451,0.293,0.707,0.293s0.512-0.098,0.707-0.293
		c0.391-0.391,0.391-1.023,0-1.414l-2.122-2.121l2.122-2.121C57.923,35.653,57.923,35.021,57.532,34.63z"/>
</g>
<g>
</g>
<g>
</g>
<g>
</g>
<g>
</g>
<g>
</g>
<g>
</g>
<g>
</g>
<g>
</g>
<g>
</g>
<g>
</g>
<g>
</g>
<g>
</g>
<g>
</g>
<g>
</g>
<g>
</g>
</svg>
