<?xml version="1.0" encoding="iso-8859-1"?>
<!-- Generator: Adobe Illustrator 18.0.0, SVG Export Plug-In . SVG Version: 6.00 Build 0)  -->
<!DOCTYPE svg PUBLIC "-//W3C//DTD SVG 1.1//EN" "http://www.w3.org/Graphics/SVG/1.1/DTD/svg11.dtd">
<svg version="1.1" id="Capa_1" xmlns="http://www.w3.org/2000/svg" xmlns:xlink="http://www.w3.org/1999/xlink" x="0px" y="0px"
	 viewBox="0 0 60 60" style="enable-background:new 0 0 60 60;" xml:space="preserve">
<g>
	<path d="M54.769,16.652c-0.818-3.094-3.213-6.048-6.742-8.317c-4.35-2.796-10.498-3.108-16.046-0.813l-0.192,0.082
		c-0.095,0.041-0.188,0.082-0.281,0.114c-0.466,0.162-0.822,0.3-1.113,0.413c-0.922,0.359-0.923,0.358-2.524-0.114l-0.364-0.105
		c-0.798-0.23-1.669-0.221-2.454,0.028l-0.615,0.194L22.552,23.99l1.986,0.236l1.721-14.481c0.234-0.006,0.467,0.023,0.693,0.088
		l0.435,0.126c1.993,0.588,2.308,0.591,3.73,0.036c0.273-0.105,0.608-0.235,1.047-0.388c0.141-0.049,0.28-0.108,0.421-0.169
		l0.16-0.069c4.953-2.047,10.396-1.801,14.2,0.647c3.108,1.999,5.2,4.537,5.891,7.147c1.94,7.334,0.146,14.22-1.756,21.511
		c-0.495,1.898-1.007,3.861-1.448,5.833l-0.288,1.303c-0.78,3.553-1.587,7.228-3.396,10.397c-0.608,1.064-1.24,1.697-1.646,1.631
		c-0.459-0.047-1.724-0.771-3.569-6.456c-0.269-0.827-0.497-1.702-0.739-2.63c-0.789-3.02-1.673-6.394-4.243-8.563
		c-0.01-0.009-0.021-0.016-0.031-0.025c-0.333-0.278-0.69-0.538-1.082-0.772c-0.004-0.002-0.007-0.006-0.011-0.008
		c-3.299-1.966-6.96-1.17-9.9,2.017c-0.462,0.501-0.908,1.055-1.331,1.673c-1.732,2.533-2.694,5.355-3.623,8.084
		c-0.361,1.06-0.734,2.155-1.146,3.21c-0.641,1.643-1.239,2.962-2.512,3.608c-1.134-0.283-2.345-3.231-2.814-4.375l-0.121-0.295
		c-3.845-9.283-5.034-17.192-6.54-27.206l-0.033-0.221C5.598,19.19,7.644,11.355,14.494,8.889l0.054-0.019
		c0.565-0.193,1.213-0.055,1.705,0.341l-1.646,13.854l1.986,0.236l1.755-14.767l-0.278-0.332c-1.026-1.222-2.684-1.715-4.13-1.238
		l-0.073,0.024C8.136,9.02,3.057,15.74,4.628,26.179L4.661,26.4c1.527,10.148,2.733,18.164,6.671,27.674l0.119,0.289
		C12.316,56.472,13.765,60,16.288,60h0.203l0.187-0.079c2.313-0.979,3.18-3.202,3.813-4.824c0.427-1.096,0.808-2.212,1.175-3.291
		c0.483-1.417,0.954-2.792,1.516-4.112c1.27,2.585,3.865,6.799,7.292,6.799c0.401,0,0.815-0.059,1.239-0.184
		c2.255-0.668,3.385-2.996,4.21-4.695l0.066-0.137c0.173-0.356,0.394-0.769,0.631-1.215c0.239-0.449,0.5-0.948,0.756-1.46
		c0.25,0.806,0.468,1.635,0.682,2.457c0.239,0.914,0.486,1.859,0.772,2.741c1.21,3.729,2.782,7.573,5.267,7.829
		c1.328,0.131,2.517-0.752,3.588-2.63c1.96-3.435,2.8-7.261,3.612-10.96l0.286-1.294c0.435-1.938,0.941-3.884,1.433-5.766
		C54.897,31.96,56.844,24.494,54.769,16.652z M34.853,47.322c-0.25,0.471-0.48,0.904-0.664,1.28l-0.066,0.138
		c-0.7,1.441-1.57,3.234-2.979,3.651c-3.328,1-6.391-6.003-6.729-6.804l-0.088-0.211c0.11-0.196,0.215-0.373,0.32-0.546
		c0.108-0.175,0.218-0.35,0.333-0.522c0.022-0.033,0.045-0.072,0.068-0.104c1.047-1.533,3.652-4.639,7.05-3.746
		c0.486,0.128,0.988,0.338,1.505,0.645c0.322,0.192,0.614,0.411,0.887,0.646c0.095,0.082,0.182,0.177,0.273,0.266
		c0.163,0.157,0.323,0.317,0.469,0.489c0.127,0.15,0.247,0.313,0.365,0.479c0.085,0.118,0.171,0.235,0.25,0.357
		c0.157,0.245,0.308,0.505,0.452,0.783c0.017,0.033,0.035,0.065,0.052,0.098C35.96,45.244,35.376,46.341,34.853,47.322z"/>
	<path d="M17.67,7h2.877l-3.256,28H14.67v2h2.388l-0.116,1H14.46v2h2.249l-0.116,1h-2.342v2h2.109l-0.116,1h-2.203v2h1.971l-0.116,1
		h-2.063v2h1.831l-0.452,3.885c-0.063,0.548,0.329,1.045,0.878,1.108C16.128,53.998,16.167,54,16.205,54
		c0.501,0,0.933-0.375,0.992-0.885L17.676,49h2.156v-2h-1.924l0.116-1h2.016v-2h-1.784l0.116-1h1.877v-2h-1.645l0.116-1h1.738v-2
		h-1.505l0.116-1h1.599v-2h-1.366L22.56,7h3.11V2h1V0h-1h-8h-1v2h1V7z M23.67,2v3h-4V2H23.67z"/>
</g>
<g>
</g>
<g>
</g>
<g>
</g>
<g>
</g>
<g>
</g>
<g>
</g>
<g>
</g>
<g>
</g>
<g>
</g>
<g>
</g>
<g>
</g>
<g>
</g>
<g>
</g>
<g>
</g>
<g>
</g>
</svg>
