<?xml version="1.0" encoding="utf-8"?>
<!-- Generator: Adobe Illustrator 16.0.0, SVG Export Plug-In . SVG Version: 6.00 Build 0)  -->
<!DOCTYPE svg PUBLIC "-//W3C//DTD SVG 1.1//EN" "http://www.w3.org/Graphics/SVG/1.1/DTD/svg11.dtd">
<svg version="1.1" id="Layer_1" xmlns="http://www.w3.org/2000/svg" xmlns:xlink="http://www.w3.org/1999/xlink" x="0px" y="0px"
	 width="72px" height="72px" viewBox="0 0 72 72" enable-background="new 0 0 72 72" xml:space="preserve">
<g>
	<path d="M42.834,8.709c-10.745,0-20.313,6.201-24.723,15.907c-4.552,0.568-8.148,4.259-8.57,8.854C4.925,36.373,2,41.623,2,47.166
		c0,8.891,7.178,16.125,16,16.125h25c0.184,0,0.455-0.027,0.752-0.146C58.275,62.656,70,50.539,70,35.875
		C70,20.896,57.813,8.709,42.834,8.709z M43.168,59.158c-0.177,0-0.434,0.025-0.718,0.133H18c-6.617,0-12-5.439-12-12.125
		c0-4.48,2.528-8.703,6.443-10.753c0.679-0.357,1.095-1.07,1.07-1.837l-0.013-0.2c0-3.217,2.617-5.834,5.751-5.836
		c0.05,0.002,0.161,0.009,0.21,0.008c0.816,0,1.553-0.497,1.857-1.258c3.538-8.857,11.984-14.581,21.516-14.581
		C55.607,12.709,66,23.102,66,35.875C66,48.549,55.746,58.994,43.168,59.158z"/>
	<path d="M61.741,32.416c-0.058-0.549-0.563-0.946-1.099-0.883c-0.551,0.057-0.949,0.564-0.891,1.113
		c0.055,0.51,0.081,1.063,0.082,1.588c0.001,0.553,0.448,1.057,1,1.057c0.001,0,0.001,0,0.003,0c0.552,0,0.999-0.504,0.998-1.057
		C61.834,33.641,61.803,32.992,61.741,32.416z"/>
	<path d="M59.783,26.149c-2.938-5.352-8.551-8.677-14.65-8.677c-0.553,0-1,0.447-1,1c0,0.553,0.447,1,1,1
		c5.369,0,10.311,2.927,12.896,7.64c0.183,0.331,0.523,0.519,0.878,0.519c0.161,0,0.327-0.04,0.479-0.124
		C59.871,27.242,60.049,26.633,59.783,26.149z"/>
	<path d="M40.74,29.11c-0.907-1.157-2.186-1.821-3.506-1.821c-1.296,0-2.493,0.616-3.38,1.746L26.28,38.99
		c-0.969,1.236-1.222,2.57-0.693,3.658c0.509,1.045,1.646,1.645,3.124,1.645H32.5c0.553,0,1-0.447,1-1s-0.447-1-1-1h-3.79
		c-0.672,0-1.168-0.193-1.325-0.52c-0.176-0.362,0.003-0.957,0.478-1.562l7.574-9.955c0.49-0.625,1.127-0.969,1.797-0.969
		c0.711,0,1.398,0.375,1.927,1.049l7.588,9.845c0.47,0.598,0.647,1.203,0.465,1.578c-0.164,0.338-0.646,0.531-1.321,0.531H41.5
		c-0.553,0-0.295,0.447-0.295,1v4.025c0,2.187-1.859,3.899-3.813,3.899c-1.529,0-3.003-0.778-3.557-2.194
		c-0.201-0.516-0.736-0.77-1.252-0.568c-0.513,0.201-0.68,0.781-0.479,1.297c0.862,2.203,2.893,3.467,5.267,3.467
		c3.073,0,5.833-2.592,5.833-5.9v-3.024h2.688c1.471,0,2.608-0.603,3.121-1.655c0.527-1.087,0.269-2.468-0.687-3.683L40.74,29.11z"
		/>
	<path d="M33,47.041c0.26,0,0.52-0.111,0.71-0.291c0.18-0.189,0.29-0.449,0.29-0.709s-0.11-0.521-0.29-0.711
		c-0.38-0.369-1.05-0.369-1.42,0C32.109,45.52,32,45.781,32,46.041s0.109,0.52,0.29,0.709C32.479,46.93,32.74,47.041,33,47.041z"/>
</g>
</svg>
