<?xml version="1.0" encoding="iso-8859-1"?>
<!-- Generator: Adobe Illustrator 18.0.0, SVG Export Plug-In . SVG Version: 6.00 Build 0)  -->
<!DOCTYPE svg PUBLIC "-//W3C//DTD SVG 1.1//EN" "http://www.w3.org/Graphics/SVG/1.1/DTD/svg11.dtd">
<svg version="1.1" id="Capa_1" xmlns="http://www.w3.org/2000/svg" xmlns:xlink="http://www.w3.org/1999/xlink" x="0px" y="0px"
	 viewBox="0 0 60 60" style="enable-background:new 0 0 60 60;" xml:space="preserve">
<g>
	<path d="M47.218,41.878c-1.208-1.845-4.506-2.621-6.241-2.346c-1.367,0.212-2.626-0.215-3.383-1.152l-0.715-0.885l-0.229-0.098
		C36.031,37.134,35.375,37,34.701,37H31v-4h6c0.552,0,1-0.447,1-1s-0.448-1-1-1h-6v-2h8c0.552,0,1-0.447,1-1s-0.448-1-1-1h-8v-2h12
		c0.552,0,1-0.447,1-1s-0.448-1-1-1H31v-2h12c0.552,0,1-0.447,1-1s-0.448-1-1-1H31v-2h8c0.552,0,1-0.447,1-1s-0.448-1-1-1h-8v-2h6
		c0.552,0,1-0.447,1-1s-0.448-1-1-1h-6V9h2c0.552,0,1-0.447,1-1s-0.448-1-1-1h-2V5c0-0.553-0.448-1-1-1s-1,0.447-1,1v2h-2
		c-0.552,0-1,0.447-1,1s0.448,1,1,1h2v2h-6c-0.552,0-1,0.447-1,1s0.448,1,1,1h6v2h-8c-0.552,0-1,0.447-1,1s0.448,1,1,1h8v2H17
		c-0.552,0-1,0.447-1,1s0.448,1,1,1h12v2H17c-0.552,0-1,0.447-1,1s0.448,1,1,1h12v2h-8c-0.552,0-1,0.447-1,1s0.448,1,1,1h8v2h-6
		c-0.552,0-1,0.447-1,1s0.448,1,1,1h6v4h-3.248c-0.957,0-1.893,0.28-2.709,0.81l-0.969,0.932c-0.835,0.827-1.998,1.171-3.037,0.896
		c-1.842-0.486-5.228,0.081-6.558,2.114c-1.217,1.861-0.876,4.705,0.812,6.39l7.879,6.818c1.7,1.7,4.265,2.052,6.234,0.854
		c0.938-0.569,1.642-1.4,2.036-2.405c0.061-0.154,0.175-0.274,0.316-0.344c0.142,0.069,0.255,0.189,0.316,0.344
		c0.395,1.004,1.099,1.836,2.037,2.405c0.789,0.479,1.671,0.71,2.552,0.71c1.321,0,2.635-0.52,3.613-1.502l8.184-6.802
		C48.178,46.501,48.497,43.834,47.218,41.878L47.218,41.878z M45.113,46.743l-8.184,6.802c-1.029,1.03-2.62,1.265-3.782,0.56
		c-0.568-0.346-0.977-0.826-1.213-1.429c-0.33-0.838-1.042-1.433-1.895-1.616V51h-0.564v0.06c-0.852,0.184-1.565,0.778-1.896,1.617
		c-0.237,0.602-0.645,1.082-1.212,1.427c-1.164,0.704-2.755,0.47-3.835-0.607l-7.879-6.818c-0.951-0.951-1.189-2.777-0.5-3.832
		c0.699-1.067,3.055-1.624,4.372-1.275c1.722,0.459,3.621-0.083,4.958-1.409l0.731-0.725c0.471-0.286,1-0.437,1.538-0.437H29
		c0,0.553,0.448,1,1,1s1-0.447,1-1h3.701c0.325,0,0.643,0.052,0.947,0.154l0.39,0.482c1.211,1.5,3.174,2.201,5.251,1.87
		c1.25-0.195,3.624,0.504,4.255,1.466C46.308,44.141,46.098,45.753,45.113,46.743z"/>
	<path d="M21.752,42c-2.206,0-4,1.794-4,4s1.794,4,4,4s4-1.794,4-4S23.958,42,21.752,42z M21.752,48c-1.103,0-2-0.897-2-2
		s0.897-2,2-2s2,0.897,2,2S22.855,48,21.752,48z"/>
	<path d="M37.701,42c-2.206,0-4,1.794-4,4s1.794,4,4,4s4-1.794,4-4S39.907,42,37.701,42z M37.701,48c-1.103,0-2-0.897-2-2
		s0.897-2,2-2s2,0.897,2,2S38.804,48,37.701,48z"/>
	<path d="M49.56,0H10.44C8.543,0,7,1.543,7,3.439v53.121C7,58.457,8.543,60,10.44,60h39.12c1.897,0,3.44-1.543,3.44-3.439V3.439
		C53,1.543,51.457,0,49.56,0z M51,56.561C51,57.354,50.354,58,49.56,58H10.44C9.646,58,9,57.354,9,56.561V3.439
		C9,2.646,9.646,2,10.44,2h39.12C50.354,2,51,2.646,51,3.439V56.561z"/>
</g>
<g>
</g>
<g>
</g>
<g>
</g>
<g>
</g>
<g>
</g>
<g>
</g>
<g>
</g>
<g>
</g>
<g>
</g>
<g>
</g>
<g>
</g>
<g>
</g>
<g>
</g>
<g>
</g>
<g>
</g>
</svg>
